<?xml version="1.0" standalone="no"?>
<!DOCTYPE svg PUBLIC "-//W3C//DTD SVG 1.1//EN" "http://www.w3.org/Graphics/SVG/1.1/DTD/svg11.dtd" >
<svg xmlns="http://www.w3.org/2000/svg">
<metadata></metadata>
<defs>
<font id="helvetica_neuebold" horiz-adv-x="1138" >
<font-face units-per-em="2048" ascent="1638" descent="-410" />
<missing-glyph horiz-adv-x="569" />
<glyph horiz-adv-x="2048" />
<glyph horiz-adv-x="2048" />
<glyph horiz-adv-x="682" />
<glyph horiz-adv-x="0" />
<glyph unicode="&#x9;" horiz-adv-x="569" />
<glyph unicode="&#xd;" horiz-adv-x="681" />
<glyph horiz-adv-x="0" />
<glyph unicode=" "  horiz-adv-x="569" />
<glyph unicode="&#x09;" horiz-adv-x="569" />
<glyph unicode="&#xa0;" horiz-adv-x="569" />
<glyph unicode="!" horiz-adv-x="569" d="M125 0h321v315h-321v-315zM133 1069l78 -631h145l80 631v393h-303v-393z" />
<glyph unicode="&#x22;" horiz-adv-x="948" d="M174 805h219v657h-219v-657zM555 805h219v657h-219v-657z" />
<glyph unicode="#" d="M68 406h170l-58 -406h199l57 406h197l-55 -406h198l55 406h179v184h-152l35 254h178v184h-151l55 406h-199l-55 -406h-199l58 406h-199l-57 -406h-195v-184h170l-37 -254h-194v-184zM461 590l37 254h196l-35 -254h-198z" />
<glyph unicode="$" d="M0 475q20 -242 150 -366q129 -127 358 -142v-174h121v174q154 8 252 62q102 53 155 116q59 61 82 134q23 74 23 114q0 53 -6 117q-10 72 -48 131q-43 72 -120 125q-86 63 -234 102q-12 4 -53 15q-18 4 -51 12v362q70 0 119 -57t51 -139h291q-6 111 -46 184 q-39 76 -100 131q-66 53 -141 82q-92 31 -174 39v158h-121v-158q-88 -6 -178 -35q-88 -31 -152 -86q-70 -55 -104 -133q-41 -76 -41 -184q0 -100 35 -170q33 -68 92 -115q63 -51 133 -74q53 -23 149 -49q8 -2 21.5 -5t15.5 -3q6 -2 16.5 -6t12.5 -4v-428q-92 18 -158 86 q-63 67 -61 184h-289zM324 1087q0 45 16 76q10 27 41 54q37 25 59 30q37 10 68 10v-333q-96 20 -141 59q-43 37 -43 104zM629 205v393q127 -35 170 -74q51 -37 51 -118q0 -51 -21 -87q-25 -37 -51 -59q-35 -25 -73 -39q-41 -14 -76 -16z" />
<glyph unicode="%" horiz-adv-x="2048" d="M154 1057q0 -86 18 -156q14 -74 57 -127q37 -49 103 -82q70 -29 160 -28q88 0 155.5 28.5t106.5 79.5q41 49 63 121q20 70 21 156q0 78 -17 159q-14 70 -55 131q-43 57 -104 91q-63 33 -160 32q-92 0 -156 -32q-66 -31 -108 -87q-41 -53 -64 -129q-20 -69 -20 -157z M362 1053q0 10 1.5 36.5t1.5 43.5q8 55 18 84q16 41 43 65q25 27 76 27q43 0 71 -29q25 -27 37 -70q8 -27 17 -84q0 -16 1 -41.5t1 -33.5q0 -10 -1 -35t-1 -37q-8 -51 -17 -78q-14 -33 -41 -59q-31 -25 -75 -25q-47 0 -76 25q-25 23 -39 59q-10 33 -14 78q-3 27 -3 74z M520 -43h178l844 1522h-174zM1210 375q0 -84 19 -158q16 -76 57 -127q35 -51 103 -86q68 -31 159 -31q90 0 156 31q66 29 106 82q41 49 64 125q20 68 20 156q0 80 -16 157q-14 70 -55 127q-45 57 -105 86q-63 33 -159 33q-92 0 -156 -31q-66 -31 -109 -84q-41 -49 -63 -125 q-21 -67 -21 -155zM1419 373q0 10 1 36.5t1 41.5q8 53 19 79q16 41 43 62q25 25 76 24q41 0 71 -26q27 -33 37 -66q8 -29 16 -82q0 -14 1.5 -37.5t1.5 -34t-1.5 -36t-1.5 -39.5q-8 -53 -16 -78q-12 -35 -41 -65q-29 -27 -76 -27q-49 0 -75.5 26.5t-38.5 65.5q-10 33 -15 80 q-2 29 -2 76z" />
<glyph unicode="&#x26;" horiz-adv-x="1402" d="M66 410q0 -104 36 -185q37 -82 101 -139q68 -57 149 -84q92 -29 187 -29q125 0 223 43q98 41 188 129l119 -145h356l-297 346q63 78 97 170q37 100 45 191h-252q-6 -45 -18.5 -88.5t-34.5 -86.5l-189 232q109 57 187 147q74 88 73 217q0 88 -32 152q-31 66 -86 109 q-51 45 -127 67q-74 23 -156 23q-74 0 -143 -25q-68 -20 -121 -65q-55 -49 -84 -107q-33 -59 -33 -137q0 -100 41 -168q35 -66 98 -143q-59 -29 -123 -72q-57 -39 -106 -94q-41 -47 -72 -115q-27 -66 -26 -143zM342 403q0 45 18 82q14 33 46 68q29 31 65 53q49 29 76 39 l250 -305q-49 -53 -109 -94q-63 -35 -137 -35q-33 0 -80 14q-45 23 -65 41q-31 31 -46 62q-18 37 -18 75zM518 1155q0 57 39 94q41 35 92 35q55 0 92 -41q41 -39 41 -98q0 -80 -45 -125q-39 -41 -104 -84q-10 14 -37 48t-41 52q-37 49 -37 119z" />
<glyph unicode="'" horiz-adv-x="569" d="M176 805h219v657h-219v-657z" />
<glyph unicode="(" horiz-adv-x="606" d="M106 549q0 -236 70 -475q76 -238 201 -445h241q-121 231 -167 459q-53 227 -54 481q0 238 54 475q51 230 170 453h-244q-66 -94 -119 -215q-55 -129 -82 -242q-33 -111 -53 -249q-16 -137 -17 -242z" />
<glyph unicode=")" horiz-adv-x="606" d="M-12 -371h241q63 90 119 213q43 96 86 240q37 152 49 250q16 137 17 241q0 233 -70 478q-74 240 -201 446h-239q113 -223 166 -461q53 -242 53 -483q0 -238 -53 -475q-55 -234 -168 -449z" />
<glyph unicode="*" horiz-adv-x="833" d="M45 1139l238 -80l-152 -201l137 -100l144 211l151 -211l135 100l-151 201l241 80l-55 157l-237 -90v256h-164v-256l-232 90z" />
<glyph unicode="+" horiz-adv-x="1228" d="M98 408h408v-408h219v408h408v219h-408v407h-219v-407h-408v-219z" />
<glyph unicode="," horiz-adv-x="569" d="M125 0h147q2 -27 -8 -66q-8 -29 -31 -57q-25 -29 -49 -43q-25 -18 -57 -24v-148q72 10 123 39q55 23 102 70q43 43 70 102q25 55 24 127v315h-321v-315z" />
<glyph unicode="-" horiz-adv-x="833" d="M109 434h616v250h-616v-250z" />
<glyph unicode="." horiz-adv-x="569" d="M123 0h321v315h-321v-315z" />
<glyph unicode="/" horiz-adv-x="759" d="M-20 -33h231l571 1530h-233z" />
<glyph unicode="0" d="M43 723q0 -217 43 -358q39 -141 113 -232q70 -84 166 -123q98 -37 202 -37q111 0 203 37q96 37 168 123q76 88 115 232q43 141 43 358q0 209 -43 350q-39 141 -115 230q-72 86 -168 122q-92 37 -203 37q-104 0 -202 -37q-96 -39 -166 -122q-74 -90 -113 -230 q-43 -141 -43 -350zM334 723q0 55 2 88q0 53 6 109q6 63 20 108q16 59 39 98q25 39 66 70q41 27 100 27q61 0 101 -27q41 -29 67.5 -70t38.5 -98q14 -45 21 -108q8 -49 8 -109q2 -33 2 -88q0 -31 -4 -150q-4 -88 -27 -167q-16 -76 -69 -138q-45 -57 -138 -57q-90 0 -135 57 q-51 63 -67 138q-23 80 -27 167q-4 119 -4 150z" />
<glyph unicode="1" d="M152 930h360v-930h291v1434h-232q-12 -84 -51 -138q-43 -59 -94 -88q-51 -31 -127 -49q-78 -12 -147 -10v-219z" />
<glyph unicode="2" d="M43 0h1053v250h-678q53 74 123 129q76 59 143 104q49 31 147 97q68 47 130 108q57 61 92 139q35 80 34 187q0 100 -38 188q-45 86 -109 141q-68 57 -158 89q-86 31 -186 30q-131 0 -227 -45q-102 -43 -166 -123q-63 -78 -99 -184q-32 -98 -28 -227h278q0 49 11 116 q14 61 38 107q31 49 72 78q45 29 107 28q92 0 155 -57q59 -63 60 -164q0 -66 -31 -117q-29 -51 -74 -92q-51 -47 -96 -73q-16 -12 -50 -34t-50 -34q-61 -43 -177 -125q-86 -66 -143 -135q-61 -70 -98 -164q-35 -94 -35 -217z" />
<glyph unicode="3" d="M37 494q-4 -125 37 -222q39 -100 106 -161q74 -70 168 -103q104 -35 221 -35q106 0 200.5 31t170.5 90q74 57 117 148q45 88 45 200q0 123 -68 211q-66 86 -186 115v4q98 27 151 109q49 80 50 184q0 96 -43 170t-113 125q-63 49 -154 78q-86 25 -172 24q-113 0 -200 -37 q-90 -35 -154 -100q-63 -61 -102 -158q-37 -94 -39 -200h276q-2 109 53 184q59 72 168 72q80 0 141.5 -49.5t61.5 -141.5q0 -61 -31 -98q-25 -33 -73 -57q-53 -20 -101 -23q-53 -4 -100 0v-205q16 0 54 -1t57 -1q68 -6 108 -24q49 -18 80 -62q33 -41 33 -125 q0 -104 -68 -166q-70 -59 -166 -59q-59 0 -110 22q-47 23 -76 62q-33 39 -47 90q-14 49 -19 109h-276z" />
<glyph unicode="4" d="M33 332h606v-332h276v332h191v239h-191v863h-260l-622 -836v-266zM262 571l371 498h6v-498h-377z" />
<glyph unicode="5" d="M37 426q4 -117 45 -197q45 -86 119 -143q66 -51 168 -86q106 -27 200 -27q106 -2 205 35q102 43 168 109q76 74 117 166q43 92 43 204q0 98 -29 189q-31 90 -86 155q-59 66 -139 105t-189 39q-86 0 -153 -25q-70 -29 -127 -86l-4 4l57 326h592v240h-801l-141 -793h262 q41 57 92 88q53 27 127 27q61 0 105 -21q45 -20 77 -57q33 -37 50 -86q16 -53 16 -105q0 -49 -16 -102q-16 -49 -50 -90q-33 -35 -77 -62q-51 -23 -105 -22q-100 0 -162 59q-63 55 -73 156h-291z" />
<glyph unicode="6" d="M43 713q0 -135 24.5 -270.5t88.5 -235.5q63 -102 170 -170q111 -63 268 -64q106 0 205 39q92 43 159 111q70 78 103 168q35 94 35 205q0 90 -27 170q-31 90 -84 149q-66 72 -149 107q-84 41 -181 41q-104 0 -184 -37q-82 -37 -139 -123l-4 4q4 72 16 135q16 80 45 143 q33 68 82 111q53 47 131 47q74 0 127 -53q50 -49 66 -125h276q-12 98 -51 170q-39 74 -100 125q-59 47 -142 76q-78 27 -172 26q-152 0 -260 -67q-104 -66 -174 -174q-68 -111 -98.5 -242t-30.5 -266zM354 477q0 57 15 101q16 49 43 86q29 39 71 57q44 22 103 22 q53 0 98 -22q41 -25 68 -62t39 -86q14 -45 14 -100q0 -53 -14 -96q-16 -47 -43 -84q-27 -35 -68 -60q-45 -23 -94 -22q-53 0 -99 22q-43 20 -73 62q-27 35 -45 86q-14 53 -15 96z" />
<glyph unicode="7" d="M80 1163h680q-209 -254 -330 -545q-127 -293 -151 -618h311q4 150 33 309q31 156 90 328q63 170 147 305q86 144 199 242v250h-979v-271z" />
<glyph unicode="8" d="M29 420q0 -115 45 -201q51 -84 123 -139q76 -55 176 -80q92 -27 200 -27q94 0 197 27q100 33 172 84q70 51 123 139q45 86 45 199q0 135 -70 229q-72 94 -198 121v4q100 33 157 115q51 84 52 186q0 53 -25 119q-23 63 -80 127q-66 61 -149 98q-94 41 -226 41 q-88 0 -174 -24q-84 -25 -155 -74q-68 -49 -111 -123t-43 -170q0 -104 53 -186q53 -80 158 -109v-4q-127 -31 -201 -123q-70 -94 -69 -229zM319 434q0 113 74 168q72 59 180 60q49 0 95 -17q45 -14 77 -47q33 -29 54 -74q20 -39 20 -92q0 -51 -18 -98q-16 -41 -51 -76 q-39 -35 -78 -49q-45 -18 -98.5 -18.5t-98.5 18.5q-45 14 -82 49q-33 33 -53.5 76t-20.5 100zM352 1044q0 47 17 86q18 37 49 62q29 23 69.5 37t83.5 14q70 0 109 -20q45 -23 65 -52q25 -31 33 -65q8 -27 8 -62q0 -92 -61 -139q-61 -49 -154 -49q-88 0 -153 49 q-66 47 -66 139z" />
<glyph unicode="9" d="M43 938q0 -90 27 -170q31 -90 84 -150q66 -72 149 -106q84 -41 180 -41q104 0 185 37q82 37 139 123l4 -4q-2 -49 -16 -135q-16 -80 -45 -144q-33 -72 -82 -110q-49 -47 -131 -48q-74 0 -127 54q-50 49 -66 125h-276q12 -96 51 -168q39 -74 100 -125q59 -51 141 -76 q78 -27 172 -27q152 0 261 68q102 61 174 172q68 111 98.5 242t30.5 266t-25 268q-25 135 -88 240q-68 109 -168 168q-104 66 -270 65q-111 0 -205 -41q-86 -37 -160 -110q-70 -78 -102 -168q-35 -94 -35 -205zM334 961q0 53 14 96q16 47 43 84t70 59q41 23 92 23 q53 0 98 -23q43 -20 74 -61q25 -35 45 -86q14 -53 14 -97q0 -57 -14 -100q-16 -49 -43 -86q-29 -39 -72 -57q-39 -23 -102 -23q-53 0 -98 23q-41 25 -68 61q-27 37 -39 86q-14 45 -14 101z" />
<glyph unicode=":" horiz-adv-x="569" d="M125 0h321v315h-321v-315zM125 725h321v315h-321v-315z" />
<glyph unicode=";" horiz-adv-x="569" d="M125 0h147q2 -27 -8 -66q-8 -29 -31 -57q-25 -29 -49 -43q-25 -18 -57 -24v-148q72 10 123 39q55 23 102 70q43 43 70 102q25 55 24 127v315h-321v-315zM125 725h321v315h-321v-315z" />
<glyph unicode="&#x3c;" horiz-adv-x="1228" d="M94 397l1041 -411v233l-752 299l752 299v236l-1041 -414v-242z" />
<glyph unicode="=" horiz-adv-x="1228" d="M98 188h1035v220h-1035v-220zM98 627h1035v219h-1035v-219z" />
<glyph unicode="&#x3e;" horiz-adv-x="1228" d="M94 -14l1041 411v242l-1041 414v-236l752 -299l-752 -299v-233z" />
<glyph unicode="?" d="M66 991h301q0 57 12 103q12 51 39 86q25 35 65 57q41 20 95 20q84 0 127 -45q47 -45 47 -139q2 -49 -19 -92q-27 -39 -57 -68q-23 -20 -76 -61q-43 -33 -78 -74q-39 -43 -63 -100q-29 -53 -35 -148v-92h276v78q10 66 41 102q29 37 72 74q45 35 88 62q53 41 82 77 q37 43 66 109q25 63 24 162q0 59 -24 127q-29 70 -86 129q-55 55 -156 100q-104 39 -244 39q-117 0 -203 -39q-96 -39 -155 -104q-63 -63 -103 -160q-32 -92 -36 -203zM395 0h322v315h-322v-315z" />
<glyph unicode="@" horiz-adv-x="1638" d="M74 731q0 -164 61 -305q61 -139 168 -242q113 -104 252 -159q141 -57 307 -58q195 0 357 86q164 84 268 244h-172q-78 -78 -197 -125q-115 -43 -244 -43t-243 43q-111 43 -191 123q-78 74 -125 188q-45 104 -45 244q0 127 41 240q39 113 117 192q78 84 182 127 q106 47 240 47q119 0 219 -33q98 -33 176 -96q76 -70 117 -160q43 -92 43 -215q0 -74 -21 -151q-27 -78 -57 -121q-29 -45 -78 -78q-47 -27 -86 -26q-18 0 -26 14q-8 10 -9 33q0 20 7 45q2 14 10 43l129 528h-168l-33 -110q-33 78 -104 112q-72 31 -135 31q-104 0 -183 -45 q-80 -43 -143 -119q-57 -78 -90 -168q-31 -96 -31 -190q0 -74 27 -135q25 -66 69 -111q41 -47 103 -78q59 -27 122.5 -27t125.5 29q59 29 96 90h4q2 -51 45 -84q35 -33 104 -32q43 0 129 32q86 37 160 107q80 70 135 184q57 113 58 270q0 139 -60 258q-57 113 -157 197 q-96 78 -228 125q-127 45 -268 45q-158 0 -301 -59q-135 -55 -248 -162q-104 -98 -168 -244q-61 -139 -61 -301zM596 653q0 51 18 105q20 57 54 98q31 43 80 70q43 29 102 28q63 0 113 -49q45 -51 45 -125q0 -53 -19 -108q-16 -49 -51 -99q-41 -51 -82 -73q-45 -29 -100 -29 q-72 0 -117 49q-43 51 -43 133z" />
<glyph unicode="A" horiz-adv-x="1402" d="M-12 0h323l115 326h547l110 -326h334l-547 1462h-329zM510 565l190 537h5l184 -537h-379z" />
<glyph unicode="B" horiz-adv-x="1441" d="M141 0h709q98 0 190 25q96 25 168 75q74 55 115 133q43 80 43 191q0 137 -68 235q-63 94 -200 136q98 45 147 120q51 72 51 185q0 104 -34 172q-29 68 -95 112q-63 41 -147 60q-86 18 -191 18h-688v-1462zM463 250v401h350q104 0 168 -49q63 -45 63 -160q0 -59 -20 -94 q-20 -41 -51 -57q-25 -18 -76 -33q-57 -8 -90 -8h-344zM463 870v342h301q45 0 84 -8q39 -6 69.5 -24.5t49.5 -51.5q18 -35 18 -84q0 -94 -55 -133q-57 -41 -142 -41h-325z" />
<glyph unicode="C" horiz-adv-x="1517" d="M78 725q0 -158 49 -299q49 -139 141 -240q90 -100 228 -161q137 -57 301 -58q131 0 247 41q111 39 197 119q82 76 135 188q51 109 64 248h-312q-18 -145 -100 -237q-86 -90 -231 -90q-109 0 -185 43q-76 41 -123 110q-51 78 -67 156q-23 82 -23 180q0 104 23 186 q16 80 67 162q49 72 123 111q76 43 185 43q59 0 112 -19q55 -20 99 -55q41 -33 71 -80q29 -49 37 -102h311q-16 129 -69 225q-55 100 -141 164q-86 70 -193 102q-109 35 -227 35q-166 0 -301 -59q-133 -57 -228 -164q-92 -104 -141 -246q-49 -139 -49 -303z" />
<glyph unicode="D" horiz-adv-x="1517" d="M141 0h631q170 0 293 57q127 57 205 154q84 96 125 233q41 139 41 295q0 184 -52 318q-51 139 -139 225q-84 88 -209 135q-121 45 -264 45h-631v-1462zM463 270v922h229q113 0 201 -33q84 -39 129 -98.5t72 -151.5q20 -102 20 -200q0 -123 -31 -205q-33 -90 -82 -135 q-51 -53 -116 -76q-68 -23 -135 -23h-287z" />
<glyph unicode="E" horiz-adv-x="1327" d="M141 0h1110v270h-788v359h708v250h-708v313h772v270h-1094v-1462z" />
<glyph unicode="F" horiz-adv-x="1214" d="M141 0h322v604h612v250h-612v338h706v270h-1028v-1462z" />
<glyph unicode="G" horiz-adv-x="1554" d="M78 725q0 -158 49 -299q49 -139 141 -240q90 -100 228 -161q137 -57 301 -58q109 0 211 45q104 43 190 154l33 -166h205v791h-615v-240h324q-14 -154 -101 -236q-89 -79 -243 -79h-4q-109 0 -185 43q-76 41 -123 110q-51 78 -67 156q-23 82 -23 180q0 104 23 186 q16 80 67 162q49 72 123 111q76 43 185 43q117 0 198 -62q82 -61 111 -184h307q-12 125 -67 221q-57 98 -142 162q-88 70 -188 98q-102 35 -219 35q-166 0 -301 -59q-133 -57 -228 -164q-92 -104 -141 -246q-49 -139 -49 -303z" />
<glyph unicode="H" horiz-adv-x="1517" d="M141 0h322v631h592v-631h321v1462h-321v-561h-592v561h-322v-1462z" />
<glyph unicode="I" horiz-adv-x="604" d="M141 0h322v1462h-322v-1462z" />
<glyph unicode="J" d="M29 418q0 -119 41 -205t108 -139q66 -53 154 -82q86 -25 178 -25q166 0 260 49q98 53 148 127q49 70 65 160q14 80 14 158v1001h-321v-987q0 -53 -4 -82q0 -29 -17 -78q-20 -39 -51 -57q-34 -22 -93 -22h-5q-59 0 -92 18q-35 18 -58 49q-18 31 -28 78q-8 41 -9 98v66 h-290v-127z" />
<glyph unicode="K" horiz-adv-x="1478" d="M141 0h322v471l184 186l440 -657h404l-627 885l572 577h-402l-571 -606v606h-322v-1462z" />
<glyph unicode="L" horiz-adv-x="1214" d="M141 0h1035v270h-713v1192h-322v-1462z" />
<glyph unicode="M" horiz-adv-x="1857" d="M141 0h301v1026h4l359 -1026h248l358 1036h4v-1036h301v1462h-452l-324 -1005h-4l-342 1005h-453v-1462z" />
<glyph unicode="N" horiz-adv-x="1517" d="M141 0h301v979h4l609 -979h321v1462h-301v-981h-4l-610 981h-320v-1462z" />
<glyph unicode="O" horiz-adv-x="1593" d="M78 725q0 -158 49 -299q49 -139 141 -240q90 -100 228 -161q137 -57 301 -58q166 0 303 58q135 63 225 161q90 100 141 240q49 141 50 299q0 164 -50 303q-49 141 -141 245.5t-225 164.5q-135 59 -303 59q-166 0 -301 -59q-133 -57 -228 -164q-92 -104 -141 -246 q-49 -139 -49 -303zM399 725q0 104 23 186q16 80 67 162q49 72 123 111q76 43 184.5 43t184.5 -43q74 -39 123 -111q51 -82 67 -162q23 -82 23 -186q0 -98 -23 -180q-16 -78 -67 -156q-47 -70 -123 -110q-76 -43 -184.5 -43t-184.5 43q-76 41 -123 110q-51 78 -67 156 q-23 82 -23 180z" />
<glyph unicode="P" horiz-adv-x="1366" d="M141 0h322v524h338q143 0 233 41q92 35 158 105q61 68 86 149q29 80 29 174q0 96 -29 174q-25 82 -86 150q-66 70 -158 104q-90 41 -233 41h-660v-1462zM463 774v438h250q59 0 106 -8q51 -8 90 -33q39 -20 62 -65q25 -42 25 -110q0 -71 -25 -115q-23 -45 -62 -66 q-39 -25 -90 -33q-47 -8 -106 -8h-250z" />
<glyph unicode="Q" horiz-adv-x="1593" d="M78 725q0 -158 49 -299q49 -139 141 -240q90 -100 228 -161q137 -57 301 -58q209 0 354 84l207 -186l149 155l-182 166q92 104 141.5 241.5t49.5 297.5q0 164 -50 303q-49 141 -141 245.5t-225 164.5q-135 59 -303 59q-166 0 -301 -59q-133 -57 -228 -164 q-92 -104 -141 -246q-49 -139 -49 -303zM399 725q0 104 23 186q16 80 67 162q49 72 123 111q76 43 184.5 43t184.5 -43q74 -39 123 -111q51 -82 67 -162q23 -82 23 -186q0 -115 -25 -199q-23 -78 -65 -137l-166 152l-150 -160l138 -125q-16 -14 -56 -18q-27 -2 -73 -2 q-109 0 -185 43q-76 41 -123 110q-51 78 -67 156q-23 82 -23 180z" />
<glyph unicode="R" horiz-adv-x="1478" d="M141 0h322v571h321q121 0 174 -53q53 -55 70 -168q12 -88 19 -184q6 -98 32 -166h322q-25 35 -33 74q-14 51 -16 94q-4 31 -9 96q0 14 -1 42t-3 40q-2 49 -16 111q-10 55 -35 100q-23 43 -63 82q-45 35 -99 49v4q125 49 177 144q55 94 55 223q0 84 -31 158 q-29 72 -86 126q-55 55 -135 87q-72 32 -170 32h-6h-789v-1462zM463 801v411h352q111 0 166 -49q55 -45 55 -153q0 -111 -55 -160t-166 -49h-352z" />
<glyph unicode="S" horiz-adv-x="1329" d="M49 485v-19q0 -123 49 -214q53 -98 139.5 -161.5t200.5 -94.5q115 -29 234 -29q147 0 262 35q109 31 192 96q76 68 115 150q39 84 39 186q0 121 -51 201q-57 84 -125 127q-66 43 -146 69q-88 23 -112 29q-53 12 -129 32.5t-94 25.5q-78 20 -131 45q-51 23 -66 49 q-16 29 -16 69q0 49 20 78q23 31 53 51q27 18 70 29q35 8 78 8q53 0 110 -10q45 -8 88 -35q39 -25 64 -67q25 -47 27 -109h311q0 127 -47 215t-131 148q-82 57 -189 81q-100 27 -219 27q-102 0 -196 -27q-102 -29 -177 -81q-82 -59 -125 -140q-49 -80 -49 -194 q0 -102 37 -170q39 -74 101 -119q63 -47 139 -78q76 -29 160 -49q106 -29 157 -41q80 -18 139 -43q61 -25 99 -61q39 -37 39 -97q0 -55 -29 -90q-27 -35 -72 -57q-37 -18 -92 -29q-49 -6 -92 -6q-55 0 -123 14q-68 20 -102 50q-43 29 -72 81q-27 51 -27 125h-311z" />
<glyph unicode="T" horiz-adv-x="1251" d="M27 1192h438v-1192h321v1192h439v270h-1198v-270z" />
<glyph unicode="U" horiz-adv-x="1517" d="M135 553q0 -299 164 -442q158 -143 459 -144q291 0 459 144q165 147 165 442v909h-321v-909q0 -160 -66 -242q-65 -75 -233 -75h-4q-96 0 -156 26q-59 31 -92 74q-35 43 -43 100q-10 66 -10 117v909h-322v-909z" />
<glyph unicode="V" horiz-adv-x="1290" d="M-14 1462l473 -1462h362l486 1462h-332l-330 -1028h-4l-326 1028h-329z" />
<glyph unicode="W" horiz-adv-x="1933" d="M6 1462l387 -1462h326l244 995h4l247 -995h320l393 1462h-315l-240 -1007h-4l-250 1007h-301l-254 -995h-4l-231 995h-322z" />
<glyph unicode="X" horiz-adv-x="1366" d="M-10 0h360l326 506l319 -506h383l-510 764l469 698h-352l-297 -467l-287 467h-372l471 -696z" />
<glyph unicode="Y" horiz-adv-x="1366" d="M-16 1462l536 -893v-569h322v561l542 901h-358l-340 -577l-342 577h-360z" />
<glyph unicode="Z" horiz-adv-x="1327" d="M47 0h1233v270h-805l785 938v254h-1151v-270h722l-784 -938v-254z" />
<glyph unicode="[" horiz-adv-x="681" d="M139 -371h541v230h-250v1409h250v229h-541v-1868z" />
<glyph unicode="\" horiz-adv-x="759" d="M-20 1497l569 -1530h233l-571 1530h-231z" />
<glyph unicode="]" horiz-adv-x="681" d="M2 -141v-230h541v1868h-541v-229h250v-1409h-250z" />
<glyph unicode="^" horiz-adv-x="1228" d="M125 645h240l249 563l250 -563h240l-352 789h-275z" />
<glyph unicode="_" horiz-adv-x="1024" d="M0 -152v-102h1024v102h-1024z" />
<glyph unicode="`" horiz-adv-x="530" d="M-96 1481l313 -291h203l-197 291h-319z" />
<glyph unicode="a" horiz-adv-x="1175" d="M66 289q0 -86 28 -142q23 -55 76 -98q47 -39 115 -57q63 -18 141 -19q94 0 192 29q90 27 164 100q4 -33 9 -53q4 -25 12 -49h295q-18 29 -29 98q-8 57 -8 138v550q0 94 -43 156q-45 57 -110.5 90t-149.5 45q-92 10 -162 10q-88 0 -174 -18q-82 -14 -158 -57 q-66 -37 -114 -109q-46 -66 -52 -170h291q10 86 57 123q49 37 136 37q25 0 73 -4q27 -6 58 -21q31 -20 41 -45q16 -23 16 -73v-5q0 -39 -27 -65q-29 -23 -78 -35t-112 -18q-43 -4 -129 -17q-63 -8 -129 -28q-59 -14 -115 -52q-47 -31 -82 -92q-32 -57 -32 -144v-5zM356 301 q0 41 14.5 67.5t39.5 45.5q27 18 53 26q49 14 65 17q43 8 70 10t66 10q12 2 32.5 7t28.5 8q33 16 45 26v-108q0 -12 -4 -66q-6 -35 -29 -82q-23 -39 -69.5 -67.5t-132.5 -28.5q-35 0 -68 6q-27 4 -57 21q-27 18 -39 43q-14 27 -15 65z" />
<glyph unicode="b" horiz-adv-x="1251" d="M111 0h276v135h4q45 -88 139 -125q92 -37 209 -37q84 0 158 33q80 35 139 100q61 63 103 173q39 104 39 251.5t-39 251.5q-41 109 -103 172q-59 66 -139 101q-72 32 -153 32h-5q-100 0 -190 -38q-92 -39 -143 -119h-5v532h-290v-1462zM391 528q0 72 15 129q16 66 45 109 q33 49 77 74q42 28 106 28h5q70 0 111 -28q43 -20 77 -74q29 -43 45 -109q15 -57 15 -129q0 -70 -15 -127q-16 -66 -45 -108q-31 -47 -77 -76q-47 -27 -111 -27q-61 0 -111 27q-49 33 -77.5 76t-44.5 108q-14 57 -15 127z" />
<glyph unicode="c" horiz-adv-x="1175" d="M78 514q0 -121 39 -219q43 -104 108 -170q70 -70 168 -113q106 -39 219 -39q211 0 346 111q137 113 164 322h-280q-16 -102 -72 -156q-53 -59 -160 -60q-70 0 -114 31q-49 33 -74 78q-27 43 -41 109q-12 59 -12 116q0 61 12 119q12 59 41 111q29 49 78 82q44 32 112 32h4 q186 0 215 -182h285q-6 100 -49 178q-43 76 -113 123q-66 51 -155 76q-83 24 -174 24h-7q-127 0 -229 -43q-94 -41 -170 -118q-72 -82 -104 -185q-37 -104 -37 -227z" />
<glyph unicode="d" horiz-adv-x="1251" d="M66 539q0 -109 28 -213q33 -106 90 -183q57 -80 148 -123q86 -47 209 -47q104 0 188 39q82 37 133 123h4v-135h277v1462h-291v-532h-4q-49 76 -135 119q-86 38 -174 38h-4q-119 0 -205 -47q-90 -43 -146 -120q-59 -74 -90 -175q-28 -101 -28 -199v-7zM356 530 q0 68 13 125q16 66 45 109q29 49 78 76q49 28 115 28h5q72 0 119 -28.5t76 -73.5q31 -49 43 -107q12 -61 12 -126.5t-12 -126.5q-12 -59 -41 -111q-29 -47 -76 -76q-51 -29 -121 -29q-68 0 -116 31q-47 29 -78 78q-31 41 -47 109q-14 57 -15 122z" />
<glyph unicode="e" horiz-adv-x="1175" d="M59 528q0 -127 39 -225q39 -104 107 -176q70 -72 170 -115q106 -39 225 -39q182 0 307 82q127 84 189 273h-256q-16 -49 -78 -95q-66 -43 -152 -43q-125 0 -188 64q-66 66 -72 205h764q2 26 2 51q0 90 -22 184q-27 106 -95 201q-57 84 -163 141q-106 51 -236 51 q-121 0 -219 -43q-102 -43 -172 -118q-70 -74 -111 -176q-39 -98 -39 -222zM350 643q4 35 15 70q8 33 36 73q35 37 74 58q47 24 112 24h5q109 0 158 -57q50 -55 73 -168h-473z" />
<glyph unicode="f" horiz-adv-x="681" d="M0 864h174v-864h291v864h201v195h-201v63q0 66 27 95q26 26 79 26h4q55 0 107 -6v217q-49 4 -76 4q-27 4 -78 4q-176 0 -266 -90q-88 -88 -88 -231v-82h-174v-195z" />
<glyph unicode="g" horiz-adv-x="1251" d="M78 563q0 -109 24 -207q29 -100 82 -168q57 -76 142 -114q86 -43 204 -43q92 0 183 39q90 43 135 125h4v-140v-8q0 -106 -53 -178q-57 -74 -181 -74q-80 0 -137 33q-59 31 -80 113h-288q6 -94 51 -154q41 -66 110 -106q66 -41 148 -62q80 -18 158 -18q182 0 290 49 q111 51 166 121q57 68 74 151q18 83 18 146v991h-276v-141h-4q-51 90 -131 131q-76 38 -180 38h-5q-111 0 -196 -43q-82 -43 -141 -114q-55 -70 -89 -168q-28 -99 -28 -193v-6zM369 567q0 59 12 113q16 57 45 98t74 66q41 24 99 24h5q74 0 119 -26q51 -31 76 -72 q29 -49 41 -102q12 -61 12 -125q0 -66 -16 -109q-10 -49 -45 -94q-31 -41 -78 -66q-46 -24 -109 -24q-66 0 -112 29q-41 25 -74 73q-29 55 -37 103q-12 55 -12 112z" />
<glyph unicode="h" horiz-adv-x="1214" d="M111 0h290v555q0 162 54 231q51 72 172 72q104 0 145 -63q41 -70 41 -197v-598h291v651q0 98 -19 180q-14 78 -59 136q-41 55 -117 90q-76 30 -185 30h-7q-82 0 -168 -43q-86 -39 -141 -133h-7v551h-290v-1462z" />
<glyph unicode="i" horiz-adv-x="528" d="M119 0h291v1059h-291v-1059zM119 1223h291v239h-291v-239z" />
<glyph unicode="j" horiz-adv-x="569" d="M-37 -123v-239q35 -8 92 -9q113 0 183 19q76 23 114 61q41 39 58 98q18 57 18 142v1110h-291v-1096q0 -61 -35 -78q-33 -16 -77 -16t-62 8zM137 1223h291v239h-291v-239z" />
<glyph unicode="k" horiz-adv-x="1175" d="M137 0h291v365l113 108l290 -473h353l-445 670l400 389h-344l-367 -381v784h-291v-1462z" />
<glyph unicode="l" horiz-adv-x="528" d="M119 0h291v1462h-291v-1462z" />
<glyph unicode="m" horiz-adv-x="1855" d="M119 0h291v614q0 76 22 127q23 45 55 74q35 27 66 33q25 10 53 10q68 0 107 -22q39 -29 49 -64q14 -33 18 -84q2 -33 2 -94v-594h291v590q0 55 8 98q6 51 29 86q18 35 57 62q39 22 96 22h5q63 0 96 -20q37 -23 55 -56q18 -35 23 -82q4 -61 4 -100v-600h291v709 q0 100 -29 176q-29 70 -80 116q-49 43 -123 66q-68 20 -155 20q-109 0 -191 -53q-82 -51 -129 -123q-41 96 -125 138q-82 38 -179 38h-5q-106 0 -184 -45q-82 -45 -140 -127h-4v144h-274v-1059z" />
<glyph unicode="n" horiz-adv-x="1214" d="M111 0h290v555q0 162 54 231q51 72 172 72q104 0 145 -63q41 -70 41 -197v-598h291v651q0 98 -19 180q-14 78 -59 136q-41 55 -117 90q-76 30 -185 30h-7q-90 0 -180 -43q-86 -39 -144 -133h-6v148h-276v-1059z" />
<glyph unicode="o" horiz-adv-x="1251" d="M78 528q0 -131 39 -229q41 -102 110 -176q72 -70 172 -111q98 -39 226 -39q125 0 227 39q104 43 172 111q70 74 111 176q39 98 39 229t-39 230q-41 106 -111 176q-66 68 -172 115q-108 38 -221 38h-6q-119 0 -226 -38q-104 -45 -172 -115q-70 -70 -110 -176 q-39 -99 -39 -230zM369 528q0 63 12 125q12 59 41 109q33 47 80 78q50 29 120 29q0 -1 2 -1q72 0 126 -28q49 -31 77 -78q31 -45 43 -109q12 -61 13 -125q0 -66 -13 -122q-12 -61 -43 -111q-29 -49 -77 -76q-53 -29 -125 -29t-123 29q-47 27 -80 76q-29 51 -41 111 q-12 56 -12 122z" />
<glyph unicode="p" horiz-adv-x="1251" d="M111 -371h290v502h5q49 -72 135 -119q90 -39 182 -39q119 0 203 45q86 45 147 121q61 84 86 174q29 102 29 205q0 111 -29 215q-27 102 -88 182q-59 78 -149.5 125t-214.5 47q-100 0 -181 -38q-84 -41 -135 -125h-4v135h-276v-1430zM391 526q0 66 12 127q12 63 43 109 q29 47 78 78q45 28 114 28h5q68 0 119 -28q47 -31 78 -78q29 -47 45 -111q12 -61 12 -124.5t-12.5 -125t-40.5 -106.5q-29 -47 -78 -76q-51 -29 -121 -29q-68 0 -119 29q-49 29 -80 76q-29 45 -40 106q-14 57 -15 125z" />
<glyph unicode="q" horiz-adv-x="1251" d="M66 522q0 -154 43 -260t108 -168q57 -59 143 -94q86 -27 154 -27q98 0 191 37q90 37 143 123h4v-504h291v1430h-277v-135h-4q-49 88 -137 125q-82 38 -179 38h-5q-121 0 -209 -47q-90 -45 -150 -127q-61 -80 -88 -180q-28 -101 -28 -204v-7zM356 528q0 66 13 127 q16 63 45 107q31 51 80 78q50 29 118 29q1 0 2 -1q70 0 115 -30q51 -31 78 -80q29 -51 41 -111q14 -57 14 -123q0 -70 -14 -127q-12 -53 -41 -106q-31 -41 -78 -74q-53 -27 -121 -27q-70 0 -121 29q-45 27 -77 76q-29 51 -41 111q-13 56 -13 122z" />
<glyph unicode="r" horiz-adv-x="796" d="M111 0h290v477q0 76 15 133q16 61 47 107q35 45 90 74q51 26 129 26h6q8 0 26.5 -1t28.5 -1q14 -4 50 -8v270q-37 10 -64 10q-51 0 -106 -16q-45 -14 -97 -47q-43 -25 -80 -70q-33 -43 -55 -92h-4v197h-276v-1059z" />
<glyph unicode="s" horiz-adv-x="1099" d="M59 344q2 -106 47 -176q45 -72 115 -115q68 -43 156 -61q90 -18 180 -18q2 0 5 -1q88 0 171 19q86 14 156 59q66 41 110 113q41 76 41 176q0 72 -28 123q-23 45 -76 86q-49 33 -109 53q-43 16 -122 35q-31 8 -121 27q-74 16 -105 28q-45 10 -76 39q-28 24 -28 61 q0 34 16 56q16 18 39 29q33 12 53 12q18 4 54 4q74 0 135 -29q57 -31 63 -114h277q-8 96 -49 163q-45 63 -107 103q-66 41 -143 55q-88 16 -168 16q-72 0 -168 -14q-88 -20 -148 -53q-63 -39 -106 -105q-39 -68 -39 -167q0 -70 29 -117q25 -45 75 -82q45 -29 107 -49 q45 -16 125 -35q164 -35 244 -66q86 -35 86 -98q0 -39 -19 -63q-20 -31 -47 -41q-18 -14 -61 -25q-31 -6 -64 -6q-37 0 -84 10q-41 10 -69 33q-27 16 -50 53q-20 35 -20 82h-277z" />
<glyph unicode="t" horiz-adv-x="720" d="M12 864h176v-624q0 -82 27 -129.5t72 -75.5q51 -29 106 -35q51 -10 129 -10q57 0 88 2q55 4 82 8v225l-43 -6q-14 -2 -47 -2q-74 0 -98.5 24.5t-24.5 98.5v524h213v195h-213v317h-291v-317h-176v-195z" />
<glyph unicode="u" horiz-adv-x="1214" d="M111 408q0 -92 16 -179q18 -80 61 -139q43 -55 119 -86q74 -31 191 -31q88 0 180 41q86 39 143 133h6v-147h277v1059h-291v-555q0 -158 -53 -234q-52 -69 -169 -69h-3q-106 0 -146 65q-41 63 -41 195v598h-290v-651z" />
<glyph unicode="v" horiz-adv-x="1064" d="M10 1059l363 -1059h323l359 1059h-289l-223 -723h-4l-224 723h-305z" />
<glyph unicode="w" horiz-adv-x="1667" d="M12 1059l336 -1059h301l180 711h5l188 -711h299l334 1059h-299l-195 -717h-4l-180 717h-283l-176 -719h-4l-195 719h-307z" />
<glyph unicode="x" horiz-adv-x="1099" d="M0 0h326l221 334l221 -334h332l-391 563l348 496h-322l-184 -277l-186 277h-332l348 -502z" />
<glyph unicode="y" horiz-adv-x="1062" d="M-10 1059l370 -993q12 -31 13 -66q0 -49 -29 -86q-25 -39 -84 -45q-10 -1 -22 -1q-26 0 -64 3q-14 2 -43 5t-41 3v-239q57 -4 90 -9q14 0 43 -1t45 -1q150 0 234 56q86 57 131 184l442 1190h-301l-231 -725h-4l-240 725h-309z" />
<glyph unicode="z" horiz-adv-x="1062" d="M45 0h973v219h-590l551 621v219h-893v-219h510l-551 -621v-219z" />
<glyph unicode="{" horiz-adv-x="681" d="M-16 473q27 0 55 -10q33 -6 61 -29q29 -18 49.5 -51t20.5 -80v-397q0 -70 27 -123q31 -53 65 -86q43 -37 82 -49q43 -18 78 -19h260v230h-111q-37 0 -59 14q-25 20 -33 37q-8 14 -16 47q0 10 -1 26.5t-1 22.5v328q0 63 -23 108q-27 43 -57 66q-31 27 -66 37 q-29 10 -57 14v6q27 4 57 13q35 10 66 36q31 23 57 70q23 51 23 123v311q0 8 1 24.5t1 26.5q8 33 16 48q8 16 33 36q23 14 59 15h111v229h-260q-35 0 -78 -18q-39 -12 -82 -49q-35 -33 -65 -87q-27 -53 -27 -122v-385q0 -53 -20 -86q-23 -41 -50 -58q-20 -18 -61 -33 q-45 -8 -55 -8v-178z" />
<glyph unicode="|" horiz-adv-x="456" d="M119 -436h219v2046h-219v-2046z" />
<glyph unicode="}" horiz-adv-x="681" d="M0 -141v-230h260q35 0 80 19q33 12 82 49q35 35 63 86q27 53 27 123v397q0 47 20.5 80t49.5 51q29 23 61 29q29 10 57 10v178q-12 0 -57 8q-41 14 -61 33q-27 16 -50 58q-20 33 -20 86v385q0 70 -27 122q-29 51 -63 87q-49 37 -82 49q-45 18 -80 18h-260v-229h111 q41 0 57 -15q25 -14 35 -36q14 -20 14 -48q4 -18 4 -51v-311q0 -74 25 -123q23 -45 53 -70q33 -29 68 -36q31 -8 57 -13v-6q-29 -4 -57 -14q-35 -8 -68 -37q-31 -25 -53 -66q-25 -43 -25 -108v-328q0 -31 -4 -49q0 -27 -14 -47q-10 -23 -35 -37q-16 -14 -57 -14h-111z" />
<glyph unicode="~" horiz-adv-x="1228" d="M137 520l82 -190q4 10 13.5 26.5t13.5 26.5q12 18 37 47q25 23 49 33q27 14 59 14q76 0 129 -22q43 -14 107 -49q59 -31 102 -50q49 -18 107 -18q39 0 86 14q43 23 67 41q33 27 55 58q34 40 48 63l-82 191l-37 -54q-6 -8 -39 -47q-23 -20 -49 -35q-25 -12 -56 -12 q-41 0 -96 25q-74 33 -112 49q-51 25 -117 45q-55 20 -111 20q-57 0 -90 -16q-33 -10 -74 -39q-33 -27 -53 -55q-33 -49 -39 -66z" />
<glyph unicode="&#xa1;" horiz-adv-x="569" d="M125 772h321v315h-321v-315zM133 18v-391h303v391l-78 631h-145z" />
<glyph unicode="&#xa2;" d="M43 512q0 -104 35 -205q33 -90 98 -168q70 -74 156 -114q85 -46 200 -52v-206h121v206q100 10 174 41q84 35 144 88q61 57 98 136q37 76 47 178h-285q0 -41 -14 -76q-16 -41 -39 -70q-18 -27 -55 -53q-39 -23 -70 -27v678q68 -6 119 -57q49 -55 55 -127h285 q-2 84 -43 168q-45 76 -106 127q-68 53 -144 80q-86 29 -166 28v175h-121v-175q-115 -8 -208 -57q-92 -45 -156 -125q-59 -72 -94 -176q-31 -102 -31 -217zM334 541q0 45 10 106q8 45 33 94q23 43 61 78q37 31 94 47v-676q-57 18 -94 56q-39 33 -61 82q-25 55 -33 102 q-10 61 -10 111z" />
<glyph unicode="&#xa3;" d="M43 633h203q14 -31 28 -68q10 -41 11 -69q0 -57 -21 -107q-23 -53 -51 -92q-33 -43 -74 -80q-43 -32 -86 -61l127 -189q51 39 119 62q72 14 117 14q68 0 112 -12q20 -6 90 -29q43 -16 95 -25q57 -10 129 -10q76 0 162 29q82 27 157 100l-123 207q-55 -57 -96 -74 q-41 -14 -84 -14q-39 0 -80 6l-80 19q-16 4 -80 14q-39 8 -81 8q-33 0 -60 -8q-35 -10 -80 -39l-4 4q63 49 119 121q49 70 49 166q0 45 -4 65q0 20 -12 62h215v174h-273q-33 59 -49 94q-16 43 -24 70q-2 10 -8 51q-2 14 -3 47q0 86 56 137q51 51 145 51q80 0 121 -32 q47 -31 66 -74q23 -39 28 -90q2 -14 8 -76h277q0 250 -131 381t-367 131q-131 0 -227 -33q-102 -35 -164 -88q-63 -57 -100 -131q-33 -78 -33 -155q0 -90 31 -168q29 -72 61 -115h-131v-174z" />
<glyph unicode="&#xa4;" d="M41 305l115 -115l114 119q49 -47 131 -76q78 -25 170 -24q90 0 164 27q78 29 129 75l117 -118l113 112l-113 115q47 61 72 135q23 80 22 164q0 82 -22 166q-27 80 -70 127l115 112l-125 125l-119 -116q-47 39 -123 67q-78 25 -158 25q-84 0 -167 -25q-80 -29 -132 -70 l-116 115l-117 -117l117 -118q-51 -51 -76 -129q-23 -84 -23 -166q1 -178 99 -291zM313 715q0 55 17 108q14 49 49 95q39 41 82 63q49 25 112 25q61 0 109 -25q45 -25 78 -63q29 -41 47 -95q14 -57 14 -104q0 -43 -14 -109q-23 -59 -47 -92q-31 -41 -78 -65 q-47 -25 -111 -25q-61 0 -112 23q-49 27 -80 65q-33 35 -49 90q-16 59 -17 109z" />
<glyph unicode="&#xa5;" d="M-16 1462l313 -637h-195v-194h293l29 -60v-94h-322v-194h322v-283h311v283h324v194h-324v94l31 60h293v194h-195l318 637h-332l-264 -637l-271 637h-331z" />
<glyph unicode="&#xa6;" horiz-adv-x="456" d="M119 -180h219v510h-219v-510zM119 842h219v512h-219v-512z" />
<glyph unicode="&#xa7;" d="M20 637q0 -100 54 -172q53 -74 133 -125q74 -49 172 -94q88 -35 170 -78q80 -41 129 -82q53 -43 49 -102q0 -66 -43 -103q-49 -33 -109 -33q-92 0 -145 45.5t-55 131.5h-254q0 -100 35 -177q33 -78 98 -122q61 -49 145 -74q86 -23 183 -23q86 0 155 23q74 18 140 63 q63 43 102 109q39 59 39 149q0 74 -26.5 133.5t-86.5 106.5q96 33 156 115q57 78 57 184q0 96 -49 163.5t-127 123.5q-82 53 -166 90q-129 57 -166 78q-76 37 -129 82q-49 39 -53 98q0 63 51 96q51 35 105 35q80 0 129 -49q45 -55 45 -127h254q0 92 -33 168q-39 78 -94 125 q-51 49 -135 75q-78 27 -170 27q-76 0 -154 -22q-76 -20 -139 -68q-59 -47 -99 -113q-37 -66 -36 -151q0 -63 22 -113q23 -47 66 -94q-104 -37 -162 -112.5t-58 -186.5zM274 662q0 25 9 47q12 29 20 41q14 20 32.5 32.5t43.5 16.5q14 4 31 -6q8 -7 24 -15l338 -190 q43 -25 64 -51q29 -29 28 -78q0 -18 -8 -37q-6 -18 -18 -37q-14 -18 -30.5 -28.5t-37 -10.5t-35.5 6q-6 0 -26 8l-369 201q-39 20 -49 45q-16 25 -17 56z" />
<glyph unicode="&#xa8;" horiz-adv-x="530" d="M-82 1223h275v239h-275v-239zM338 1223h276v239h-276v-239z" />
<glyph unicode="&#xa9;" horiz-adv-x="1638" d="M33 731q0 -178 65 -315q59 -135 172 -242q106 -100 250 -154q147 -53 299 -53t299 53q143 53 250 154q113 106 172 242q66 137 66 315q0 180 -66 318q-59 135 -172 241q-109 100 -250 152q-143 55 -298.5 55t-299.5 -55q-141 -51 -250 -152q-113 -106 -172 -241 q-65 -138 -65 -318zM242 731q0 133 45 242q45 111 123 190q76 78 184 125q102 45 225 45q121 0 225 -45q109 -47 183 -125q76 -78 125 -190q45 -117 45 -242t-45 -242q-49 -113 -125 -190q-74 -78 -183 -125q-104 -45 -225 -45q-123 0 -225 45q-109 47 -184 125 q-78 80 -123 190q-45 109 -45 242zM408 735q0 -98 30 -178q35 -86 90 -145q61 -63 140 -97q82 -35 180 -34q72 0 131 22q55 16 111 62q45 37 86 102q35 67 45 137h-166q-8 -74 -66 -117q-55 -43 -141 -43q-51 0 -100 23q-47 25 -76 65q-33 37 -49 95q-18 53 -19 112 q0 129 62 211q61 80 178 80q78 0 137 -41q57 -39 74 -112h159q-10 80 -42.5 137t-81.5 100q-51 39 -111 60q-61 20 -135 20q-98 0 -185 -35q-78 -33 -135 -96q-57 -61 -86 -145q-31 -82 -30 -183z" />
<glyph unicode="&#xaa;" horiz-adv-x="704" d="M20 973q0 -109 66 -158q70 -47 164 -47q57 0 115 18q57 14 106 64l6 -31q2 -6 5 -17t3 -16h207q-25 45 -24 154v340q0 61 -29 92q-23 33 -70 58q-47 18 -100 24q-49 8 -109 8q-53 0 -110 -10q-51 -8 -96 -35q-45 -25 -72 -67q-33 -45 -41 -111h209q4 49 35 68 q29 23 65 22q53 0 88 -14q35 -12 35 -66q0 -25 -18 -37q-14 -14 -45 -20q-12 -4 -70 -12q-25 0 -86 -9q-29 -4 -86 -16q-43 -10 -74 -33q-29 -16 -53 -57q-20 -33 -21 -92zM229 977q0 39 31 55q39 18 74 27q39 8 72 10q45 7 65 27v-41q0 -14 -4 -51q-4 -29 -21 -50 q-14 -25 -45 -36q-25 -16 -79 -17q-33 0 -60 17q-33 12 -33 59z" />
<glyph unicode="&#xab;" horiz-adv-x="909" d="M86 420l322 -256v246l-185 147l185 145v246l-322 -252v-276zM502 420l321 -256v246l-184 147l184 145v246l-321 -252v-276z" />
<glyph unicode="&#xac;" horiz-adv-x="1228" d="M98 612h813v-409h219v628h-1032v-219z" />
<glyph unicode="&#xad;" horiz-adv-x="833" d="M109 434h616v250h-616v-250z" />
<glyph unicode="&#xae;" horiz-adv-x="1638" d="M33 733q0 -180 65 -317q59 -135 172 -242q106 -100 250 -154q147 -53 299 -53t299 53q143 53 250 154q113 106 172 242q66 137 66 317q0 178 -66 316q-59 135 -172 241q-109 100 -250 152q-143 55 -298.5 55t-299.5 -55q-141 -51 -250 -152q-113 -106 -172 -241 q-65 -138 -65 -316zM242 733q0 133 45 242q47 109 123 188q76 78 184 125q102 45 225 45q121 0 225 -45q109 -47 182.5 -125t125.5 -188q45 -117 45 -242t-45 -241q-49 -111 -125 -193q-74 -78 -183 -125q-104 -45 -225 -45q-123 0 -225 45q-109 47 -184 125 q-78 84 -123 192.5t-45 241.5zM514 305h170v367h107l208 -367h179l-230 375q49 4 88 18q45 18 72 41q33 29 47 68q18 43 19 102q0 139 -89 197q-84 57 -247 57h-324v-858zM684 805v225h143q16 0 62 -4q20 -2 57 -14q27 -14 41 -33q16 -23 17 -55q0 -76 -48 -99 q-43 -20 -120 -20h-152z" />
<glyph unicode="&#xaf;" horiz-adv-x="530" d="M-115 1262h762v153h-762v-153z" />
<glyph unicode="&#xb0;" horiz-adv-x="819" d="M106 1159.5q0 -63.5 25 -119.5q20 -53 63.5 -96t96.5 -63q55 -25 118.5 -25t118.5 25q53 20 96.5 63t63.5 96q25 55 25 119t-25 119q-20 53 -63 96t-97 64q-55 25 -118.5 24.5t-118.5 -24.5q-53 -20 -96 -63.5t-64 -96.5q-25 -55 -25 -118.5zM240 1159q0 39 14 70t37 57 q23 23 55 39q29 14 63.5 14t63.5 -14q33 -16 55 -39q23 -27 37.5 -57.5t14.5 -69.5t-14.5 -69.5t-37.5 -57.5q-23 -23 -55 -39q-29 -14 -63.5 -14t-63.5 14q-33 16 -55 39q-23 27 -37 57.5t-14 69.5z" />
<glyph unicode="&#xb1;" horiz-adv-x="1228" d="M98 0h1035v219h-1035v-219zM98 549h408v-268h219v268h408v219h-408v268h-219v-268h-408v-219z" />
<glyph unicode="&#xb2;" horiz-adv-x="802" d="M55 559h684v164h-428q49 68 127 113q125 78 144 90q66 43 118 102q47 63 48 158q0 68 -27 121q-27 55 -70 86q-45 37 -100 53q-61 16 -123 16q-188 0 -281 -98q-92 -102 -90 -258h209q-2 25 4 65q10 37 25 62q18 29 47 47q27 18 72 18q59 0 90 -36q35 -35 35 -91 q0 -39 -19 -69q-20 -31 -49 -55q-31 -25 -65 -46q-10 -8 -32 -20t-32 -20q-39 -25 -113 -74q-55 -43 -90 -84q-37 -41 -61 -103q-23 -63 -23 -141z" />
<glyph unicode="&#xb3;" horiz-adv-x="802" d="M45 868q-4 -162 94 -243q100 -84 264 -84q70 0 138 18q66 20 110 55q51 43 78 95q29 57 29 129q0 74 -45 125q-43 51 -121 67v4q70 16 100 66q35 47 35 110q0 61 -27 111q-31 47 -73 80q-55 35 -107 45q-49 16 -119 16q-152 0 -241 -84q-88 -84 -90 -227h196 q-2 59 35 104q37 43 102 43q47 0 89 -28q39 -27 38 -80q0 -37 -18 -55q-23 -23 -49 -29q-23 -8 -66 -12h-61v-144q47 0 72 -2q37 -2 67 -12q31 -8 53 -35q20 -23 21 -67q0 -59 -45 -93q-43 -37 -105 -36q-76 0 -116 49q-39 51 -41 114h-197z" />
<glyph unicode="&#xb4;" horiz-adv-x="530" d="M111 1190h202l316 291h-322z" />
<glyph unicode="&#xb6;" horiz-adv-x="1269" d="M4 1090q0 -166 115 -263q119 -96 334 -96v-1069h209v1636h225v-1636h209v1800h-600q-106 0 -197 -18q-92 -18 -156 -62q-66 -43 -102 -114q-37 -72 -37 -178z" />
<glyph unicode="&#xb7;" horiz-adv-x="569" d="M113 588q0 -37 14 -68q16 -33 37 -53q25 -25 57 -37q29 -14 68 -14q37 0 65 14q35 16 54 39q23 25 36 55q14 29 15 64q0 39 -15 67q-14 35 -38 58q-20 20 -54 37q-31 12 -65 12q-68 0 -123 -49q-51 -55 -51 -125z" />
<glyph unicode="&#xb8;" horiz-adv-x="530" d="M25 -399q37 -12 53 -19q12 -4 53 -14q10 -2 31.5 -5t32.5 -5q10 0 37.5 -1t46.5 -1q53 0 88 10q43 6 75 33q29 16 56 61q20 41 20 100q0 37 -16 64q-14 29 -43 45q-27 18 -62 27q-27 8 -67 8q-43 0 -70 -10h-4l80 110h-100l-121 -172l43 -49q35 14 82 14q37 0 59 -14 q23 -12 23 -51q0 -37 -23 -53.5t-59 -16.5q-49 0 -97 10q-46 13 -75 27z" />
<glyph unicode="&#xb9;" horiz-adv-x="802" d="M158 1120h225v-561h209v885h-172q-6 -47 -31 -84q-20 -31 -57 -53q-35 -16 -82 -27q-43 -10 -92 -6v-154z" />
<glyph unicode="&#xba;" horiz-adv-x="751" d="M25 1114q0 -160 94 -254q98 -92 256 -92q162 0 256 92q96 92 96 254t-96 254q-94 94 -256 94q-160 0 -256 -94q-94 -94 -94 -254zM244 1114q0 37 6 70q10 39 24 61q14 29 41 45q25 18 60 18.5t59 -18.5q29 -16 43 -45q16 -27 23 -61q8 -31 8 -70q0 -37 -8 -67 q-6 -29 -23 -64q-18 -29 -43 -45q-27 -16 -59.5 -16t-59.5 16q-25 18 -41 45q-16 33 -24 64q-6 34 -6 67z" />
<glyph unicode="&#xbb;" horiz-adv-x="909" d="M86 164l322 256v276l-322 252v-246l184 -145l-184 -147v-246zM502 164l321 256v276l-321 252v-246l184 -145l-184 -147v-246z" />
<glyph unicode="&#xbc;" horiz-adv-x="1826" d="M49 1120h225v-561h209v885h-172q-6 -45 -28 -84q-27 -33 -62 -53q-31 -16 -78 -27q-45 -8 -94 -6v-154zM311 -43h178l844 1522h-174zM1018 182h393v-182h197v182h116v164h-116v514h-205l-385 -487v-191zM1174 346l233 295h4v-295h-237z" />
<glyph unicode="&#xbd;" horiz-adv-x="1820" d="M49 1120h225v-561h209v885h-172q-6 -45 -28 -84q-27 -33 -62 -53q-31 -16 -78 -27q-45 -8 -94 -6v-154zM311 -43h178l844 1522h-174zM1040 0h684v164h-428q49 66 127 115q80 45 144 88q76 49 116 104q49 55 50 156q0 70 -25 118q-27 55 -70 89q-51 37 -102 51 q-57 18 -123 18q-188 0 -280.5 -100t-90.5 -256h209q-4 33 6 63q6 35 25 64q14 27 45 47q29 18 72 18q55 0 92 -37q33 -39 33 -90q0 -41 -21 -69q-18 -31 -49 -56q-10 -10 -61 -45q-43 -25 -66 -41q-78 -49 -110 -73q-43 -29 -93 -82q-43 -53 -61 -107q-23 -57 -23 -139z " />
<glyph unicode="&#xbe;" horiz-adv-x="1820" d="M80 868q-4 -162 94 -243q100 -84 264 -84q74 0 135 18q63 18 115 55q51 43 76 95q29 57 29 128.5t-43 125.5q-45 53 -123 67v4q63 14 102 66q33 53 33 110q0 68 -29 111q-25 47 -74 80q-45 33 -102 45q-55 16 -121 16q-152 0 -239 -84q-90 -84 -93 -227h197q-2 59 35 104 q37 43 102 43q47 0 88 -28q39 -27 39 -80q0 -37 -20 -55q-20 -23 -49 -29q-18 -8 -62 -12h-63v-144q47 0 71 -2q35 -2 70 -12q29 -8 51 -35q20 -23 21 -67q0 -59 -43 -93q-45 -37 -107 -36q-78 0 -115 49q-39 49 -43 114h-196zM489 -43h179l843 1522h-174zM1059 182h393 v-182h197v182h116v164h-116v514h-205l-385 -487v-191zM1214 346l234 295h4v-295h-238z" />
<glyph unicode="&#xbf;" d="M66 -4q0 -59 24 -127q29 -70 86 -129q55 -55 158 -100q104 -39 241 -39q115 0 201 39q94 39 154 104q63 63 102 160q33 91 37 200h-301q0 -55 -12 -100q-12 -51 -39 -86q-25 -33 -64 -57q-45 -20 -92 -21q-84 0 -127 45q-47 45 -47 138q-2 49 19 92q27 39 57 67 q23 20 76 62q41 31 77 71q41 47 64 103q29 53 35 147v92h-277v-77q-10 -63 -39 -103q-29 -37 -71 -74q-41 -31 -88 -63q-43 -29 -84 -76q-37 -43 -66 -108q-25 -66 -24 -160zM422 772h321v315h-321v-315z" />
<glyph unicode="&#xc0;" horiz-adv-x="1402" d="M-12 0h323l115 326h547l110 -326h334l-547 1462h-329zM338 1884l315 -291h203l-197 291h-321zM510 565l190 537h5l184 -537h-379z" />
<glyph unicode="&#xc1;" horiz-adv-x="1402" d="M-12 0h323l115 326h547l110 -326h334l-547 1462h-329zM510 565l190 537h5l184 -537h-379zM547 1593h203l315 291h-322z" />
<glyph unicode="&#xc2;" horiz-adv-x="1402" d="M-12 0h323l115 326h547l110 -326h334l-547 1462h-329zM342 1593h221l131 166l127 -166h240l-225 291h-267zM510 565l190 537h5l184 -537h-379z" />
<glyph unicode="&#xc3;" horiz-adv-x="1402" d="M-12 0h323l115 326h547l110 -326h334l-547 1462h-329zM326 1616h125q8 37 28 63q16 23 58 23q33 0 69 -10q33 -8 74 -25l80 -25q45 -10 88 -10q57 0 102 23q37 25 66 59q23 33 37 76q14 35 24 76h-141q2 -27 -18 -51q-25 -20 -68 -21q-37 0 -68 12q-31 8 -67 25 q-23 8 -64 24q-37 10 -67 11q-63 0 -113 -23q-43 -20 -74 -57q-33 -43 -45 -82q-20 -57 -26 -88zM510 565l190 537h5l184 -537h-379z" />
<glyph unicode="&#xc4;" horiz-adv-x="1402" d="M-12 0h323l115 326h547l110 -326h334l-547 1462h-329zM352 1626h277v240h-277v-240zM510 565l190 537h5l184 -537h-379zM774 1626h277v240h-277v-240z" />
<glyph unicode="&#xc5;" horiz-adv-x="1402" d="M-12 0h323l115 326h547l110 -326h334l-547 1462h-329zM451 1747q0 -55 20 -96q16 -45 53 -82q29 -29 78 -53q49 -18 98 -19q53 0 99 19q43 20 80 53q37 41 55 82q18 43 18 96q0 51 -18 98q-18 39 -55 80q-37 33 -80 53q-45 18 -99 19q-49 0 -98 -19q-49 -25 -78 -53 q-35 -35 -53 -80q-20 -43 -20 -98zM510 565l190 537h5l184 -537h-379zM571 1747q0 59 35 100q35 43 94 43q61 0 95 -43q37 -39 36 -100q0 -59 -36 -100q-33 -43 -94.5 -43t-94.5 43q-35 41 -35 100z" />
<glyph unicode="&#xc6;" horiz-adv-x="2009" d="M-20 0h339l148 326h459v-326h1007v270h-696v359h639v250h-639v313h680v270h-1241zM573 565l283 627h70v-627h-353z" />
<glyph unicode="&#xc7;" horiz-adv-x="1517" d="M78 725q0 -143 41 -279q43 -127 123 -229q86 -104 198 -164q111 -63 267 -80l-99 -141l43 -49q35 14 82 14q37 0 58 -14q25 -12 24 -51q0 -37 -22.5 -53.5t-59.5 -16.5q-49 0 -96 10q-47 12 -76 27l-43 -98l55 -19q20 -8 54 -14q10 -2 31.5 -5t29.5 -5q10 0 38 -1t46 -1 q51 0 88 10q37 6 78 33q29 20 53 61q20 41 21 100q0 37 -17 64q-14 29 -43 45q-25 16 -59 27q-33 8 -70 8q-43 0 -69 -10h-4l53 73q135 4 246 45q115 41 192 119q80 72 135 184q51 109 64 248h-312q-18 -145 -100 -237q-86 -90 -231 -90q-109 0 -185 43q-76 41 -123 110 q-51 78 -67 156q-23 82 -23 180q0 104 23 186q16 80 67 162q49 72 123 111q76 43 185 43q59 0 112 -19q55 -20 99 -55q41 -33 71 -80q29 -49 37 -102h311q-16 129 -69 225q-55 100 -141 164q-86 70 -193 102q-109 35 -227 35q-166 0 -301 -59q-133 -57 -228 -164 q-92 -104 -141 -246q-49 -139 -49 -303z" />
<glyph unicode="&#xc8;" horiz-adv-x="1327" d="M141 0h1110v270h-788v359h708v250h-708v313h772v270h-1094v-1462zM301 1884l315 -291h203l-196 291h-322z" />
<glyph unicode="&#xc9;" horiz-adv-x="1327" d="M141 0h1110v270h-788v359h708v250h-708v313h772v270h-1094v-1462zM510 1593h203l315 291h-321z" />
<glyph unicode="&#xca;" horiz-adv-x="1327" d="M141 0h1110v270h-788v359h708v250h-708v313h772v270h-1094v-1462zM305 1593h221l131 166l127 -166h240l-225 291h-267z" />
<glyph unicode="&#xcb;" horiz-adv-x="1327" d="M141 0h1110v270h-788v359h708v250h-708v313h772v270h-1094v-1462zM315 1626h277v240h-277v-240zM737 1626h277v240h-277v-240z" />
<glyph unicode="&#xcc;" horiz-adv-x="604" d="M-59 1884l313 -291h203l-197 291h-319zM141 0h322v1462h-322v-1462z" />
<glyph unicode="&#xcd;" horiz-adv-x="604" d="M141 0h322v1462h-322v-1462zM147 1593h203l316 291h-322z" />
<glyph unicode="&#xce;" horiz-adv-x="604" d="M-55 1593h219l131 166l127 -166h240l-226 291h-266zM141 0h322v1462h-322v-1462z" />
<glyph unicode="&#xcf;" horiz-adv-x="604" d="M-45 1626h274v240h-274v-240zM141 0h322v1462h-322v-1462zM375 1626h276v240h-276v-240z" />
<glyph unicode="&#xd0;" horiz-adv-x="1517" d="M6 637h135v-637h631q170 0 293 57q127 57 205 154q84 96 125 233q41 139 41 295q0 184 -52 318q-51 139 -139 225q-84 88 -209 135q-121 45 -264 45h-631v-588h-135v-237zM463 270v365h328v239h-328v318h229q113 0 201 -33q84 -39 129 -98.5t72 -151.5q20 -102 20 -200 q0 -123 -31 -205q-33 -90 -82 -135q-51 -53 -116 -76q-68 -23 -135 -23h-287z" />
<glyph unicode="&#xd1;" horiz-adv-x="1517" d="M141 0h301v979h4l609 -979h321v1462h-301v-981h-4l-610 981h-320v-1462zM383 1616h125q8 37 29 63q16 23 57 23q33 0 70 -10q33 -8 73 -25l80 -25q45 -10 88 -10q57 0 103 23q37 25 65 59q23 33 37 76q15 35 25 76h-142q2 -27 -18 -51q-25 -20 -68 -21q-37 0 -67 12 q-31 8 -68 25q-23 8 -63 24q-37 10 -68 11q-63 0 -113 -23q-43 -20 -73 -57q-33 -43 -45 -82q-20 -57 -27 -88z" />
<glyph unicode="&#xd2;" horiz-adv-x="1593" d="M78 725q0 -158 49 -299q49 -139 141 -240q90 -100 228 -161q137 -57 301 -58q166 0 303 58q135 63 225 161q90 100 141 240q49 141 50 299q0 164 -50 303q-49 141 -141 245.5t-225 164.5q-135 59 -303 59q-166 0 -301 -59q-133 -57 -228 -164q-92 -104 -141 -246 q-49 -139 -49 -303zM399 725q0 104 23 186q16 80 67 162q49 72 123 111q76 43 184.5 43t184.5 -43q74 -39 123 -111q51 -82 67 -162q23 -82 23 -186q0 -98 -23 -180q-16 -78 -67 -156q-47 -70 -123 -110q-76 -43 -184.5 -43t-184.5 43q-76 41 -123 110q-51 78 -67 156 q-23 82 -23 180zM434 1884l316 -291h202l-196 291h-322z" />
<glyph unicode="&#xd3;" horiz-adv-x="1593" d="M78 725q0 -158 49 -299q49 -139 141 -240q90 -100 228 -161q137 -57 301 -58q166 0 303 58q135 63 225 161q90 100 141 240q49 141 50 299q0 164 -50 303q-49 141 -141 245.5t-225 164.5q-135 59 -303 59q-166 0 -301 -59q-133 -57 -228 -164q-92 -104 -141 -246 q-49 -139 -49 -303zM399 725q0 104 23 186q16 80 67 162q49 72 123 111q76 43 184.5 43t184.5 -43q74 -39 123 -111q51 -82 67 -162q23 -82 23 -186q0 -98 -23 -180q-16 -78 -67 -156q-47 -70 -123 -110q-76 -43 -184.5 -43t-184.5 43q-76 41 -123 110q-51 78 -67 156 q-23 82 -23 180zM643 1593h203l315 291h-321z" />
<glyph unicode="&#xd4;" horiz-adv-x="1593" d="M78 725q0 -158 49 -299q49 -139 141 -240q90 -100 228 -161q137 -57 301 -58q166 0 303 58q135 63 225 161q90 100 141 240q49 141 50 299q0 164 -50 303q-49 141 -141 245.5t-225 164.5q-135 59 -303 59q-166 0 -301 -59q-133 -57 -228 -164q-92 -104 -141 -246 q-49 -139 -49 -303zM399 725q0 104 23 186q16 80 67 162q49 72 123 111q76 43 184.5 43t184.5 -43q74 -39 123 -111q51 -82 67 -162q23 -82 23 -186q0 -98 -23 -180q-16 -78 -67 -156q-47 -70 -123 -110q-76 -43 -184.5 -43t-184.5 43q-76 41 -123 110q-51 78 -67 156 q-23 82 -23 180zM438 1593h221l132 166l127 -166h239l-225 291h-266z" />
<glyph unicode="&#xd5;" horiz-adv-x="1593" d="M78 725q0 -158 49 -299q49 -139 141 -240q90 -100 228 -161q137 -57 301 -58q166 0 303 58q135 63 225 161q90 100 141 240q49 141 50 299q0 164 -50 303q-49 141 -141 245.5t-225 164.5q-135 59 -303 59q-166 0 -301 -59q-133 -57 -228 -164q-92 -104 -141 -246 q-49 -139 -49 -303zM399 725q0 104 23 186q16 80 67 162q49 72 123 111q76 43 184.5 43t184.5 -43q74 -39 123 -111q51 -82 67 -162q23 -82 23 -186q0 -98 -23 -180q-16 -78 -67 -156q-47 -70 -123 -110q-76 -43 -184.5 -43t-184.5 43q-76 41 -123 110q-51 78 -67 156 q-23 82 -23 180zM422 1616h125q8 33 26 63q18 23 60 23q33 0 69 -10q35 -8 74 -25l80 -25q45 -10 88 -10q61 0 100 22.5t66 59.5q23 27 41 76q17 53 23 76h-142q2 -27 -18 -51q-25 -20 -68 -21q-33 0 -69 12q-33 10 -66 25q-12 4 -33.5 12t-32.5 12q-35 10 -65 11 q-63 0 -113 -23q-43 -20 -73 -57q-33 -43 -45 -82q-20 -57 -27 -88z" />
<glyph unicode="&#xd6;" horiz-adv-x="1593" d="M78 725q0 -158 49 -299q49 -139 141 -240q90 -100 228 -161q137 -57 301 -58q166 0 303 58q135 63 225 161q90 100 141 240q49 141 50 299q0 164 -50 303q-49 141 -141 245.5t-225 164.5q-135 59 -303 59q-166 0 -301 -59q-133 -57 -228 -164q-92 -104 -141 -246 q-49 -139 -49 -303zM399 725q0 104 23 186q16 80 67 162q49 72 123 111q76 43 184.5 43t184.5 -43q74 -39 123 -111q51 -82 67 -162q23 -82 23 -186q0 -98 -23 -180q-16 -78 -67 -156q-47 -70 -123 -110q-76 -43 -184.5 -43t-184.5 43q-76 41 -123 110q-51 78 -67 156 q-23 82 -23 180zM449 1626h276v240h-276v-240zM870 1626h277v240h-277v-240z" />
<glyph unicode="&#xd7;" horiz-adv-x="1228" d="M131 190l156 -155l329 330l328 -330l156 155l-330 328l330 328l-156 155l-328 -327l-325 327l-156 -155l326 -328z" />
<glyph unicode="&#xd8;" horiz-adv-x="1593" d="M70 20l100 -86l170 187q90 -74 201 -113q117 -41 256 -41q166 0 303 58q135 63 225 161q90 100 141 240q49 141 50 299q0 150 -41 283q-43 129 -123 233l172 191l-103 90l-164 -183q-90 78 -204 117q-117 41 -256 41q-166 0 -301 -59q-133 -57 -228 -164 q-92 -104 -141 -246q-49 -139 -49 -303q0 -143 41 -276q39 -128 127 -234zM399 725q0 104 23 186q16 80 67 162q49 72 123 111q76 43 185 43q86 0 153 -29q64 -27 113 -76l-606 -673q-31 63 -43 133q-14 70 -15 143zM535 336l604 668q31 -70 41 -136q14 -63 14 -143 q0 -98 -23 -180q-16 -78 -67 -156q-47 -70 -123 -110q-76 -43 -184 -43q-90 0 -150 26q-65 27 -112 74z" />
<glyph unicode="&#xd9;" horiz-adv-x="1517" d="M135 553q0 -299 164 -442q158 -143 459 -144q291 0 459 144q165 147 165 442v909h-321v-909q0 -160 -66 -242q-66 -76 -237 -75q-96 0 -156 26q-59 31 -92 74q-35 43 -43 100q-10 66 -10 117v909h-322v-909zM395 1884l316 -291h202l-196 291h-322z" />
<glyph unicode="&#xda;" horiz-adv-x="1517" d="M135 553q0 -299 164 -442q158 -143 459 -144q291 0 459 144q165 147 165 442v909h-321v-909q0 -160 -66 -242q-66 -76 -237 -75q-96 0 -156 26q-59 31 -92 74q-35 43 -43 100q-10 66 -10 117v909h-322v-909zM604 1593h203l315 291h-321z" />
<glyph unicode="&#xdb;" horiz-adv-x="1517" d="M135 553q0 -299 164 -442q158 -143 459 -144q291 0 459 144q165 147 165 442v909h-321v-909q0 -160 -66 -242q-66 -76 -237 -75q-96 0 -156 26q-59 31 -92 74q-35 43 -43 100q-10 66 -10 117v909h-322v-909zM399 1593h222l131 166l127 -166h239l-225 291h-266z" />
<glyph unicode="&#xdc;" horiz-adv-x="1517" d="M135 553q0 -299 164 -442q158 -143 459 -144q291 0 459 144q165 147 165 442v909h-321v-909q0 -160 -66 -242q-66 -76 -237 -75q-96 0 -156 26q-59 31 -92 74q-35 43 -43 100q-10 66 -10 117v909h-322v-909zM410 1626h276v240h-276v-240zM831 1626h277v240h-277v-240z " />
<glyph unicode="&#xdd;" horiz-adv-x="1366" d="M-16 1462l536 -893v-569h322v561l542 901h-358l-340 -577l-342 577h-360zM528 1593h203l316 291h-322z" />
<glyph unicode="&#xde;" horiz-adv-x="1366" d="M141 0h322v326h338q133 0 233 39q98 45 158 106q61 70 86 152q29 78 29 172q0 96 -29 174q-25 82 -86 149q-59 61 -158 107q-100 39 -233 39h-338v198h-322v-1462zM463 575v439h250q59 0 106 -8q49 -8 90 -31q41 -25 62 -68q25 -43 24.5 -112.5t-24.5 -112.5 q-20 -43 -62 -68q-41 -23 -90 -30q-47 -8 -106 -9h-250z" />
<glyph unicode="&#xdf;" horiz-adv-x="1251" d="M115 0h291v1057q0 90 47 147q47 53 135 53q14 0 55 -4q33 -2 66 -22q33 -18 53 -55q23 -35 22 -101q0 -47 -18 -82q-20 -37 -49 -57q-31 -25 -68 -33q-45 -10 -80 -10h-20q-4 0 -12.5 2t-12.5 2v-192q6 0 18.5 2t18.5 2h35q129 0 190 -70q59 -72 60 -180q0 -49 -19 -97 q-14 -41 -49 -79q-33 -33 -73 -54q-43 -18 -97 -18q-29 0 -43 2q-25 4 -41 8v-235q82 -12 168 -13q100 0 180 39q80 37 140 103q57 63 92 151q33 84 33 183q0 63 -17 124q-16 63 -51 111q-31 51 -82 82q-43 33 -117 49v4q90 29 138 107q53 78 53 178q0 102 -37 176 q-41 74 -102 121q-68 49 -150 74q-86 23 -176 22q-156 0 -248 -45q-94 -45 -147 -117q-51 -72 -70 -155q-16 -94 -16 -174v-1006z" />
<glyph unicode="&#xe0;" horiz-adv-x="1175" d="M66 289q0 -86 28 -142q23 -55 76 -98q47 -39 115 -57q63 -18 141 -19q94 0 192 29q90 27 164 100q4 -33 9 -53q4 -25 12 -49h295q-18 29 -29 98q-8 57 -8 138v550q0 94 -43 156q-45 57 -110.5 90t-149.5 45q-92 10 -162 10q-88 0 -174 -18q-82 -14 -158 -57 q-66 -37 -114 -109q-46 -66 -52 -170h291q10 86 57 123q49 37 136 37q25 0 73 -4q27 -6 58 -21q31 -20 41 -45q16 -23 16 -73q2 -43 -27 -70q-29 -23 -78 -35t-112 -18q-43 -4 -129 -17q-63 -8 -129 -28q-59 -14 -115 -52q-47 -31 -82 -92q-33 -59 -32 -149zM225 1481 l316 -291h202l-196 291h-322zM356 301q0 41 14.5 67.5t39.5 45.5q27 18 53 26q49 14 65 17q43 8 70 10t66 10q12 2 32.5 7t28.5 8q33 16 45 26v-108q0 -12 -4 -66q-6 -35 -29 -82q-23 -39 -69.5 -67.5t-132.5 -28.5q-35 0 -68 6q-27 4 -57 21q-27 18 -39 43q-14 27 -15 65z " />
<glyph unicode="&#xe1;" horiz-adv-x="1175" d="M66 289q0 -86 28 -142q23 -55 76 -98q47 -39 115 -57q63 -18 141 -19q94 0 192 29q90 27 164 100q4 -33 9 -53q4 -25 12 -49h295q-18 29 -29 98q-8 57 -8 138v550q0 94 -43 156q-45 57 -110.5 90t-149.5 45q-92 10 -162 10q-88 0 -174 -18q-82 -14 -158 -57 q-66 -37 -114 -109q-46 -66 -52 -170h291q10 86 57 123q49 37 136 37q25 0 73 -4q27 -6 58 -21q31 -20 41 -45q16 -23 16 -73q2 -43 -27 -70q-29 -23 -78 -35t-112 -18q-43 -4 -129 -17q-63 -8 -129 -28q-59 -14 -115 -52q-47 -31 -82 -92q-33 -59 -32 -149zM356 301 q0 41 14.5 67.5t39.5 45.5q27 18 53 26q49 14 65 17q43 8 70 10t66 10q12 2 32.5 7t28.5 8q33 16 45 26v-108q0 -12 -4 -66q-6 -35 -29 -82q-23 -39 -69.5 -67.5t-132.5 -28.5q-35 0 -68 6q-27 4 -57 21q-27 18 -39 43q-14 27 -15 65zM434 1190h203l315 291h-321z" />
<glyph unicode="&#xe2;" horiz-adv-x="1175" d="M66 289q0 -86 28 -142q23 -55 76 -98q47 -39 115 -57q63 -18 141 -19q94 0 192 29q90 27 164 100q4 -33 9 -53q4 -25 12 -49h295q-18 29 -29 98q-8 57 -8 138v550q0 94 -43 156q-45 57 -110.5 90t-149.5 45q-92 10 -162 10q-88 0 -174 -18q-82 -14 -158 -57 q-66 -37 -114 -109q-46 -66 -52 -170h291q10 86 57 123q49 37 136 37q25 0 73 -4q27 -6 58 -21q31 -20 41 -45q16 -23 16 -73q2 -43 -27 -70q-29 -23 -78 -35t-112 -18q-43 -4 -129 -17q-63 -8 -129 -28q-59 -14 -115 -52q-47 -31 -82 -92q-33 -59 -32 -149zM229 1190h222 l131 166l127 -166h239l-225 291h-266zM356 301q0 41 14.5 67.5t39.5 45.5q27 18 53 26q49 14 65 17q43 8 70 10t66 10q12 2 32.5 7t28.5 8q33 16 45 26v-108q0 -12 -4 -66q-6 -35 -29 -82q-23 -39 -69.5 -67.5t-132.5 -28.5q-35 0 -68 6q-27 4 -57 21q-27 18 -39 43 q-14 27 -15 65z" />
<glyph unicode="&#xe3;" horiz-adv-x="1175" d="M66 289q0 -86 28 -142q23 -55 76 -98q47 -39 115 -57q63 -18 141 -19q94 0 192 29q90 27 164 100q4 -33 9 -53q4 -25 12 -49h295q-18 29 -29 98q-8 57 -8 138v550q0 94 -43 156q-45 57 -110.5 90t-149.5 45q-92 10 -162 10q-88 0 -174 -18q-82 -14 -158 -57 q-66 -37 -114 -109q-46 -66 -52 -170h291q10 86 57 123q49 37 136 37q25 0 73 -4q27 -6 58 -21q31 -20 41 -45q16 -23 16 -73q2 -43 -27 -70q-29 -23 -78 -35t-112 -18q-43 -4 -129 -17q-63 -8 -129 -28q-59 -14 -115 -52q-47 -31 -82 -92q-33 -59 -32 -149zM213 1212h125 q8 35 27 62q18 25 59 24q33 0 70 -10q35 -10 73 -24q53 -16 80 -23q41 -12 88 -12q63 0 101 24q37 18 65 58q23 27 41 75q17 53 23 76h-142q4 -31 -18 -49q-20 -23 -68 -22q-29 0 -69 10q-57 23 -66 26q-51 18 -65 23q-31 12 -66 12q-63 0 -113 -22q-45 -20 -73 -60 q-31 -37 -45 -77q-23 -66 -27 -91zM356 301q0 41 14.5 67.5t39.5 45.5q27 18 53 26q49 14 65 17q43 8 70 10t66 10q12 2 32.5 7t28.5 8q33 16 45 26v-108q0 -12 -4 -66q-6 -35 -29 -82q-23 -39 -69.5 -67.5t-132.5 -28.5q-35 0 -68 6q-27 4 -57 21q-27 18 -39 43 q-14 27 -15 65z" />
<glyph unicode="&#xe4;" horiz-adv-x="1175" d="M66 289q0 -86 28 -142q23 -55 76 -98q47 -39 115 -57q63 -18 141 -19q94 0 192 29q90 27 164 100q4 -33 9 -53q4 -25 12 -49h295q-18 29 -29 98q-8 57 -8 138v550q0 94 -43 156q-45 57 -110.5 90t-149.5 45q-92 10 -162 10q-88 0 -174 -18q-82 -14 -158 -57 q-66 -37 -114 -109q-46 -66 -52 -170h291q10 86 57 123q49 37 136 37q25 0 73 -4q27 -6 58 -21q31 -20 41 -45q16 -23 16 -73q2 -43 -27 -70q-29 -23 -78 -35t-112 -18q-43 -4 -129 -17q-63 -8 -129 -28q-59 -14 -115 -52q-47 -31 -82 -92q-33 -59 -32 -149zM240 1223h276 v239h-276v-239zM356 301q0 41 14.5 67.5t39.5 45.5q27 18 53 26q49 14 65 17q43 8 70 10t66 10q12 2 32.5 7t28.5 8q33 16 45 26v-108q0 -12 -4 -66q-6 -35 -29 -82q-23 -39 -69.5 -67.5t-132.5 -28.5q-35 0 -68 6q-27 4 -57 21q-27 18 -39 43q-14 27 -15 65zM662 1223h276 v239h-276v-239z" />
<glyph unicode="&#xe5;" horiz-adv-x="1175" d="M66 289q0 -86 28 -142q23 -55 76 -98q47 -39 115 -57q63 -18 141 -19q94 0 192 29q90 27 164 100q4 -33 9 -53q4 -25 12 -49h295q-18 29 -29 98q-8 57 -8 138v550q0 94 -43 156q-45 57 -110.5 90t-149.5 45q-92 10 -162 10q-88 0 -174 -18q-82 -14 -158 -57 q-66 -37 -114 -109q-46 -66 -52 -170h291q10 86 57 123q49 37 136 37q25 0 73 -4q27 -6 58 -21q31 -20 41 -45q16 -23 16 -73q2 -43 -27 -70q-29 -23 -78 -35t-112 -18q-43 -4 -129 -17q-63 -8 -129 -28q-59 -14 -115 -52q-47 -31 -82 -92q-33 -59 -32 -149zM338 1343 q0 -49 18 -98q25 -49 54 -78q37 -37 82 -53q41 -20 96 -20t98 20q49 20 80 53q33 29 53 78q20 47 21 98q0 55 -21 99q-18 47 -53 78q-31 33 -80 53q-43 20 -98.5 20t-95.5 -20q-45 -16 -82 -53q-33 -31 -54 -78q-18 -46 -18 -99zM356 301q0 41 14.5 67.5t39.5 45.5 q27 18 53 26q49 14 65 17q43 8 70 10t66 10q12 2 32.5 7t28.5 8q33 16 45 26v-108q0 -12 -4 -66q-6 -35 -29 -82q-23 -39 -69.5 -67.5t-132.5 -28.5q-35 0 -68 6q-27 4 -57 21q-27 18 -39 43q-14 27 -15 65zM459 1343.5q0 57.5 35 102.5q35 41 94 41t96 -41 q35 -45 35 -102.5t-35 -102.5q-37 -41 -96.5 -41t-93.5 41q-35 45 -35 102.5z" />
<glyph unicode="&#xe6;" horiz-adv-x="1857" d="M78 287q0 -86 33 -148q39 -63 90 -98t127 -53q80 -14 145 -15q70 0 121 11q41 4 119 28q68 31 106 58q47 29 86 82q70 -98 174 -138q111 -41 221 -41q82 0 166 23q72 23 142 70q68 51 110 114q49 68 70 152h-283q-16 -78 -63 -123q-49 -43 -148 -43q-63 0 -108 27 q-47 29 -80 67q-33 39 -49 94q-17 58 -15 105h756q0 125 -26 237q-27 109 -84 201q-61 84 -152 139q-96 51 -225 51q-125 0 -211 -34q-80 -35 -144 -109q-31 43 -69 68q-37 29 -88 45q-45 14 -97 24q-49 6 -96 6q-94 0 -180 -18q-88 -18 -160 -61q-68 -41 -110 -111 q-47 -68 -50 -168h291q4 94 62 127q55 37 141 37q27 0 68 -4q25 -4 61 -21q31 -20 43 -43q16 -29 16 -67q0 -43 -20 -64q-23 -23 -63 -35q-47 -16 -113 -24q-68 -8 -160 -25q-57 -8 -129 -28q-59 -14 -115 -54q-49 -35 -79 -94q-31 -55 -31 -147zM369 303q0 53 24 80 q25 31 62 45q41 16 84 23q14 2 45.5 7t46.5 9q33 4 90 16q36 8 67 33v-131q0 -57 -22 -98q-18 -39 -57 -70q-31 -27 -78 -39q-41 -12 -82 -12q-33 0 -66 6q-31 6 -57 23q-29 16 -41 43q-16 25 -16 65zM1042 643q0 45 17 94q14 45 47 80q31 35 74 55t100 20.5t96 -20.5 q43 -20 74 -55q29 -35 43 -80q14 -43 14 -94h-465z" />
<glyph unicode="&#xe7;" horiz-adv-x="1175" d="M78 514q0 -113 33 -203q35 -98 94 -164q59 -70 147 -114q86 -45 189 -53l-103 -148l43 -49q35 14 82 14q37 0 60 -14q23 -12 22 -51q0 -37 -22.5 -53.5t-59.5 -16.5q-49 0 -96 10q-47 12 -76 27l-43 -98q37 -12 53 -19q12 -4 54 -14q10 -2 31.5 -5t31.5 -5q10 0 38 -1 t46 -1q53 0 88 10q43 6 76 33q29 16 55 61q20 41 21 100q0 37 -17 64q-14 29 -43 45q-27 18 -61 27q-27 8 -68 8q-43 0 -69 -10h-4l57 81q203 6 330 115q129 111 155 316h-280q-16 -102 -72 -156q-53 -59 -160 -60q-70 0 -114 31q-49 33 -74 78q-27 43 -41 109 q-12 59 -12 116q0 61 12 119q12 59 41 111q29 49 78 82q45 33 116 32q186 0 215 -182h285q-6 100 -49 178q-43 76 -113 123q-66 51 -155 76q-86 25 -181 24q-127 0 -229 -43q-94 -41 -170 -118q-72 -82 -104 -185q-37 -104 -37 -227z" />
<glyph unicode="&#xe8;" horiz-adv-x="1175" d="M59 528q0 -127 39 -225q39 -104 107 -176q70 -72 170 -115q106 -39 225 -39q182 0 307 82q127 84 189 273h-256q-16 -49 -78 -95q-66 -43 -152 -43q-125 0 -188 64q-66 66 -72 205h764q8 115 -20 235q-27 106 -95 201q-57 84 -163 141q-106 51 -236 51q-121 0 -219 -43 q-102 -43 -172 -118q-70 -74 -111 -176q-39 -98 -39 -222zM225 1481l316 -291h202l-196 291h-322zM350 643q4 35 15 70q8 33 36 73q35 37 74 58q49 25 117 24q109 0 158 -57q50 -55 73 -168h-473z" />
<glyph unicode="&#xe9;" horiz-adv-x="1175" d="M59 528q0 -127 39 -225q39 -104 107 -176q70 -72 170 -115q106 -39 225 -39q182 0 307 82q127 84 189 273h-256q-16 -49 -78 -95q-66 -43 -152 -43q-125 0 -188 64q-66 66 -72 205h764q8 115 -20 235q-27 106 -95 201q-57 84 -163 141q-106 51 -236 51q-121 0 -219 -43 q-102 -43 -172 -118q-70 -74 -111 -176q-39 -98 -39 -222zM350 643q4 35 15 70q8 33 36 73q35 37 74 58q49 25 117 24q109 0 158 -57q50 -55 73 -168h-473zM434 1190h203l315 291h-321z" />
<glyph unicode="&#xea;" horiz-adv-x="1175" d="M59 528q0 -127 39 -225q39 -104 107 -176q70 -72 170 -115q106 -39 225 -39q182 0 307 82q127 84 189 273h-256q-16 -49 -78 -95q-66 -43 -152 -43q-125 0 -188 64q-66 66 -72 205h764q8 115 -20 235q-27 106 -95 201q-57 84 -163 141q-106 51 -236 51q-121 0 -219 -43 q-102 -43 -172 -118q-70 -74 -111 -176q-39 -98 -39 -222zM229 1190h222l131 166l127 -166h239l-225 291h-266zM350 643q4 35 15 70q8 33 36 73q35 37 74 58q49 25 117 24q109 0 158 -57q50 -55 73 -168h-473z" />
<glyph unicode="&#xeb;" horiz-adv-x="1175" d="M59 528q0 -127 39 -225q39 -104 107 -176q70 -72 170 -115q106 -39 225 -39q182 0 307 82q127 84 189 273h-256q-16 -49 -78 -95q-66 -43 -152 -43q-125 0 -188 64q-66 66 -72 205h764q8 115 -20 235q-27 106 -95 201q-57 84 -163 141q-106 51 -236 51q-121 0 -219 -43 q-102 -43 -172 -118q-70 -74 -111 -176q-39 -98 -39 -222zM240 1223h276v239h-276v-239zM350 643q4 35 15 70q8 33 36 73q35 37 74 58q49 25 117 24q109 0 158 -57q50 -55 73 -168h-473zM662 1223h276v239h-276v-239z" />
<glyph unicode="&#xec;" horiz-adv-x="528" d="M-96 1481l313 -291h203l-197 291h-319zM119 0h291v1059h-291v-1059z" />
<glyph unicode="&#xed;" horiz-adv-x="528" d="M111 1190h202l316 291h-322zM119 0h291v1059h-291v-1059z" />
<glyph unicode="&#xee;" horiz-adv-x="528" d="M-92 1190h219l131 166l127 -166h240l-226 291h-266zM119 0h291v1059h-291v-1059z" />
<glyph unicode="&#xef;" horiz-adv-x="528" d="M-82 1223h275v239h-275v-239zM119 0h291v1059h-291v-1059zM338 1223h276v239h-276v-239z" />
<glyph unicode="&#xf0;" horiz-adv-x="1251" d="M78 506q0 -119 39 -215q41 -102 110 -168q66 -70 172 -111q98 -39 226 -39q123 0 227 43q104 49 172 123q70 74 111 185q39 109 39 235q4 244 -84 422q-90 184 -254 342l233 117l-106 121l-252 -127q-92 74 -203 135l-189 -142q2 -2 35 -18t49 -27q46 -24 89 -57 l-220 -111l119 -114l230 114q35 -31 112 -108q61 -72 96 -152h-4q-72 51 -145 66q-76 16 -131 16q-119 0 -213 -47q-88 -47 -146 -123q-61 -80 -84 -170q-29 -88 -28 -190zM369 528q0 55 12 111q14 57 45 102q25 41 78 74q53 27 119 27q68 0 120 -27q53 -33 80 -74 q29 -41 45 -98q14 -55 15 -115q0 -66 -13 -122q-12 -61 -43 -111q-29 -49 -77 -76q-54 -29 -125.5 -29t-122.5 29q-47 27 -80 76q-29 51 -41 111q-12 57 -12 122z" />
<glyph unicode="&#xf1;" horiz-adv-x="1214" d="M111 0h290v555q0 162 54 231q51 72 172 72q104 0 145 -63q41 -70 41 -197v-598h291v651q0 98 -19 180q-14 78 -59 136q-41 55 -117 90q-78 31 -192 30q-90 0 -180 -43q-86 -39 -144 -133h-6v148h-276v-1059zM231 1212h125q8 39 29 62q16 25 57 24q33 0 70 -10 q33 -10 74 -24q53 -16 80 -23q39 -12 88 -12q59 0 102 24q35 20 66 58q23 33 36 75q15 35 25 76h-141q4 -31 -19 -49q-20 -23 -67 -22q-33 0 -68 10q-33 12 -67 26q-55 20 -64 23q-33 12 -68 12q-63 0 -112 -22q-45 -20 -74 -60q-31 -37 -45 -77q-20 -66 -27 -91z" />
<glyph unicode="&#xf2;" horiz-adv-x="1251" d="M78 528q0 -131 39 -229q41 -102 110 -176q72 -70 172 -111q98 -39 226 -39q125 0 227 39q104 43 172 111q70 74 111 176q39 98 39 229t-39 230q-41 106 -111 176q-66 68 -172 115q-111 39 -227 38q-119 0 -226 -38q-104 -45 -172 -115q-70 -70 -110 -176 q-39 -99 -39 -230zM262 1481l316 -291h202l-196 291h-322zM369 528q0 63 12 125q12 59 41 109q33 47 80 78q51 29 122.5 28.5t125.5 -28.5q49 -31 77 -78q31 -45 43 -109q12 -61 13 -125q0 -66 -13 -122q-12 -61 -43 -111q-29 -49 -77 -76q-53 -29 -125 -29t-123 29 q-47 27 -80 76q-29 51 -41 111q-12 56 -12 122z" />
<glyph unicode="&#xf3;" horiz-adv-x="1251" d="M78 528q0 -131 39 -229q41 -102 110 -176q72 -70 172 -111q98 -39 226 -39q125 0 227 39q104 43 172 111q70 74 111 176q39 98 39 229t-39 230q-41 106 -111 176q-66 68 -172 115q-111 39 -227 38q-119 0 -226 -38q-104 -45 -172 -115q-70 -70 -110 -176 q-39 -99 -39 -230zM369 528q0 63 12 125q12 59 41 109q33 47 80 78q51 29 122.5 28.5t125.5 -28.5q49 -31 77 -78q31 -45 43 -109q12 -61 13 -125q0 -66 -13 -122q-12 -61 -43 -111q-29 -49 -77 -76q-53 -29 -125 -29t-123 29q-47 27 -80 76q-29 51 -41 111q-12 56 -12 122z M471 1190h203l315 291h-321z" />
<glyph unicode="&#xf4;" horiz-adv-x="1251" d="M78 528q0 -131 39 -229q41 -102 110 -176q72 -70 172 -111q98 -39 226 -39q125 0 227 39q104 43 172 111q70 74 111 176q39 98 39 229t-39 230q-41 106 -111 176q-66 68 -172 115q-111 39 -227 38q-119 0 -226 -38q-104 -45 -172 -115q-70 -70 -110 -176 q-39 -99 -39 -230zM266 1190h221l131 166l127 -166h240l-225 291h-266zM369 528q0 63 12 125q12 59 41 109q33 47 80 78q51 29 122.5 28.5t125.5 -28.5q49 -31 77 -78q31 -45 43 -109q12 -61 13 -125q0 -66 -13 -122q-12 -61 -43 -111q-29 -49 -77 -76q-53 -29 -125 -29 t-123 29q-47 27 -80 76q-29 51 -41 111q-12 56 -12 122z" />
<glyph unicode="&#xf5;" horiz-adv-x="1251" d="M78 528q0 -131 39 -229q41 -102 110 -176q72 -70 172 -111q98 -39 226 -39q125 0 227 39q104 43 172 111q70 74 111 176q39 98 39 229t-39 230q-41 106 -111 176q-66 68 -172 115q-111 39 -227 38q-119 0 -226 -38q-104 -45 -172 -115q-70 -70 -110 -176 q-39 -99 -39 -230zM250 1212h125q8 35 26 62q18 25 60 24q33 0 69 -10q35 -10 74 -24q53 -16 80 -23q39 -12 88 -12q63 0 100 24q37 18 66 58q23 27 41 75q16 53 22 76h-141q4 -31 -18 -49q-20 -23 -68 -22q-29 0 -69 10q-57 23 -66 26q-51 18 -66 23q-31 12 -65 12 q-63 0 -113 -22q-45 -20 -73 -60q-31 -37 -46 -77q-23 -66 -26 -91zM369 528q0 63 12 125q12 59 41 109q33 47 80 78q51 29 122.5 28.5t125.5 -28.5q49 -31 77 -78q31 -45 43 -109q12 -61 13 -125q0 -66 -13 -122q-12 -61 -43 -111q-29 -49 -77 -76q-53 -29 -125 -29 t-123 29q-47 27 -80 76q-29 51 -41 111q-12 56 -12 122z" />
<glyph unicode="&#xf6;" horiz-adv-x="1251" d="M78 528q0 -131 39 -229q41 -102 110 -176q72 -70 172 -111q98 -39 226 -39q125 0 227 39q104 43 172 111q70 74 111 176q39 98 39 229t-39 230q-41 106 -111 176q-66 68 -172 115q-111 39 -227 38q-119 0 -226 -38q-104 -45 -172 -115q-70 -70 -110 -176 q-39 -99 -39 -230zM276 1223h277v239h-277v-239zM369 528q0 63 12 125q12 59 41 109q33 47 80 78q51 29 122.5 28.5t125.5 -28.5q49 -31 77 -78q31 -45 43 -109q12 -61 13 -125q0 -66 -13 -122q-12 -61 -43 -111q-29 -49 -77 -76q-53 -29 -125 -29t-123 29q-47 27 -80 76 q-29 51 -41 111q-12 56 -12 122zM698 1223h277v239h-277v-239z" />
<glyph unicode="&#xf7;" horiz-adv-x="1228" d="M98 408h1035v219h-1035v-219zM442 92q0 -35 15 -63q14 -33 39 -58q20 -20 53 -37q31 -14 69 -14q29 0 66 14q37 23 53 41q20 25 37 56q14 29 14 61q0 39 -14 68q-16 33 -37 53q-25 25 -55 37q-29 14 -65.5 14t-67.5 -14q-33 -12 -53 -37q-23 -18 -39 -53q-15 -29 -15 -68 zM442 942q0 -37 15 -65q14 -33 39 -58q20 -20 53 -37q35 -12 69 -12q37 0 66 14q35 16 53 39q20 25 37 56q14 29 14 63q0 39 -14 70q-16 33 -37 53q-25 25 -55 37q-29 14 -66 14q-72 0 -120 -51q-54 -47 -54 -123z" />
<glyph unicode="&#xf8;" horiz-adv-x="1251" d="M78 528q0 -240 135 -387l-123 -139l76 -63l121 135q137 -100 338 -101q125 0 227 39q104 43 172 111q70 74 111 176q39 98 39 229q0 123 -37 224q-37 100 -105 172l111 125l-76 65l-109 -125q-137 98 -333 98q-119 0 -226 -38q-104 -45 -172 -115q-70 -70 -110 -176 q-39 -98 -39 -230zM369 528q0 63 12 125q12 59 41 109q33 47 80 78q51 29 123 28q109 1 170 -65l-396 -451q-16 45 -22 84q-8 41 -8 92zM451 260l399 455q14 -37 24 -88q8 -43 9 -99q0 -66 -13 -122q-12 -61 -43 -111q-29 -49 -77 -76q-53 -29 -125 -29q-59 0 -103 19 q-44 20 -71 51z" />
<glyph unicode="&#xf9;" horiz-adv-x="1214" d="M111 408q0 -92 16 -179q18 -80 61 -139q43 -55 119 -86q74 -31 191 -31q88 0 180 41q86 39 143 133h6v-147h277v1059h-291v-555q0 -158 -53 -234q-53 -70 -172 -69q-106 0 -146 65q-41 63 -41 195v598h-290v-651zM244 1481l315 -291h203l-197 291h-321z" />
<glyph unicode="&#xfa;" horiz-adv-x="1214" d="M111 408q0 -92 16 -179q18 -80 61 -139q43 -55 119 -86q74 -31 191 -31q88 0 180 41q86 39 143 133h6v-147h277v1059h-291v-555q0 -158 -53 -234q-53 -70 -172 -69q-106 0 -146 65q-41 63 -41 195v598h-290v-651zM453 1190h202l316 291h-322z" />
<glyph unicode="&#xfb;" horiz-adv-x="1214" d="M111 408q0 -92 16 -179q18 -80 61 -139q43 -55 119 -86q74 -31 191 -31q88 0 180 41q86 39 143 133h6v-147h277v1059h-291v-555q0 -158 -53 -234q-53 -70 -172 -69q-106 0 -146 65q-41 63 -41 195v598h-290v-651zM248 1190h221l131 166l127 -166h240l-226 291h-266z" />
<glyph unicode="&#xfc;" horiz-adv-x="1214" d="M111 408q0 -92 16 -179q18 -80 61 -139q43 -55 119 -86q74 -31 191 -31q88 0 180 41q86 39 143 133h6v-147h277v1059h-291v-555q0 -158 -53 -234q-53 -70 -172 -69q-106 0 -146 65q-41 63 -41 195v598h-290v-651zM258 1223h277v239h-277v-239zM680 1223h276v239h-276 v-239z" />
<glyph unicode="&#xfd;" horiz-adv-x="1062" d="M-10 1059l370 -993q12 -31 13 -66q0 -49 -29 -86q-25 -39 -84 -45q-29 -2 -86 2q-14 2 -43 5t-41 3v-239q57 -4 90 -9q14 0 43 -1t45 -1q150 0 234 56q86 57 131 184l442 1190h-301l-231 -725h-4l-240 725h-309zM377 1190h203l315 291h-322z" />
<glyph unicode="&#xfe;" horiz-adv-x="1251" d="M111 -371h290v502h5q49 -72 135 -119q90 -39 182 -39q119 0 203 45q86 45 147 121q61 84 86 174q29 102 29 205q0 111 -29 215q-27 102 -88 182q-59 78 -149.5 125t-214.5 47q-90 0 -168 -38q-82 -41 -133 -125h-5v538h-290v-1833zM391 526q0 66 12 127q12 63 43 109 q29 47 78 78q47 29 119 28q68 0 119 -28q47 -31 78 -78q29 -47 45 -111q12 -61 12 -124.5t-12.5 -125t-40.5 -106.5q-29 -47 -78 -76q-51 -29 -121 -29q-68 0 -119 29q-49 29 -80 76q-29 45 -40 106q-14 57 -15 125z" />
<glyph unicode="&#xff;" horiz-adv-x="1062" d="M-10 1059l370 -993q12 -31 13 -66q0 -49 -29 -86q-25 -39 -84 -45q-29 -2 -86 2q-14 2 -43 5t-41 3v-239q57 -4 90 -9q14 0 43 -1t45 -1q150 0 234 56q86 57 131 184l442 1190h-301l-231 -725h-4l-240 725h-309zM182 1223h277v239h-277v-239zM604 1223h277v239h-277v-239 z" />
<glyph unicode="&#x152;" horiz-adv-x="2238" d="M78 723q0 -154 45 -289q47 -139 131 -241q90 -102 215 -164q125 -61 289 -62q98 0 192 37q92 33 160 107h4v-111h1038v270h-739v359h664v250h-664v313h725v270h-1024v-104h-4q-63 78 -156 108q-94 31 -190 31q-164 0 -289 -63q-131 -66 -217 -172q-82 -96 -135 -246 q-45 -147 -45 -293zM399.5 727q-0.5 94 20.5 182q23 94 67 160q43 68 119 115q74 43 180 43q63 0 127 -23q57 -23 99 -63q43 -41 65 -97q25 -58 25 -126v-349q0 -150 -86 -241q-88 -92 -236 -92q-104 0 -174 43q-78 45 -119 112q-45 66 -67 158q-20 84 -20.5 178z" />
<glyph unicode="&#x153;" horiz-adv-x="1896" d="M78 535q0 -117 33 -216q33 -106 94 -180q63 -76 155 -121q90 -45 215 -45q63 0 109 11q37 4 102 28q61 29 95 58q41 33 69 82q59 -96 168 -140q111 -39 215 -39q180 0 314 95q131 96 182 268h-283q-27 -70 -80 -109q-55 -37 -133 -37q-125 0 -190 76q-62 80 -62 193h756 q0 121 -29 241q-29 115 -92 199q-59 84 -160 137q-96 51 -239 51q-41 0 -98 -10q-35 -8 -101 -33q-61 -33 -88 -53q-39 -29 -67 -71q-57 92 -160 129q-98 39 -205 38q-119 0 -215 -43t-164 -116q-66 -72 -104 -174q-37 -104 -37 -219zM369 524q0 61 12 123q8 61 37 111 q29 51 69 80q45 31 113 30q76 0 117 -32q45 -33 69 -82q23 -45 33 -109q8 -51 8 -113q0 -37 -8 -118q-14 -68 -37 -111q-25 -49 -69 -82q-45 -31 -119 -31q-66 0 -109 31q-43 33 -69.5 82t-36.5 107q-10 68 -10 114zM1081 643q4 94 62 160q59 66 168 65q115 0 174 -61 q57 -58 61 -164h-465z" />
<glyph unicode="&#x178;" horiz-adv-x="1366" d="M-16 1462l536 -893v-569h322v561l542 901h-358l-340 -577l-342 577h-360zM334 1626h276v240h-276v-240zM756 1626h276v240h-276v-240z" />
<glyph unicode="&#x2c6;" horiz-adv-x="530" d="M-92 1190h219l131 166l127 -166h240l-226 291h-266z" />
<glyph unicode="&#x2dc;" horiz-adv-x="530" d="M-109 1212h123q8 35 27 62q18 25 59 24q33 0 70 -10q35 -10 74 -24q53 -16 80 -23q39 -12 88 -12q63 0 100 24q37 18 66 58q23 27 40 75q17 53 23 76h-141q4 -31 -19 -49q-20 -23 -67 -22q-29 0 -70 10q-57 23 -65 26q-51 18 -66 23q-31 12 -66 12q-66 0 -110 -22 q-45 -20 -74 -60q-31 -37 -45 -77q-20 -66 -27 -91z" />
<glyph unicode="&#x2000;" horiz-adv-x="998" />
<glyph unicode="&#x2001;" horiz-adv-x="1997" />
<glyph unicode="&#x2002;" horiz-adv-x="998" />
<glyph unicode="&#x2003;" horiz-adv-x="1997" />
<glyph unicode="&#x2004;" horiz-adv-x="665" />
<glyph unicode="&#x2005;" horiz-adv-x="499" />
<glyph unicode="&#x2006;" horiz-adv-x="332" />
<glyph unicode="&#x2007;" horiz-adv-x="332" />
<glyph unicode="&#x2008;" horiz-adv-x="249" />
<glyph unicode="&#x2009;" horiz-adv-x="399" />
<glyph unicode="&#x200a;" horiz-adv-x="110" />
<glyph unicode="&#x2010;" horiz-adv-x="833" d="M109 434h616v250h-616v-250z" />
<glyph unicode="&#x2011;" horiz-adv-x="833" d="M109 434h616v250h-616v-250z" />
<glyph unicode="&#x2012;" horiz-adv-x="833" d="M109 434h616v250h-616v-250z" />
<glyph unicode="&#x2013;" horiz-adv-x="1024" d="M0 434h1024v250h-1024v-250z" />
<glyph unicode="&#x2014;" horiz-adv-x="2048" d="M266 434h1516v250h-1516v-250z" />
<glyph unicode="&#x2018;" horiz-adv-x="569" d="M139 805h291v315h-135q0 72 29 129q29 49 106 78v135q-63 -8 -119 -37q-53 -33 -92 -75q-41 -47 -59 -105q-25 -55 -21 -127v-313z" />
<glyph unicode="&#x2019;" horiz-adv-x="569" d="M139 805q66 10 119 39t92 74q41 47 60 104q25 55 20 127v313h-291v-315h135q0 -76 -28 -127q-25 -51 -107 -80v-135z" />
<glyph unicode="&#x201a;" horiz-adv-x="569" d="M139 0h135q0 -70 -28 -127q-29 -49 -107 -78v-135q63 8 119 37q55 33 92 78q39 43 60 102q25 59 20 125v313h-291v-315z" />
<glyph unicode="&#x201c;" horiz-adv-x="948" d="M111 805h290v315h-135q0 72 29 129q29 49 106 78v135q-63 -8 -118 -37q-53 -33 -93 -75q-41 -47 -59 -105q-25 -55 -20 -127v-313zM547 805h291v315h-136q0 72 29 129q29 49 107 78v135q-63 -8 -117 -37q-55 -31 -94 -75q-35 -39 -62 -105q-20 -68 -18 -127v-313z" />
<glyph unicode="&#x201d;" horiz-adv-x="948" d="M111 805q66 10 118 39q53 29 93 74q41 47 59 104q25 55 20 127v313h-290v-315h135q0 -76 -29 -127q-25 -51 -106 -80v-135zM547 805q68 10 117 39q53 27 94 74q35 39 61 104q20 68 19 127v313h-291v-315h135q0 -76 -29 -127q-25 -51 -106 -80v-135z" />
<glyph unicode="&#x201e;" horiz-adv-x="948" d="M111 0h135q0 -70 -29 -127q-29 -49 -106 -78v-135q63 8 118 37q55 33 93 78q39 43 59 102q25 59 20 125v313h-290v-315zM547 0h135q0 -70 -29 -127q-29 -49 -106 -78v-135q63 8 117 37q57 31 94 78q31 33 61 102q20 70 19 125v313h-291v-315z" />
<glyph unicode="&#x2022;" horiz-adv-x="1026" d="M147 731q0 -74 29 -141q27 -63 78 -119q49 -49 115 -78q70 -29 143.5 -28.5t142.5 28.5q66 29 115 78q53 53 80 119q29 68 29 141.5t-29 140.5q-27 68 -80 117q-49 51 -115 78q-70 29 -143.5 29t-142.5 -29q-63 -27 -114.5 -78t-78.5 -117q-29 -67 -29 -141z" />
<glyph unicode="&#x2026;" horiz-adv-x="2048" d="M180 0h322v315h-322v-315zM862 0h322v315h-322v-315zM1544 0h322v315h-322v-315z" />
<glyph unicode="&#x202f;" horiz-adv-x="399" />
<glyph unicode="&#x2039;" horiz-adv-x="493" d="M86 420l322 -256v246l-185 147l185 145v246l-322 -252v-276z" />
<glyph unicode="&#x203a;" horiz-adv-x="493" d="M86 164l322 256v276l-322 252v-246l184 -145l-184 -147v-246z" />
<glyph unicode="&#x205f;" horiz-adv-x="499" />
<glyph unicode="&#x20ac;" d="M31 784h149q-2 -2 -2 -32v-54h-82l-63 -147h157q43 -268 187 -418q156 -166 416 -166q178 0 315 80l2 309q-164 -129 -315 -129q-238 0 -303 324h356l63 147h-436l2 86h459l63 148h-499q72 281 286 280q124 0 269 -92l125 256q-201 102 -373 103q-244 0 -406 -156 q-154 -145 -202 -391h-105z" />
<glyph unicode="&#x2122;" horiz-adv-x="2048" d="M127 1298h240v-680h208v680h240v164h-688v-164zM924 618h196v599h4l217 -599h142l217 599h4v-599h197v844h-277l-211 -555l-211 555h-278v-844z" />
<glyph unicode="&#xe000;" horiz-adv-x="1054" d="M0 0v1055h1055v-1055h-1055z" />
<glyph unicode="&#xfb01;" horiz-adv-x="1251" d="M0 864h174v-864h291v864h201v195h-201v63q0 66 27 95q27 27 83 26q55 0 107 -6v217q-49 4 -76 4q-27 4 -78 4q-176 0 -266 -90q-88 -88 -88 -231v-82h-174v-195zM842 0h291v1059h-291v-1059zM842 1223h291v239h-291v-239z" />
<glyph unicode="&#xfb02;" horiz-adv-x="1251" d="M0 864h174v-864h291v864h201v195h-201v63q0 66 27 95q27 27 83 26q55 0 107 -6v217q-49 4 -76 4q-27 4 -78 4q-176 0 -266 -90q-88 -88 -88 -231v-82h-174v-195zM842 0h291v1462h-291v-1462z" />
</font>
</defs>
</svg>
