<?xml version="1.0" standalone="no"?>
<!DOCTYPE svg PUBLIC "-//W3C//DTD SVG 1.1//EN" "http://www.w3.org/Graphics/SVG/1.1/DTD/svg11.dtd" >
<svg xmlns="http://www.w3.org/2000/svg">
<metadata></metadata>
<defs>
<font id="helvetica_neuelight" horiz-adv-x="1138" >
<font-face units-per-em="2048" ascent="1638" descent="-410" />
<missing-glyph horiz-adv-x="569" />
<glyph horiz-adv-x="2048" />
<glyph horiz-adv-x="2048" />
<glyph horiz-adv-x="682" />
<glyph horiz-adv-x="0" />
<glyph unicode="&#x9;" horiz-adv-x="569" />
<glyph unicode="&#xd;" horiz-adv-x="681" />
<glyph horiz-adv-x="0" />
<glyph unicode=" "  horiz-adv-x="569" />
<glyph unicode="&#x09;" horiz-adv-x="569" />
<glyph unicode="&#xa0;" horiz-adv-x="569" />
<glyph unicode="!" horiz-adv-x="493" d="M162 0h172v217h-172v-217zM178 1026l31 -661h78l30 661v436h-139v-436z" />
<glyph unicode="&#x22;" horiz-adv-x="757" d="M178 965h129v497h-129v-497zM451 965h129v497h-129v-497z" />
<glyph unicode="#" d="M72 457h225l-64 -457h103l63 457h289l-63 -457h102l64 457h227v92h-215l45 319h227v93h-215l64 454h-103l-63 -454h-289l63 454h-102l-63 -454h-238v-93h225l-45 -319h-237v-92zM412 549l45 319h288l-45 -319h-288z" />
<glyph unicode="$" d="M59 467q8 -231 117 -352q111 -119 350 -142v-176h80v174q90 0 176 25q90 31 152 78q61 49 106 127q39 82 39 178q0 109 -41 178q-39 72 -108 119q-63 45 -152 74q-76 25 -172 45v589q135 0 219 -90q84 -92 86 -245h129q4 102 -32 182q-29 76 -95 141q-59 57 -139 90 q-76 31 -168 31v160h-80v-160q-82 0 -166 -27q-84 -33 -139 -82q-61 -53 -90 -124q-35 -70 -35 -166q0 -106 35 -176q31 -68 94 -119q57 -45 135 -70q72 -25 166 -45v-606q-164 18 -247 115q-87 90 -91 274h-129zM225 1079q0 82 25 138q20 57 65 96q39 35 95 55 q59 16 116 16v-571q-39 10 -112 31q-51 14 -95 45q-41 27 -69 74q-25 45 -25 116zM606 78v590q86 -23 121 -35q66 -23 111 -51q51 -35 80 -82q33 -47 32 -123q0 -78 -28 -135q-29 -55 -78 -95q-51 -39 -111 -53q-66 -16 -127 -16z" />
<glyph unicode="%" horiz-adv-x="1820" d="M141.5 1058.5q-0.5 -79.5 18.5 -153.5q18 -70 57 -123q43 -53 102 -82q63 -29 147.5 -28.5t147.5 28.5q59 29 103 82q39 53 57 123q18 74 18.5 154t-18.5 153q-18 70 -57 123q-43 53 -103 82q-63 29 -147 29t-148 -29q-59 -29 -102 -82q-39 -53 -57 -123 q-18 -74 -18.5 -153.5zM250 1057q0 29 8 102q14 59 35 94q23 41 67 74q44 27 107 27q59 0 106 -27q45 -35 66 -74q25 -45 35 -94q10 -61 10 -102q0 -43 -10 -101q-8 -49 -35 -94q-23 -39 -66 -71q-47 -27 -106 -27q-63 0 -107 27q-45 33 -67 71q-23 37 -35 94q-8 70 -8 101z M389 -68h98l926 1553h-96zM1040.5 356q-0.5 -84 18.5 -151q18 -76 57 -123q39 -55 101 -82q68 -29 149.5 -29t149.5 29q61 27 100 82q39 47 57 123q18 68 18.5 151.5t-18.5 151.5q-18 76 -57 123q-39 55 -100 82q-64 30 -150 30q-84 0 -149 -30q-61 -27 -101 -82 q-39 -47 -57 -123q-18 -68 -18.5 -152zM1149 354q0 59 10 101q6 47 33 98q27 45 65 70q41 28 109 28t104 -28q41 -25 68 -70q27 -51 35 -98q10 -55 10 -101q0 -43 -10 -100q-8 -49 -35 -94t-68 -70q-37 -29 -104.5 -29t-108.5 29q-39 25 -65 70q-27 47 -33 94 q-10 43 -10 100z" />
<glyph unicode="&#x26;" horiz-adv-x="1251" d="M80 379q0 -104 35 -176q29 -70 92 -127q55 -49 141 -78q78 -27 174 -27q127 0 240 60q110 59 190 159l156 -190h162l-246 297q51 92 70 190q16 104 16 160h-129q0 -90 -8 -139q-10 -61 -35 -107l-320 385q51 31 107 74q57 39 90 82q41 43 66 100q25 55 24.5 123 t-24.5 121q-27 55 -70 94q-37 33 -102 62q-68 20 -127.5 20t-126.5 -20q-66 -29 -103 -62q-43 -39 -69 -94q-25 -53 -25 -121q0 -51 16 -100q20 -53 45 -90q29 -51 58 -82l61 -80q-63 -35 -125 -76q-51 -33 -116 -96q-49 -51 -84 -119q-33 -63 -33 -143zM209 367 q0 68 27 120q29 55 69 99q41 45 96 80q60 38 107 63l364 -442q-61 -90 -147 -148q-90 -61 -199 -61q-63 0 -118 20q-59 23 -101 60q-43 37 -71 92q-27 51 -27 117zM387 1165q0 92 57 142q60 47 137.5 47t137.5 -47q57 -49 57 -142q0 -55 -20 -96q-23 -49 -54 -82 q-39 -39 -71 -63q-12 -8 -39 -26.5t-41 -27.5q-16 18 -53 64q-37 49 -54 74q-27 43 -41 77q-16 45 -16 80z" />
<glyph unicode="'" horiz-adv-x="569" d="M221 965h129v497h-129v-497z" />
<glyph unicode="(" horiz-adv-x="493" d="M104 545q0 -137 19 -254q23 -123 57 -234q33 -104 90 -223q51 -104 123 -223h103q-66 106 -107 203q-51 111 -84 223q-37 125 -53 233q-18 117 -19 228q0 276 62 524q66 256 201 471h-103q-133 -209 -213 -449q-76 -240 -76 -499z" />
<glyph unicode=")" horiz-adv-x="493" d="M0 -389h100q141 221 211 446q78 231 78 500q0 139 -20 254q-18 125 -56 233q-35 111 -92 226q-45 96 -121 223h-100q57 -102 102 -207q49 -109 84 -221q35 -121 56 -231q18 -117 18 -230q0 -281 -63 -522q-61 -248 -197 -471z" />
<glyph unicode="*" horiz-adv-x="720" d="M55 1219l236 -80l-150 -201l66 -47l149 205l150 -205l65 47l-147 201l242 80l-31 75l-236 -84v252h-80v-252l-235 84z" />
<glyph unicode="+" horiz-adv-x="1228" d="M100 461h461v-461h109v461h460v108h-460v461h-109v-461h-461v-108z" />
<glyph unicode="," horiz-adv-x="569" d="M190 -190v-89q39 10 80 41q37 33 56 66q25 45 34 82q10 51 11 90v217h-172v-217h86q2 -14 -2 -53q-6 -25 -19 -58q-16 -33 -31 -49q-18 -20 -43 -30z" />
<glyph unicode="-" horiz-adv-x="757" d="M123 504h512v119h-512v-119z" />
<glyph unicode="." horiz-adv-x="569" d="M199 0h172v217h-172v-217z" />
<glyph unicode="/" horiz-adv-x="681" d="M-25 -29h109l625 1522h-105z" />
<glyph unicode="0" d="M70 707q0 -131 20 -256q18 -129 74 -238q51 -104 151 -174q98 -68 254 -68q160 0 254 68q100 70 152 174q55 109 74 238q20 125 20 258q0 131 -20 256q-18 129 -74 237q-51 104 -152 174q-94 70 -254 70q-158 0 -254 -70q-100 -70 -151 -174q-55 -109 -74 -237 q-20 -125 -20 -258zM199 709q0 92 12 202q12 113 51 205q35 92 111 158q71 63 196 63t197 -63q76 -66 111 -158q39 -92 51 -205q12 -111 12 -202q0 -94 -12.5 -205t-50.5 -205q-37 -94 -111 -158q-72 -63 -197 -63t-196 63q-74 63 -111 158q-39 94 -51 204.5t-12 205.5z" />
<glyph unicode="1" d="M199 1065h379v-1065h129v1434h-105q-16 -104 -49 -152q-29 -51 -82 -82q-49 -27 -119 -33q-49 -6 -153 -10v-92z" />
<glyph unicode="2" d="M74 0h944v119h-797q12 74 62 131q51 63 114 112q59 51 133 93q10 6 121 77q94 61 135 99q59 43 115 112q51 59 82 136q29 76 29 163q0 94 -33 177q-37 76 -94.5 125t-143.5 77q-80 25 -174 25q-117 0 -202 -37q-88 -39 -146 -106q-59 -70 -84 -160q-31 -92 -26 -205h129 q-2 78 16 152q16 72 55 127t101 88q63 33 151 32q68 0 123 -18q59 -20 102 -57q45 -39 70 -95q27 -51 27 -123q0 -86 -31 -147q-27 -61 -88 -123q-66 -66 -133 -110q-68 -49 -152 -103q-86 -59 -147 -106q-66 -47 -129 -119q-59 -66 -92 -148q-35 -84 -37 -188z" />
<glyph unicode="3" d="M68 457q-10 -119 26 -207q31 -86 99 -152q66 -59 159 -94q92 -33 205 -33q104 0 188 29q86 25 158 82q63 53 109 135q39 88 39 189q0 137 -76 237q-84 96 -219 117v4q117 27 178 115q63 84 63 202q0 98 -39 164q-35 68 -98 115q-59 39 -143 65q-88 20 -164 21 q-106 0 -188 -37q-86 -35 -143.5 -98.5t-90.5 -147.5q-31 -86 -31 -188h129q-4 80 19 147q23 68 63 115q39 45 103 74q59 27 141 26q55 0 121 -14q57 -18 100 -49q45 -39 68 -86q25 -49 24 -121q0 -70 -26.5 -117t-67.5 -82q-47 -33 -94 -45q-49 -16 -102 -16h-109v-109h109 q70 0 135 -18q66 -18 108 -57q47 -37 74 -95q27 -53 27 -133q0 -76 -31 -135q-33 -63 -82 -100q-51 -41 -117 -62q-61 -20 -137 -20q-90 0 -154 28q-70 25 -114 76q-47 47 -70 119q-24 68 -20 156h-129z" />
<glyph unicode="4" d="M61 356h662v-356h119v356h215v109h-215v969h-117l-664 -953v-125zM178 465l541 780h4v-780h-545z" />
<glyph unicode="5" d="M74 410q4 -104 39 -185q37 -82 100 -139q61 -55 147 -86q86 -29 185 -29q102 0 192 37q86 31 160 98q70 70 107 156q39 84 38 193q0 115 -34 200q-31 88 -95 156q-66 66 -151 102q-92 37 -201 37q-82 0 -168 -35q-82 -35 -135 -98l-4 4l92 475h627v119h-717l-139 -743 h110q49 78 138 127q82 43 182 43q78 0 147 -29q68 -27 117 -80q51 -55 74 -117q29 -63 28 -147q0 -76 -24 -150q-27 -72 -72 -122q-45 -53 -112 -86q-63 -33 -150 -33q-72 0 -137 24q-63 20 -111 66q-51 51 -74 106q-26 56 -30 136h-129z" />
<glyph unicode="6" d="M82 731q0 -207 29 -354q31 -145 92 -236q66 -94 155 -129q90 -41 226 -41q109 0 194 37q80 29 156 98q70 76 98 156q37 86 37 193q0 98 -33 192q-37 90 -96 152q-61 66 -149 98q-86 37 -195 37q-121 0 -227 -66q-102 -66 -154 -172h-4q0 106 14 209q16 117 58 209 q43 94 120 160q76 63 203 63q125 0 205 -73q80 -76 94 -193h129q-23 190 -135 283q-115 92 -305 92q-115 0 -201 -41q-82 -39 -139 -107q-59 -66 -90 -147q-33 -72 -53 -160q-18 -78 -25 -147q-4 -94 -4 -113zM238 446q0 80 24 148q20 70 70 121q41 51 110 80q68 30 152 30 q80 0 147 -30q66 -29 107 -80q45 -51 70 -121q23 -74 22.5 -147.5t-25.5 -141.5q-27 -72 -71 -117q-41 -49 -107 -82q-68 -29 -141 -28q-92 0 -162 28q-66 27 -110 78q-43 49 -66 119q-20 63 -20 143z" />
<glyph unicode="7" d="M104 1296h793q-147 -164 -254 -325q-113 -164 -176 -312q-68 -141 -111 -315q-37 -164 -49 -344h139q12 246 78 459q68 205 156 368q94 168 184 283q96 117 162 186v119h-922v-119z" />
<glyph unicode="8" d="M76 401q0 -111 39 -188q41 -84 106 -135q68 -51 158 -80q86 -27 190.5 -27t192.5 27q90 29 155.5 80t106.5 135q39 78 39 188q0 152 -76 242q-76 98 -217 125v4q113 35 172 117q62 79 62 198q0 92 -37 160q-41 68 -103 113q-55 39 -139 65q-86 20 -157.5 20.5 t-157.5 -20.5q-84 -27 -140 -65q-61 -47 -98 -113q-39 -66 -39 -160q0 -117 60 -198q61 -84 174 -117v-4q-135 -25 -211 -125q-78 -102 -80 -242zM205 401q0 76 28 138q31 57 80 100q53 41 117 57q68 18 139 17q68 2 140 -17q72 -25 114 -61q51 -35 82 -98q29 -57 29 -136 q0 -80 -29 -143q-25 -57 -78 -102q-53 -39 -114 -58q-64 -20 -144 -20t-143 20q-72 25 -115 62q-49 37 -77.5 100.5t-28.5 140.5zM262 1087q0 63 25 109q29 49 69 78q45 33 99 47q59 16 114 16q61 0 121 -16q55 -14 96 -47q41 -31 66 -78q23 -49 22 -109q0 -70 -26 -120 q-23 -47 -66 -84q-45 -35 -98 -47q-54 -19 -115 -15q-57 -2 -112 13q-59 16 -99 47q-43 35 -69 84q-27 51 -27 122z" />
<glyph unicode="9" d="M70 961q0 -98 32 -193q37 -90 97 -152q61 -63 149 -100q92 -35 195 -35q121 0 227 66q102 63 154 172h4q0 -104 -15 -211q-16 -115 -57 -207t-119 -160q-78 -63 -205 -63q-125 0 -204 74q-81 75 -95 192h-129q23 -190 136 -283q115 -90 305 -90q115 0 200.5 41t139.5 107 q59 61 90 143q33 74 53 160q18 80 25 149q4 94 4 113q0 205 -29 354q-31 147 -92 236q-63 96 -156 131q-90 41 -225 41q-109 0 -195 -37q-88 -35 -155 -102q-63 -63 -99 -152q-37 -92 -36 -194zM198.5 968.5q0.5 73.5 24.5 141.5q25 70 72 119q43 49 108 78q63 31 140 30 q92 0 162 -28q68 -27 110 -80q43 -45 66 -115q20 -63 20 -145q0 -80 -24 -150q-23 -68 -70 -119q-39 -49 -111 -82q-69 -28 -151 -28q-78 0 -148 28q-66 33 -106 82q-45 51 -70 121q-23 74 -22.5 147.5z" />
<glyph unicode=":" horiz-adv-x="569" d="M199 0h172v217h-172v-217zM199 807h172v217h-172v-217z" />
<glyph unicode=";" horiz-adv-x="569" d="M190 -190v-89q39 10 80 41q37 33 56 66q25 45 34 82q10 51 11 90v217h-172v-217h86q2 -14 -2 -53q-6 -25 -19 -58q-16 -33 -31 -49q-18 -20 -43 -30zM199 807h172v217h-172v-217z" />
<glyph unicode="&#x3c;" horiz-adv-x="1228" d="M94 463l1041 -477v110l-914 422l914 422v113l-1041 -480v-110z" />
<glyph unicode="=" horiz-adv-x="1228" d="M100 262h1030v109h-1030v-109zM100 666h1030v108h-1030v-108z" />
<glyph unicode="&#x3e;" horiz-adv-x="1228" d="M94 -14l1041 477v110l-1041 480v-113l914 -422l-914 -422v-110z" />
<glyph unicode="?" horiz-adv-x="1099" d="M111 1012h129q-2 80 18 147q20 66 61 119q41 51 105 78q68 29 145 28q63 0 113 -20q59 -25 92 -57q39 -31 66 -86q23 -55 22 -113q0 -82 -39 -145q-41 -70 -94 -119q-72 -66 -111 -107q-49 -45 -73 -98q-29 -47 -41 -115q-12 -70 -10 -157h129q4 104 8 145q6 51 24 84 q20 37 58 72q25 23 100 98q76 74 129 154q49 80 49 194q0 92 -33 160q-35 72 -90 119q-59 49 -131 73q-74 27 -162 27q-109 0 -196.5 -35t-145.5 -98q-61 -61 -92 -152q-30 -85 -30 -196zM473 0h172v217h-172v-217z" />
<glyph unicode="@" horiz-adv-x="1638" d="M96.5 737q-0.5 -162 55.5 -303q61 -147 159 -241q92 -98 240 -164q143 -57 305 -58q96 0 188 25q94 25 177 72q80 43 151 114q70 66 117 152h-105q-45 -61 -104 -113q-59 -53 -129 -86q-76 -37 -143 -53q-74 -20 -152 -21q-143 0 -258 52q-123 51 -209 141 q-84 84 -135 209q-49 121 -49 260t47 264q45 123 133 217q90 94 205 144q123 53 262 53q119 0 225.5 -37t184.5 -107q78 -66 127 -167q45 -106 45 -228q0 -84 -29 -176q-27 -84 -76 -164q-47 -76 -110 -121q-66 -47 -132 -47q-27 0 -34 15q-12 16 -13 37q-2 20 4 55 q3 12 17 63l196 590h-108l-51 -133q-33 90 -92 133q-61 39 -125 39q-106 0 -199 -51q-92 -57 -154 -139q-63 -82 -98 -189q-35 -111 -35 -213q0 -61 18.5 -114.5t53.5 -94.5t86 -65q51 -23 113 -23q78 0 145 43q70 45 115 92h4q6 -70 45 -102q41 -35 92 -35q84 0 170 45 q90 51 154 127q70 86 108 191q43 109 43 231q0 139 -53 258q-53 117 -146 201q-98 90 -221 131q-121 47 -274 47q-160 0 -293 -59q-137 -55 -240 -160q-104 -100 -159 -238q-59 -137 -59.5 -299zM524 571q0 74 25 154q20 72 69 156q53 74 111 116q69 47 143 47q31 0 60 -16 q31 -16 51.5 -43t36.5 -59q14 -35 14 -72q0 -72 -26 -152q-31 -94 -74 -157q-41 -68 -107 -123q-61 -49 -133 -49q-74 0 -121 53q-49 53 -49 145z" />
<glyph unicode="A" horiz-adv-x="1290" d="M-12 0h147l176 455h666l178 -455h150l-574 1462h-156zM354 573l293 750l283 -750h-576z" />
<glyph unicode="B" horiz-adv-x="1366" d="M147 0h619q109 0 205 20q94 29 143 58q59 33 92 78q35 47 54 90q18 51 24 90q6 45 6 80q0 143 -84 239q-82 98 -225 117v4q53 12 104 43q51 37 78 74q33 41 54 98q18 55 18 113q0 104 -39 170q-39 70 -102 110q-70 43 -152 62q-88 16 -176 16h-619v-1462zM287 119v583 h479q188 0 287 -71q98 -68 98 -211q0 -90 -31 -146q-29 -59 -84 -94q-53 -33 -123 -49q-70 -12 -147 -12h-479zM287 821v522h479q330 0 330 -274q0 -53 -21 -96q-18 -41 -61 -80q-41 -33 -103 -53q-61 -18 -145 -19h-479z" />
<glyph unicode="C" horiz-adv-x="1441" d="M78 731.5q0 -149.5 43 -289.5q43 -137 129 -241.5t217 -167.5q129 -61 301 -62q125 0 236 41q106 41 182 117q78 78 127 184q47 104 63 244h-139q-8 -96 -47 -184q-37 -80 -96 -148q-57 -63 -142 -100q-84 -37 -184 -37q-145 0 -250 55q-106 55 -170 148q-68 88 -98 205 q-33 113 -33 235q0 125 33 236q31 117 98 204q63 92 170 148q104 55 250 55q76 0 154 -22q76 -27 131 -70q63 -47 102 -111q44 -67 62 -151h139q-16 117 -70 203q-51 88 -135 149.5t-180 89.5q-98 31 -203 31q-174 0 -301 -63q-131 -61 -217 -168q-86 -104 -129 -242 q-43 -139 -43 -288.5z" />
<glyph unicode="D" horiz-adv-x="1402" d="M147 0h506q338 10 502 188q170 176 170 543t-170 543q-164 178 -502 188h-506v-1462zM287 119v1224h297q147 0 272 -32q117 -39 186 -109q76 -76 109 -190q35 -121 35 -281t-35 -280q-33 -115 -109 -191q-70 -70 -186 -108q-125 -33 -272 -33h-297z" />
<glyph unicode="E" horiz-adv-x="1214" d="M147 0h1020v119h-880v577h815v119h-815v528h870v119h-1010v-1462z" />
<glyph unicode="F" horiz-adv-x="1099" d="M147 0h140v696h700v119h-700v528h788v119h-928v-1462z" />
<glyph unicode="G" horiz-adv-x="1517" d="M78 731.5q0 -149.5 43 -289.5q43 -137 129 -241.5t217 -167.5q129 -61 301 -62q76 0 154 17q74 14 141 53q63 35 121 90q55 61 90 135h4l18 -266h101v743h-621v-118h498v-24q0 -103 -31 -191q-35 -100 -98 -170q-61 -68 -162 -113q-98 -39 -215 -39q-145 0 -250 55 q-106 55 -170 148q-68 88 -98 205q-33 113 -33 235q0 125 33 236q31 117 98 204q63 92 170 148q104 55 250 55q111 0 188 -35q78 -29 146 -86q63 -57 94 -118q37 -61 43 -127h139q-23 125 -75 211q-57 90 -136 151q-80 61 -182 92t-217 31q-174 0 -301 -63 q-131 -61 -217 -168q-86 -104 -129 -242q-43 -139 -43 -288.5z" />
<glyph unicode="H" horiz-adv-x="1441" d="M147 0h140v709h868v-709h139v1462h-139v-635h-868v635h-140v-1462z" />
<glyph unicode="I" horiz-adv-x="454" d="M158 0h139v1462h-139v-1462z" />
<glyph unicode="J" horiz-adv-x="1024" d="M43 469q0 -92 16 -186q14 -90 62 -160q47 -68 125 -111q82 -41 205 -41q121 0 200 27q78 27 131 80q51 53 72 135q23 86 23 195v1054h-140v-995q0 -102 -12 -172t-43 -119q-35 -47 -84 -65q-47 -23 -135 -23q-109 0 -164 43q-55 39 -82 100.5t-29 124.5q-4 72 -6 113 h-139z" />
<glyph unicode="K" horiz-adv-x="1327" d="M147 0h140v502l280 260l609 -762h180l-684 858l653 604h-188l-850 -786v786h-140v-1462z" />
<glyph unicode="L" horiz-adv-x="1099" d="M147 0h959v119h-819v1343h-140v-1462z" />
<glyph unicode="M" horiz-adv-x="1705" d="M143 0h140v1264h4l501 -1264h132l499 1264h4v-1264h140v1462h-205l-504 -1282l-506 1282h-205v-1462z" />
<glyph unicode="N" horiz-adv-x="1441" d="M145 0h140v1237h4l852 -1237h155v1462h-139v-1237h-4l-852 1237h-156v-1462z" />
<glyph unicode="O" horiz-adv-x="1517" d="M70 731.5q0 -149.5 43 -289.5q43 -137 129 -241.5t217 -167.5q129 -61 301 -61q1 0 3 -1q170 0 298 62q131 66 215 168q86 104 129 241q43 139 43 289t-43 289q-43 137 -129 242q-84 106 -215 168q-127 63 -301 63t-301 -63q-131 -61 -217 -168q-86 -104 -129 -242 q-43 -139 -43 -288.5zM209 731q0 125 33 236q31 117 98 204q63 92 170 148q104 55 249.5 55t248.5 -55q104 -55 172 -148q63 -88 98 -204q31 -115 31 -236q0 -119 -31 -235q-35 -117 -98 -205q-68 -92 -172 -148q-102 -55 -248 -55t-250 55q-106 55 -170 148q-68 88 -98 205 q-33 112 -33 235z" />
<glyph unicode="P" horiz-adv-x="1290" d="M147 0h140v627h510q104 0 178 28q76 23 137 82q55 49 88 131q31 78 31 176.5t-31 176.5q-33 82 -88 131q-61 59 -137 82q-72 28 -171 28h-7h-650v-1462zM287 745v598h479q147 0 235 -73q91 -74 91 -227q0 -150 -91 -224q-88 -74 -235 -74h-479z" />
<glyph unicode="Q" horiz-adv-x="1517" d="M70 731.5q0 -149.5 43 -289.5q43 -137 129 -241.5t217 -167.5q129 -61 301 -62q229 0 379 107l227 -170l70 86l-209 158q111 106 166 258q55 147 55 321q0 150 -43 289q-43 137 -129 242q-84 106 -215 168q-127 63 -301 63t-301 -63q-131 -61 -217 -168 q-86 -104 -129 -242q-43 -139 -43 -288.5zM209 731q0 125 33 236q31 117 98 204q63 92 170 148q104 55 249.5 55t248.5 -55q104 -55 172 -148q63 -88 98 -204q31 -115 31 -236q0 -141 -43 -274q-48 -136 -144 -226l-213 162l-71 -88l192 -145q-115 -72 -270 -72 q-145 0 -250 55q-106 55 -170 148q-68 88 -98 205q-33 113 -33 235z" />
<glyph unicode="R" horiz-adv-x="1366" d="M147 0h140v649h528h19q85 0 137 -33q55 -37 86 -96q31 -70 37 -139q10 -66 14 -154q2 -8 3 -25.5t1 -27.5q0 -6 1 -19.5t2 -23.5t3 -20q0 -20 8 -62q10 -33 21 -49h153q-23 29 -34 74q-14 43 -21 102q-4 35 -8 109q0 16 -1 46.5t-3 43.5q-2 59 -16 121q-16 59 -46 100 q-25 37 -75 72q-53 29 -119 37v4q141 27 213 131q72 102 72 241q0 98 -37 172q-31 66 -95 119q-70 49 -143 68q-80 22 -163 22h-7h-670v-1462zM287 768v575h520q160 0 237.5 -77.5t77.5 -212.5q0 -70 -24 -119q-27 -53 -70 -90q-41 -35 -100 -58q-59 -18 -121 -18h-520z" />
<glyph unicode="S" horiz-adv-x="1290" d="M74 481q-1 -17 -1 -32q0 -114 38 -199q39 -94 118 -158q76 -61 189 -92q115 -29 239 -29q129 0 222 25q92 20 153 61q63 37 98 84q31 37 58 92q18 49 24 89q4 53 5 65q0 86 -29 154q-29 59 -82 106q-57 49 -123 74q-59 27 -145 51l-357 88q-39 8 -84 27q-39 14 -71 43 q-33 31 -47 65q-18 37 -19 88q0 82 31 138q29 53 82 90q49 31 114 49q78 14 140 14q86 0 147 -22q63 -16 127 -62q57 -47 86 -106q35 -59 39 -146h139q0 113 -43 199q-47 84 -118 141q-74 59 -173 86q-102 29 -206 29q-154 0 -252 -43q-100 -47 -156 -109q-53 -63 -76 -135 q-20 -68 -20 -125q0 -82 26 -145q35 -68 74 -100q49 -43 107 -66q63 -27 123 -41l325 -80q51 -12 105 -31q55 -23 98 -51q47 -33 70 -75q29 -43 28 -107q0 -82 -39 -135q-37 -55 -96 -94q-70 -39 -127 -52q-72 -16 -125 -16q-100 0 -188 18q-88 20 -154 66q-66 49 -100 121 q-35 73 -35 177v11h-139z" />
<glyph unicode="T" d="M-8 1343h508v-1343h139v1343h510v119h-1157v-119z" />
<glyph unicode="U" horiz-adv-x="1402" d="M133 526q0 -111 31 -215q35 -104 102 -176q68 -76 176 -119q102 -45 258 -45q154 0 262.5 45t176.5 119q68 76 98 176q33 100 33 215v936h-140v-905q0 -121 -28 -217q-29 -88 -84 -143q-53 -57 -135 -82q-78 -27 -183 -27q-102 0 -180 27q-82 25 -135 82q-55 55 -84 143 q-29 96 -29 217v905h-139v-936z" />
<glyph unicode="V" horiz-adv-x="1214" d="M-12 1462l540 -1462h162l543 1462h-148l-471 -1308h-4l-475 1308h-147z" />
<glyph unicode="W" horiz-adv-x="1857" d="M0 1462l406 -1462h151l369 1309h4l370 -1309h148l403 1462h-139l-334 -1280h-4l-358 1280h-174l-357 -1280h-4l-331 1280h-150z" />
<glyph unicode="X" horiz-adv-x="1175" d="M-23 0h156l451 645l444 -645h168l-528 750l499 712h-155l-428 -612l-414 612h-164l496 -708z" />
<glyph unicode="Y" horiz-adv-x="1251" d="M-18 1462l573 -860v-602h139v602l578 860h-166l-479 -741l-482 741h-163z" />
<glyph unicode="Z" horiz-adv-x="1175" d="M10 0h1139v119h-983l962 1220v123h-1052v-119h897l-963 -1220v-123z" />
<glyph unicode="[" horiz-adv-x="493" d="M156 -389h329v108h-200v1665h200v109h-329v-1882z" />
<glyph unicode="\" horiz-adv-x="681" d="M-25 1493l623 -1522h111l-631 1522h-103z" />
<glyph unicode="]" horiz-adv-x="493" d="M8 -281v-108h330v1882h-330v-109h201v-1665h-201z" />
<glyph unicode="^" horiz-adv-x="1228" d="M90 487h119l403 799l410 -799h117l-471 928h-107z" />
<glyph unicode="_" horiz-adv-x="1024" d="M0 -152v-102h1024v102h-1024z" />
<glyph unicode="`" horiz-adv-x="378" d="M-61 1493l268 -289h104l-215 289h-157z" />
<glyph unicode="a" horiz-adv-x="1062" d="M66 279q0 -82 28 -140q25 -55 74 -94t115 -57q66 -16 137 -17q82 0 133 15q61 16 102 41q45 29 78 67q39 37 72 90h4q0 -43 6 -73q2 -31 21 -60q12 -20 45 -39q31 -12 80 -12q33 0 43 2q12 2 40 6v109q-16 -8 -40 -8q-76 0 -76 77v562q0 104 -35 174q-35 66 -90 102.5 t-125 48.5q-66 14 -139 14q-94 0 -168 -20q-76 -20 -133 -63q-53 -41 -88 -111q-33 -66 -39 -160h129q2 125 82 189q80 57 200 57q39 0 109 -8q53 -14 86 -35q35 -23 61 -68q20 -45 21 -106q0 -41 -13 -70q-10 -29 -30 -41q-18 -16 -51 -22q-39 -8 -72 -11 q-35 -4 -103.5 -12t-103.5 -12q-109 -16 -180 -47q-84 -35 -131 -96q-49 -61 -49 -172zM195 287q0 80 47 119q43 43 116 65q80 25 158 33q102 14 170 26q14 2 62 15q33 8 47 33h4v-168q0 -76 -29 -140q-31 -63 -82 -104q-51 -45 -117 -66q-69 -22 -135 -22h-6q-47 0 -88 14 q-47 16 -76 43q-29 20 -53 66q-18 37 -18 86z" />
<glyph unicode="b" horiz-adv-x="1175" d="M123 0h119v201h4q47 -115 147 -170q100 -59 230 -60q125 0 208 45q88 41 150 119q63 86 88 180q29 102 29 213t-29 213q-25 94 -88 181q-59 76 -150 120q-84 45 -208 45q-59 0 -115 -14q-59 -16 -107 -45q-47 -27 -86 -72q-37 -41 -59 -100h-4v606h-129v-1462zM252 528.5 q0 81.5 18 163.5q23 82 66 144q45 68 115 102q68 41 172 41q96 0 157 -41q66 -37 109 -102q41 -66 61 -144q19 -84 19 -164q0 -82 -19 -163q-20 -78 -61 -144q-43 -66 -109 -102q-61 -41 -157 -41q-109 0 -172 41q-70 35 -115 102q-43 61 -66 144q-18 82 -18 163.5z" />
<glyph unicode="c" horiz-adv-x="1062" d="M102 311q35 -104 97 -176q63 -76 157 -119q90 -45 213 -45q178 0 295 107q115 106 142 301h-129q-6 -68 -33 -121q-29 -59 -68 -94q-37 -41 -94 -64q-53 -22 -108 -22h-5q-92 0 -161 39q-68 39 -117 102q-47 72 -70 146q-23 82 -23 160v3q0 80 23 164q23 74 70 146 q49 63 117 102q70 39 161 39q131 0 201 -68q71 -67 98 -186h129q-23 184 -141 272q-119 90 -287 90q-123 0 -213 -45q-94 -45 -157 -120q-61 -72 -97 -177q-33 -99 -33 -213q0 -118 33 -221z" />
<glyph unicode="d" horiz-adv-x="1175" d="M106 315q25 -94 89 -180q57 -76 149 -119q84 -45 209 -45q55 0 115 17q49 12 110 45q55 33 90 73q39 39 62 95h4v-201h119v1462h-129v-606h-4q-23 59 -60 100q-39 45 -86 72q-47 29 -106 45q-51 14 -115 14q-125 0 -209 -45q-90 -45 -149 -120q-63 -86 -89 -181 q-29 -100 -29 -209q0 -112 29 -217zM207 528q0 82 18 164q20 78 62 144q43 66 108 102q61 41 158 41q109 0 172 -41q70 -35 115 -102q43 -61 65 -144q18 -84 19 -164q0 -82 -19 -163q-23 -82 -65 -144q-45 -68 -115 -102q-63 -41 -172 -41q-96 0 -158 41q-66 37 -108 102 q-41 66 -62 144q-18 81 -18 163z" />
<glyph unicode="e" horiz-adv-x="1062" d="M70 528q0 -121 28 -213q23 -96 84 -180q57 -76 150 -119q88 -45 215 -45q203 0 309 99q113 100 152 278h-129q-31 -123 -111 -196.5t-221 -73.5q-94 0 -158 39q-66 41 -108 98q-41 55 -64 133q-18 78 -18 146h813q1 16 1 31q0 97 -22 188q-27 113 -82 188 q-51 80 -145 135q-88 51 -217 51q-125 0 -215 -47t-150 -127q-59 -82 -84 -180q-28 -91 -28 -198v-7zM199 602q10 80 34 139q23 66 68 123q47 53 105 82q59 33 141 33q80 0 139 -33q57 -29 105 -82q45 -59 65 -121q23 -63 27 -141h-684z" />
<glyph unicode="f" horiz-adv-x="530" d="M12 948h181v-948h129v948h208v109h-208v92q0 55 2 80q4 39 16 65q14 29 41 43q29 16 82 17q8 0 22.5 -1t22.5 -1q16 -4 49 -9v111q-31 4 -55 6q-16 2 -53 2q-74 0 -130 -22q-49 -20 -77 -64q-31 -43 -39 -98q-10 -66 -10 -125v-96h-181v-109z" />
<glyph unicode="g" d="M70 555q0 -117 26 -211q27 -98 84 -174q61 -74 150 -117q92 -41 217 -41q115 0 203 60q86 55 133 157h4v-143q0 -193 -80 -295t-260 -102q-51 0 -105 12q-49 8 -94 35q-41 25 -69 63q-33 45 -41 101h-129q6 -88 47 -146q35 -55 98 -98q59 -39 137 -57q76 -18 156 -19 q125 0 219 35q86 35 143 100q53 63 82 160q25 94 25 211v971h-129v-183h-4q-14 35 -52 82q-39 43 -77 68q-43 31 -95 47q-59 16 -112 16q-117 0 -203 -43q-88 -39 -151 -114q-59 -72 -91 -168q-32 -93 -32 -200v-7zM199 541q0 82 18 159q23 82 64 141.5t108 100.5 q66 37 158 37t158 -39q70 -45 104 -102q41 -68 59 -142q18 -76 19 -155q0 -86 -23 -156q-16 -68 -63 -135q-47 -59 -107 -94q-65 -35 -147 -35q-90 0 -156 35q-63 37 -108 94q-43 61 -63.5 135t-20.5 156z" />
<glyph unicode="h" horiz-adv-x="1099" d="M121 0h129v616q4 78 24 146q25 63 66 115q47 51 102 73q57 29 140 29q76 0 131 -25q53 -27 82 -67q31 -43 43 -101q12 -61 12 -127v-659h129v680q0 94 -18 170q-18 74 -64 129q-51 55 -119 80q-77 28 -179 28h-7q-115 0 -207 -59q-92 -53 -131 -154h-4v588h-129v-1462z " />
<glyph unicode="i" horiz-adv-x="378" d="M125 0h129v1057h-129v-1057zM125 1255h129v207h-129v-207z" />
<glyph unicode="j" horiz-adv-x="378" d="M-59 -279v-106q29 0 43 -2q16 -2 45 -2q68 0 110 24q41 18 70 62q23 37 37 94q8 70 8 113v1153h-129v-1184q0 -68 -21 -111q-23 -43 -96 -43q-10 -2 -33 -2q-6 0 -17 1t-17 3zM125 1255h129v207h-129v-207z" />
<glyph unicode="k" horiz-adv-x="1024" d="M123 0h129v401l209 174l418 -575h161l-481 666l451 391h-172l-586 -512v917h-129v-1462z" />
<glyph unicode="l" horiz-adv-x="378" d="M125 0h129v1462h-129v-1462z" />
<glyph unicode="m" horiz-adv-x="1705" d="M123 0h129v590q0 82 18 155q18 70 57.5 123.5t98.5 81.5q61 29 141 29q63 0 105 -21q43 -20 69 -57q25 -33 37 -82q10 -55 10 -102v-717h130v598q0 74 12 143q16 74 47 121q35 55 88 84q53 33 139 33q139 0 195 -70q55 -68 55 -198v-711h129v717q0 370 -348 370h-2 q-106 0 -197 -51q-94 -53 -139 -155q-27 102 -115 155q-82 51 -188 51q-127 0 -213 -55q-82 -57 -133 -153h-6v178h-119v-1057z" />
<glyph unicode="n" horiz-adv-x="1099" d="M121 0h129v616q4 78 24 146q25 63 66 115q47 51 102 73q57 29 140 29q76 0 131 -25q53 -27 82 -67q31 -43 43 -101q12 -61 12 -127v-659h129v680q0 94 -18 170q-18 74 -64 129q-51 55 -119 80q-77 28 -179 28h-7q-115 0 -207 -59q-92 -53 -131 -154h-4v183h-129v-1057z " />
<glyph unicode="o" d="M102 311q35 -104 97 -176q63 -76 157 -119q90 -45 213 -45t213 45q94 43 158 119q61 72 96 176q33 100 33 217t-33 217q-35 104 -96 177q-63 76 -158 120q-90 45 -213 45t-213 -45q-94 -45 -157 -120q-61 -72 -97 -177q-33 -99 -33 -213q0 -118 33 -221zM221 692 q23 74 70 146q49 63 117 102q69 39 161.5 39t161.5 -39q68 -39 117 -102q47 -72 70 -146q23 -82 23 -160q-1 -2 -1 -4q0 -80 -22 -163q-23 -74 -70 -146q-49 -63 -117 -102q-70 -39 -162 -39t-161 39q-68 39 -117 102q-47 72 -70 146q-23 82 -23 160q0 81 23 167z" />
<glyph unicode="p" horiz-adv-x="1175" d="M123 -389h129v590h4q23 -59 59 -101q39 -45 86 -71q49 -29 107 -43q55 -14 115 -15q125 0 208 45q88 41 150 119q63 86 88 180q29 102 29 213t-29 213q-25 94 -88 181q-59 76 -150 120q-84 45 -208 45q-129 0 -229.5 -59t-147.5 -172h-4v201h-119v-1446zM252 528 q0 90 18 172q14 80 60 144q43 61 114 98q72 37 179 37q96 0 157 -41q66 -37 109 -102q41 -66 61 -144q19 -84 19 -164q0 -82 -19 -163q-20 -78 -61 -144q-43 -66 -109 -102q-61 -41 -157 -41q-109 0 -172 41q-70 35 -115 102q-43 61 -66 144q-18 82 -18 163z" />
<glyph unicode="q" horiz-adv-x="1175" d="M106 315q25 -94 89 -180q57 -76 149 -119q84 -45 209 -45q63 0 115 15q57 14 106 43q47 27 86 71q37 41 60 101h4v-590h129v1446h-119v-201h-4q-25 59 -62 94q-35 41 -90 74q-57 35 -110 47q-59 16 -115 16q-125 0 -209 -45q-90 -45 -149 -120q-63 -86 -89 -181 q-29 -100 -29 -209q0 -112 29 -217zM207 528q0 82 18 164q20 78 62 144q43 66 108 102q61 41 158 41q109 0 172 -41q70 -35 115 -102q43 -61 65 -144q18 -84 19 -164q0 -82 -19 -163q-23 -82 -65 -144q-45 -68 -115 -102q-63 -41 -172 -41q-96 0 -158 41q-66 37 -108 102 q-41 66 -62 144q-18 81 -18 163z" />
<glyph unicode="r" horiz-adv-x="645" d="M123 0h129v563q0 84 29 154q25 63 79 123q57 55 125 78q54 25 132 25q14 0 28 -1v129q-12 0 -23 1q-130 0 -225 -64q-102 -72 -151 -199h-4v248h-119v-1057z" />
<glyph unicode="s" horiz-adv-x="985" d="M63 342q14 -193 134 -283q113 -88 301 -88q68 0 149 17q74 14 135 53q59 39 101 98q39 59 39 148q0 70 -27 121t-68 86q-49 39 -98 55q-41 20 -108 31l-172 38q-45 12 -72 21q-43 16 -72 34.5t-55 51.5q-20 31 -21 72q0 51 23 86q25 37 59 55q27 18 82 33q57 8 86 8 q55 0 105 -12q47 -14 88 -43q37 -29 59 -72q23 -45 25 -104h129q-2 82 -35 149q-31 66 -84 107q-47 41 -119 63q-68 20 -149 20q-63 0 -142 -16q-63 -14 -127 -51q-57 -33 -94 -92q-35 -59 -35 -137q0 -63 23 -115q20 -39 61 -78q37 -27 95 -53q80 -29 116 -37l166 -37 q43 -8 86 -25q49 -18 74 -36q29 -16 53 -54q18 -31 19 -77q0 -51 -27 -95q-33 -39 -72 -61q-45 -27 -92 -35q-57 -10 -98 -10q-127 0 -217 65q-86 68 -94 199h-130z" />
<glyph unicode="t" horiz-adv-x="606" d="M14 948h185v-723v-10q0 -127 49 -174q51 -51 180 -51q39 0 57.5 2t57.5 2v108q-55 -6 -111 -6q-68 2 -88 39q-16 39 -16 101v712h215v109h-215v317h-129v-317h-185v-109z" />
<glyph unicode="u" horiz-adv-x="1099" d="M121 371q0 -98 20 -168q23 -74 64 -125q47 -53 114 -78q70 -29 173 -29q121 0 217 58q96 55 147 161h4v-190h119v1057h-129v-555q0 -78 -19 -158q-20 -82 -57 -135q-43 -61 -98 -94q-57 -37 -144 -37q-152 0 -217 74q-63 76 -65 217v688h-129v-686z" />
<glyph unicode="v" horiz-adv-x="948" d="M4 1057l408 -1057h137l395 1057h-133l-328 -928h-4l-332 928h-143z" />
<glyph unicode="w" horiz-adv-x="1517" d="M16 1057l340 -1057h142l258 889h4l260 -889h141l340 1057h-137l-270 -905h-4l-259 905h-145l-258 -905h-4l-270 905h-138z" />
<glyph unicode="x" horiz-adv-x="985" d="M2 0h160l325 444l332 -444h164l-412 551l381 506h-161l-295 -402l-301 402h-162l379 -508z" />
<glyph unicode="y" horiz-adv-x="948" d="M4 1057l422 -1053l-45 -119q-16 -37 -31 -67q-18 -37 -35 -51q-20 -23 -49 -35q-25 -12 -69 -13q-6 0 -21.5 1t-23.5 1q-10 4 -43 9v-109q14 -6 38 -6q6 0 14.5 -1t22 -2t23.5 -1q63 0 100 12q41 8 70 37q31 25 55 70q29 49 53 110l459 1217h-129l-326 -901l-348 901 h-137z" />
<glyph unicode="z" horiz-adv-x="948" d="M31 0h882v109h-727l699 856v92h-807v-109h643l-690 -844v-104z" />
<glyph unicode="{" horiz-adv-x="681" d="M170 496q47 0 74 -29q31 -27 45 -74q16 -45 22 -104.5t6 -120.5v-301q0 -115 48 -186q45 -70 133 -70h102v108h-41q-33 0 -51 19q-18 12 -37 45q-12 29 -18.5 67.5t-6.5 79.5v287q0 86 -18 143q-16 57 -43 103q-27 39 -49 59q-14 14 -33 27v4q18 12 33 27q23 20 49 59 q27 45 43 102q18 57 18 144v289q0 39 7 79q6 39 18 66q16 35 37 49q20 16 51 16h41v109h-102q-88 0 -133 -70q-47 -72 -48 -186v-305q0 -63 -6 -121q-6 -51 -22 -106q-14 -39 -45 -74q-31 -27 -74 -27v-108z" />
<glyph unicode="|" horiz-adv-x="454" d="M174 -436h109v2046h-109v-2046z" />
<glyph unicode="}" horiz-adv-x="681" d="M82 -281v-108h102q88 0 133 70q47 72 48 186v303q0 63 6 121q6 51 22 106q14 39 45 74q31 27 74 27v108q-47 0 -74 29q-31 27 -45 74q-16 45 -22 104t-6 121v303q0 115 -48 186q-45 70 -133 70h-102v-109h41q27 0 53 -16q23 -23 33 -49q14 -25 20 -66t7 -79v-289 q0 -86 18 -144q16 -57 43 -102q25 -37 47 -59q16 -14 35 -27v-4q-18 -12 -35 -27q-23 -23 -47 -59q-27 -45 -43 -103q-18 -57 -18 -143v-287q0 -41 -7 -80q-6 -43 -20 -67q-12 -29 -33 -45q-25 -18 -53 -19h-41z" />
<glyph unicode="~" horiz-adv-x="1228" d="M141 461l74 -74q23 49 64 96q43 45 108 45q63 0 113 -20q86 -35 106 -45q35 -18 109 -47q53 -20 116 -21q39 0 87 15q43 23 67 41q33 27 55 57q33 40 47 63l-73 74q-31 -49 -76 -96q-43 -45 -104 -45q-41 0 -91 20q-86 35 -110 47q-39 16 -117 45q-59 20 -119 21 q-47 0 -90 -14q-43 -18 -74 -41q-35 -27 -53 -58q-29 -41 -39 -63z" />
<glyph unicode="&#xa1;" horiz-adv-x="493" d="M162 840h172v217h-172v-217zM178 31v-420h139v420l-30 661h-78z" />
<glyph unicode="&#xa2;" d="M110.5 528.5q0.5 -104.5 28.5 -202.5q29 -96 86 -170q57 -78 140 -123q82 -51 188 -60v-209h80v207q170 6 278 115q111 104 136 293h-129q-6 -61 -31 -117q-25 -53 -64 -94q-41 -41 -86 -64q-47 -23 -104 -26v901q115 -2 184 -70q67 -67 92 -184h129q-8 82 -45 156 q-33 61 -88 110q-51 45 -123 70q-68 23 -149 26v179h-80v-183q-106 -8 -188 -59q-82 -45 -140 -123q-57 -74 -86 -170q-29 -98 -28.5 -202.5zM240 528q0 78 18 152q23 80 59 137q39 59 97 105q63 41 139 53v-895q-78 12 -139 55q-57 45 -97 105q-37 57 -59 137 q-18 78 -18 151z" />
<glyph unicode="&#xa3;" d="M88 80l74 -109q51 31 55 33q23 16 49 27q31 10 53 16q29 6 68 6q61 0 111 -12q41 -10 96 -29q57 -18 98 -28q53 -12 119 -13q94 0 162 33q66 29 137 90l-66 99q-43 -45 -106 -82q-70 -33 -129 -33q-51 0 -92 12q-27 10 -84 31q-47 18 -92 29q-49 12 -117 12 q-51 0 -105 -19q-33 -14 -94 -43l-4 4q51 39 82 74q29 27 74 88q29 43 49 101q20 49 20 110q0 43 -12 103q-16 59 -37 96h291v65h-328q-20 51 -41 82q-31 57 -36 70q-20 39 -31 78q-12 37 -12 92q0 80 28 141q25 55 76 103q49 39 109 57q59 20 125 20q172 0 258 -106 q88 -102 88 -270h129q4 231 -121 356q-127 129 -354 129q-90 0 -172 -25t-150 -75q-70 -61 -104 -131q-41 -76 -41 -191q0 -94 32 -174q33 -76 80 -156h-129v-65h166q27 -43 41 -105q16 -70 16 -110q0 -61 -18 -115q-18 -49 -49 -100q-45 -57 -74 -86q-47 -47 -88 -80z" />
<glyph unicode="&#xa4;" d="M59 279l78 -78l115 114q66 -53 145 -84q84 -31 174.5 -30.5t169.5 28.5q76 29 144 84l112 -112l78 78l-110 110q53 68 83.5 147.5t30.5 172t-30.5 172.5t-83.5 147l110 111l-78 78l-112 -113q-66 53 -144 84q-80 29 -170 29t-174 -31q-78 -29 -145 -84l-115 115l-78 -78 l115 -115q-111 -135 -111 -315q0 -94 31 -170q27 -76 82 -144zM193 708.5q0 79.5 28 155.5q31 70 82 123q57 55 121 82q74 29 147.5 29t147.5 -29q63 -27 121 -82q51 -53 82 -123q29 -76 28.5 -155.5t-28.5 -153.5q-31 -72 -82 -125q-57 -55 -121 -82q-74 -29 -147.5 -29 t-147.5 29q-63 27 -121 82q-51 53 -82 125q-28 74 -28 153.5z" />
<glyph unicode="&#xa5;" d="M12 1462l430 -747h-217v-92h264l13 -21v-149h-277v-93h277v-360h129v360h280v93h-280v149l12 21h268v92h-223l432 747h-141l-412 -747l-407 747h-148z" />
<glyph unicode="&#xa6;" horiz-adv-x="454" d="M174 -180h109v510h-109v-510zM174 842h109v512h-109v-512z" />
<glyph unicode="&#xa7;" d="M92 690q0 -98 51 -172q59 -74 131 -127q70 -51 170 -100q104 -51 170 -94q72 -43 131 -103q51 -57 52 -131q0 -51 -19 -82q-23 -37 -53 -57q-39 -25 -74 -33q-45 -10 -84 -10q-55 0 -98 20q-49 23 -76 56q-31 29 -49 77q-16 53 -14 99h-129q0 -174 102 -266 q100 -94 277 -95q68 0 127 21q61 18 110 55t80 92q29 53 29 125q0 131 -103 221q51 20 86 47q39 25 72 64t47 80q19 47 19 96q0 98 -52 172q-59 74 -131 127q-70 51 -170 100q-104 51 -170 95q-72 43 -131 102q-51 57 -51 133q0 47 18 84q27 39 54 55q39 25 73 33 q45 10 84 10q55 0 98.5 -20.5t75.5 -52.5q35 -39 50 -82q16 -49 14 -99h129q0 178 -102 271q-102 92 -277 92q-63 0 -125 -18q-66 -23 -112 -58q-47 -37 -80 -90q-29 -57 -29 -127q0 -133 102 -223q-51 -20 -86 -47q-39 -25 -71.5 -64t-46.5 -80q-18 -45 -19 -96zM221 694 q0 86 47 137q43 51 121 84q55 -39 156 -88q119 -61 172 -98q76 -43 143 -115q58 -67 58 -143q0 -84 -50 -139q-53 -53 -123 -82q-66 47 -155 90q-90 49 -172 98q-82 55 -139 115q-57 63 -58 141z" />
<glyph unicode="&#xa8;" horiz-adv-x="378" d="M-59 1239h137v207h-137v-207zM301 1239h139v207h-139v-207z" />
<glyph unicode="&#xa9;" horiz-adv-x="1638" d="M57 731q0 -158 58 -301q61 -139 161 -240q98 -98 242 -161q143 -57 301 -57.5t301 57.5q143 63 242 161q96 96 162 240q57 147 57 301q0 156 -57 299q-63 141 -162 244q-104 104 -242 160q-133 59 -301 59t-301 -59q-137 -55 -242 -160q-104 -106 -161 -244 q-57 -143 -58 -299zM176 731q0 137 49 256q45 115 133 207q82 86 203 139q117 51 258 51q139 0 254 -51q121 -53 205 -139q88 -90 135 -207q49 -119 49 -256t-49 -256q-47 -117 -135 -207q-84 -86 -205 -139q-115 -51 -254 -51q-141 0 -258 51q-121 53 -203 139 q-88 92 -133 207q-49 119 -49 256zM393 731q0 -100 31 -186t88 -150q57 -66 139 -98q82 -35 187 -35q74 0 137 21q66 23 115 59q47 37 84 96q35 61 43 133h-105q-18 -90 -88 -153q-72 -63 -184 -64q-78 0 -146 29q-63 27 -106 80q-47 57 -64 119q-23 66 -22.5 149.5 t22.5 149.5q16 61 64 118q43 53 106 80q68 29 146 29q113 -2 184 -64q70 -63 88 -153h105q-8 72 -43 133q-37 59 -84 96q-47 35 -115 60q-63 20 -137 20q-104 0 -187 -35q-82 -33 -139 -98q-57 -63 -88 -149q-31 -82 -31 -187z" />
<glyph unicode="&#xaa;" horiz-adv-x="636" d="M-8 950q0 -102 67 -151q72 -45 172 -45q168 0 252 133h4q0 -55 17 -84q18 -31 82 -31q20 0 30 2q4 0 12.5 1t12.5 3v70q-12 -6 -27 -6q-47 0 -51 47v352q0 70 -22 102q-16 41 -58 64q-37 20 -84 31q-41 8 -98 8q-129 0 -203 -53q-78 -49 -84 -170h97q4 76 53 108 q53 35 122.5 35t127.5 -27q53 -31 53 -110q0 -37 -29 -45q-25 -12 -80 -19q-88 -8 -135 -14q-70 -6 -117 -29q-51 -18 -81 -61q-33 -35 -33 -111zM86 954q0 45 25 66q25 25 65 37q39 14 98 20q78 12 119 19q4 0 10.5 2t15.5 4t15 4q23 4 29 18h4v-96q0 -47 -21 -82 q-18 -35 -51 -61q-35 -25 -76 -37q-43 -14 -92 -14q-27 0 -49 8t-45 24q-14 10 -35 39q-12 20 -12 49z" />
<glyph unicode="&#xab;" horiz-adv-x="872" d="M123 500l272 -256v137l-192 182l192 182v138l-272 -256v-127zM453 500l272 -256v137l-193 182l193 182v138l-272 -256v-127z" />
<glyph unicode="&#xac;" horiz-adv-x="1228" d="M100 666h922v-439h108v547h-1030v-108z" />
<glyph unicode="&#xad;" horiz-adv-x="757" d="M123 504h512v119h-512v-119z" />
<glyph unicode="&#xae;" horiz-adv-x="1638" d="M57 731q0 -158 58 -301q61 -139 161 -240q98 -98 242 -161q143 -57 301 -57.5t301 57.5q143 63 242 161q96 96 162 240q57 147 57 301q0 156 -57 299q-63 141 -162 244q-104 104 -242 160q-133 59 -301 59t-301 -59q-137 -55 -242 -160q-104 -106 -161 -244 q-57 -143 -58 -299zM176 731q0 137 49 256q45 115 133 207q82 86 203 139q117 51 258 51q139 0 254 -51q121 -53 205 -139q88 -90 135 -207q49 -119 49 -256t-49 -256q-47 -117 -135 -207q-84 -86 -205 -139q-115 -51 -254 -51q-141 0 -258 51q-121 53 -203 139 q-88 92 -133 207q-49 119 -49 256zM543 291h108v391h183l247 -391h127l-262 391q45 8 86 27q37 14 70 45q31 31 49 73q16 45 16 101q0 119 -69 182q-68 61 -217 61h-338v-880zM651 774v305h199q41 0 78 -6t67 -24q29 -16 45 -45q18 -27 19 -76q0 -53 -23 -88 q-20 -29 -59 -45.5t-84 -16.5q-32 -4 -98 -4h-144z" />
<glyph unicode="&#xaf;" horiz-adv-x="378" d="M-145 1298h671v93h-671v-93z" />
<glyph unicode="&#xb0;" horiz-adv-x="819" d="M115 1151q0 -59 22 -115q23 -59 64 -94q35 -41 94 -63q55 -23 114.5 -23t114.5 23q53 23 94 63.5t62 93.5q25 53 25 114.5t-25 115.5q-18 43 -62 94q-51 43 -94 61q-53 25 -114.5 25t-114.5 -25q-53 -20 -94 -61t-64 -94q-22 -56 -22 -115zM195 1151q0 41 16 84 q14 39 47 68q29 33 68 47q43 16 84 16t84 -16q39 -14 67 -47q33 -29 47 -68q16 -43 16.5 -84t-16.5 -84q-14 -39 -47 -68q-29 -33 -67 -47q-43 -16 -84 -16q-92 0 -153.5 61.5t-61.5 153.5z" />
<glyph unicode="&#xb1;" horiz-adv-x="1228" d="M100 0h1030v109h-1030v-109zM102 553h459v-369h109v369h460v109h-460v368h-109v-368h-459v-109z" />
<glyph unicode="&#xb2;" horiz-adv-x="681" d="M31 561h618v80h-508q12 49 45 84q41 41 74 63q47 33 84 52q49 29 76 45q49 29 88 57q41 29 76 68q33 35 51 80q20 43 20 100q0 129 -86 194q-84 61 -213 62q-160 0 -235 -86q-76 -84 -72 -227h96q0 41 11 88q8 37 34 73q23 31 64 54q41 18 94 18q37 0 82 -10 q33 -10 66 -33q33 -29 45 -53q18 -31 18 -72q0 -55 -20 -90q-25 -41 -60 -74q-53 -51 -135 -98q-66 -35 -147 -92q-70 -53 -115 -117q-47 -63 -51 -166z" />
<glyph unicode="&#xb3;" horiz-adv-x="681" d="M16 844q-8 -145 80 -226q92 -76 244 -75q70 0 127 18q53 12 106 49q45 37 70 86q27 51 27 117q0 88 -52 141q-49 57 -141 70v4q76 16 117 68q41 53 41 123q0 59 -25 102q-23 39 -65 72q-45 27 -96 41q-51 12 -111 12q-145 0 -221 -82q-76 -80 -80 -209h96q-2 90 51 152 q53 59 154 59q82 0 141 -39q59 -37 60 -117q0 -39 -19 -67q-16 -31 -45 -47q-29 -20 -61 -27q-27 -10 -66 -10h-72v-80h72q92 0 160 -43q66 -43 65 -129q0 -45 -20 -78q-25 -39 -53 -57q-35 -25 -76 -37q-43 -12 -86 -12q-113 0 -170 61t-55 160h-97z" />
<glyph unicode="&#xb4;" horiz-adv-x="378" d="M68 1204h104l270 289h-159z" />
<glyph unicode="&#xb6;" horiz-adv-x="1228" d="M135 1061q0 -80 33 -152q39 -76 90 -123q57 -53 133 -83.5t168 -30.5v-1032h129v1714h246v-1714h129v1822h-471q-217 0 -338 -102q-119 -102 -119 -299z" />
<glyph unicode="&#xb7;" horiz-adv-x="569" d="M164 649q0 -49 37 -86q33 -37 84 -37q45 0 84 35q37 37 37 84q0 49 -37 86q-33 37 -84 37q-45 0 -84 -35q-37 -37 -37 -84z" />
<glyph unicode="&#xb8;" horiz-adv-x="378" d="M-10 -377q49 -25 92 -33q55 -10 98 -10q37 0 78 10q41 8 74 33q29 16 53 53q20 33 20.5 80t-24.5 76q-23 29 -57 41q-31 12 -78 16q-41 0 -78 -6l90 117h-72l-125 -160l33 -30q39 16 105 16q35 0 61.5 -20.5t26.5 -57.5q0 -47 -33 -67.5t-76 -20.5q-29 0 -90 8 q-51 14 -72 21z" />
<glyph unicode="&#xb9;" horiz-adv-x="681" d="M72 1196h247v-635h97v866h-82q-8 -47 -31 -84q-27 -31 -55 -43q-35 -16 -76 -18q-51 -4 -100 -6v-80z" />
<glyph unicode="&#xba;" horiz-adv-x="684" d="M6 1100q0 -76 23 -135q16 -59 61 -111q39 -45 103 -74q55 -26 139 -26q90 0 151 26q66 29 109 74q45 49 63 111q23 59 23 135t-23 135q-18 61 -63 111q-43 45 -109 73q-61 27 -151 27q-84 0 -139 -27q-63 -29 -103 -73q-45 -51 -61 -111q-23 -59 -23 -135zM102.5 1100 q-0.5 55 16.5 96q12 45 45 86q29 37 74 61q49 23 104 23t104 -23q45 -25 74 -61q33 -41 45 -86q16 -41 16.5 -96.5t-16.5 -95.5q-12 -45 -45 -86q-29 -37 -74 -62q-49 -22 -104 -22t-104 22q-45 25 -74 62q-33 41 -45 86q-16 41 -16.5 96z" />
<glyph unicode="&#xbb;" horiz-adv-x="872" d="M147 244l273 256v127l-273 256v-138l193 -182l-193 -182v-137zM477 244l273 256v127l-273 256v-138l193 -182l-193 -182v-137z" />
<glyph unicode="&#xbc;" horiz-adv-x="1708" d="M98 1196h248v-635h96v866h-82q-10 -55 -32 -84q-18 -27 -53 -43t-78 -18q-44 -4 -99 -6v-80zM272 -68h99l925 1553h-96zM885 205h430v-205h96v205h139v80h-139v581h-90l-436 -581v-80zM979 285l332 442h4v-442h-336z" />
<glyph unicode="&#xbd;" horiz-adv-x="1708" d="M98 1196h248v-635h96v866h-82q-10 -55 -32 -84q-18 -27 -53 -43t-78 -18q-44 -4 -99 -6v-80zM272 -68h99l925 1553h-96zM983 0h619v80h-508q12 49 45 84q41 41 73 63q47 33 84 52q49 29 76 45q49 29 88 57q41 29 76 68q29 33 53 79q18 47 19 101q0 129 -84 194 q-86 61 -215 62q-158 0 -236 -86q-76 -85 -72 -228h97q0 41 10 88q8 37 35 74q23 31 63 53q39 18 94 19q39 0 80 -10q35 -10 68 -33q33 -29 47 -53q16 -33 16 -72q0 -55 -20 -90q-25 -41 -59 -74q-59 -57 -138 -98q-84 -49 -143 -92q-68 -51 -119 -117q-45 -63 -49 -166z " />
<glyph unicode="&#xbe;" horiz-adv-x="1708" d="M16 844q-8 -145 80 -226q92 -76 244 -75q70 0 127 18q53 12 106 49q45 37 70 86q27 51 27 117q0 88 -52 141q-49 57 -141 70v4q76 16 117 68q41 53 41 123q0 59 -25 102q-23 39 -65 72q-45 27 -96 41q-51 12 -111 12q-145 0 -221 -82q-76 -80 -80 -209h96q-2 90 51 152 q53 59 154 59q82 0 141 -39q59 -37 60 -117q0 -39 -19 -67q-16 -31 -45 -47q-29 -20 -61 -27q-27 -10 -66 -10h-72v-80h72q92 0 160 -43q66 -43 65 -129q0 -45 -20 -78q-25 -39 -53 -57q-35 -25 -76 -37q-43 -12 -86 -12q-113 0 -170 61t-55 160h-97zM354 -68h99l925 1553 h-96zM885 205h430v-205h96v205h139v80h-139v581h-90l-436 -581v-80zM979 285l332 442h4v-442h-336z" />
<glyph unicode="&#xbf;" horiz-adv-x="1099" d="M111 -41q0 -92 32 -160q35 -72 90 -118q59 -49 132 -74q74 -27 161 -27q115 0 197 35q86 31 145 96q63 66 93 152q30 87 30 196h-129q4 -78 -18 -145q-20 -66 -62 -119q-41 -49 -102 -78q-68 -29 -148 -28q-63 0 -112 20q-59 25 -92 58q-39 31 -66 86q-23 55 -22 112 q0 80 39 144q41 70 94 118q43 39 110 107q45 45 74 96q29 55 41 115q12 72 10 160h-129q0 -18 -1 -53.5t-3 -49.5q-4 -51 -8 -74q-10 -37 -21 -53q-16 -29 -32 -45q-29 -33 -52 -53q-20 -18 -73 -72q-76 -74 -129 -153q-49 -80 -49 -193zM457 840h172v217h-172v-217z" />
<glyph unicode="&#xc0;" horiz-adv-x="1290" d="M-12 0h147l176 455h666l178 -455h150l-574 1462h-156zM354 573l293 750l283 -750h-576zM393 1868l271 -289h104l-215 289h-160z" />
<glyph unicode="&#xc1;" horiz-adv-x="1290" d="M-12 0h147l176 455h666l178 -455h150l-574 1462h-156zM354 573l293 750l283 -750h-576zM524 1579h105l270 289h-160z" />
<glyph unicode="&#xc2;" horiz-adv-x="1290" d="M-12 0h147l176 455h666l178 -455h150l-574 1462h-156zM342 1579h119l180 209l176 -209h133l-233 289h-142zM354 573l293 750l283 -750h-576z" />
<glyph unicode="&#xc3;" horiz-adv-x="1290" d="M-12 0h147l176 455h666l178 -455h150l-574 1462h-156zM324 1620h79q0 51 31 78q29 27 78 26q29 0 57 -14q6 -4 19.5 -10t25 -11.5t21.5 -11.5q27 -14 74 -32q37 -14 79 -15q39 0 72 17q20 12 53 45q25 41 33 63q13 29 21 70h-78q-12 -43 -37 -70q-23 -29 -70 -29 q-31 0 -57 15q-41 20 -66 31q-27 14 -71 30q-37 14 -82 15q-39 0 -72 -19q-35 -16 -55 -45q-18 -20 -37 -61q-14 -33 -18 -72zM354 573l293 750l283 -750h-576z" />
<glyph unicode="&#xc4;" horiz-adv-x="1290" d="M-12 0h147l176 455h666l178 -455h150l-574 1462h-156zM354 573l293 750l283 -750h-576zM395 1614h140v207h-140v-207zM758 1614h139v207h-139v-207z" />
<glyph unicode="&#xc5;" horiz-adv-x="1290" d="M-12 0h147l176 455h666l178 -455h150l-574 1462h-156zM354 573l293 750l283 -750h-576zM428 1761q0 -43 18 -86q14 -37 46 -69q33 -31 69 -45q43 -18 86 -18.5t86 18.5q37 14 70 45q31 33 45 69q18 43 18 86t-18 86q-14 37 -45 70q-33 31 -70 45q-43 18 -86 18t-86 -18 q-37 -14 -69 -45q-31 -33 -46 -70q-18 -43 -18 -86zM508 1761.5q0 63.5 41 98.5q35 41 98.5 41t97.5 -41q41 -35 41 -98.5t-41 -98.5q-35 -41 -98 -41t-98 41q-41 35 -41 98.5z" />
<glyph unicode="&#xc6;" horiz-adv-x="1857" d="M-12 0h155l238 463h530v-463h899v119h-759v577h704v119h-704v528h751v119h-1050zM442 582l387 761h82v-761h-469z" />
<glyph unicode="&#xc7;" horiz-adv-x="1441" d="M78 731q0 -147 39 -272q41 -139 116 -236q74 -100 193 -170q117 -66 270 -78l-104 -135l33 -30q39 16 104 16q35 0 61.5 -20.5t26.5 -57.5q0 -47 -32.5 -67.5t-75.5 -20.5q-29 0 -91 8q-51 14 -71 21l-29 -66q53 -25 94 -33q55 -10 99 -10q33 0 80 10q41 10 71 33 q29 16 53 53q20 33 20.5 80t-22.5 76q-27 29 -61 41q-29 12 -76 16q-41 0 -78 -6l68 88h2q125 0 236 41q106 41 182 117q78 78 127 184q47 105 63 244h-139q-8 -96 -47 -184q-37 -80 -96 -148q-57 -63 -142 -100q-84 -37 -184 -37q-145 0 -250 55q-106 55 -170 148 q-68 88 -98 205q-33 113 -33 235q0 125 33 236q31 117 98 204q63 92 170 148q104 55 250 55q76 0 154 -22q76 -27 131 -70q63 -47 102 -111q43 -68 62 -151h139q-16 117 -70 203q-51 88 -135 149.5t-180 89.5q-98 31 -203 31q-174 0 -301 -63q-131 -61 -217 -168 q-86 -104 -129 -242q-43 -139 -43 -289z" />
<glyph unicode="&#xc8;" horiz-adv-x="1214" d="M147 0h1020v119h-880v577h815v119h-815v528h870v119h-1010v-1462zM354 1868l271 -289h104l-215 289h-160z" />
<glyph unicode="&#xc9;" horiz-adv-x="1214" d="M147 0h1020v119h-880v577h815v119h-815v528h870v119h-1010v-1462zM485 1579h105l270 289h-160z" />
<glyph unicode="&#xca;" horiz-adv-x="1214" d="M147 0h1020v119h-880v577h815v119h-815v528h870v119h-1010v-1462zM303 1579h119l180 209l176 -209h133l-233 289h-141z" />
<glyph unicode="&#xcb;" horiz-adv-x="1214" d="M147 0h1020v119h-880v577h815v119h-815v528h870v119h-1010v-1462zM356 1614h140v207h-140v-207zM719 1614h139v207h-139v-207z" />
<glyph unicode="&#xcc;" horiz-adv-x="454" d="M-23 1868l269 -289h104l-215 289h-158zM158 0h139v1462h-139v-1462z" />
<glyph unicode="&#xcd;" horiz-adv-x="454" d="M106 1579h105l270 289h-159zM158 0h139v1462h-139v-1462z" />
<glyph unicode="&#xce;" horiz-adv-x="454" d="M-74 1579h117l180 209l176 -209h133l-233 289h-141zM158 0h139v1462h-139v-1462z" />
<glyph unicode="&#xcf;" horiz-adv-x="454" d="M-20 1614h137v207h-137v-207zM158 0h139v1462h-139v-1462zM340 1614h139v207h-139v-207z" />
<glyph unicode="&#xd0;" horiz-adv-x="1402" d="M0 713h147v-713h506q338 10 502 188q170 176 170 543t-170 543q-164 178 -502 188h-506v-657h-147v-92zM287 119v594h483v92h-483v538h297q147 0 272 -32q117 -39 186 -109q76 -76 109 -190q35 -121 35 -281t-35 -280q-33 -115 -109 -191q-70 -70 -186 -108 q-125 -33 -272 -33h-297z" />
<glyph unicode="&#xd1;" horiz-adv-x="1441" d="M145 0h140v1237h4l852 -1237h155v1462h-139v-1237h-4l-852 1237h-156v-1462zM399 1620h80q0 51 31 78q29 27 78 26q29 0 57 -14l66 -33q27 -14 73 -32q37 -14 80 -15q39 0 72 17q31 18 51 45q18 23 37 63q12 33 18 70h-77q-12 -41 -35 -70q-25 -29 -72 -29q-31 0 -59 15 l-62 31q-8 4 -22.5 10t-26.5 11t-24 9q-37 14 -82 15q-37 0 -72 -19q-35 -16 -55 -45q-18 -20 -37 -61q-14 -33 -19 -72z" />
<glyph unicode="&#xd2;" horiz-adv-x="1517" d="M70 731.5q0 -149.5 43 -289.5q43 -137 129 -241.5t217 -167.5q129 -61 301 -61.5t301 61.5q131 66 215 168q86 104 129 241q43 139 43 289t-43 289q-43 137 -129 242q-84 106 -215 168q-127 63 -301 63t-301 -63q-131 -61 -217 -168q-86 -104 -129 -242 q-43 -139 -43 -288.5zM209 731q0 125 33 236q31 117 98 204q63 92 170 148q104 55 249.5 55t248.5 -55q104 -55 172 -148q63 -88 98 -204q31 -115 31 -236q0 -119 -31 -235q-35 -117 -98 -205q-68 -92 -172 -148q-102 -55 -248 -55t-250 55q-106 55 -170 148q-68 88 -98 205 q-33 112 -33 235zM506 1868l270 -289h105l-215 289h-160z" />
<glyph unicode="&#xd3;" horiz-adv-x="1517" d="M70 731.5q0 -149.5 43 -289.5q43 -137 129 -241.5t217 -167.5q129 -61 301 -61.5t301 61.5q131 66 215 168q86 104 129 241q43 139 43 289t-43 289q-43 137 -129 242q-84 106 -215 168q-127 63 -301 63t-301 -63q-131 -61 -217 -168q-86 -104 -129 -242 q-43 -139 -43 -288.5zM209 731q0 125 33 236q31 117 98 204q63 92 170 148q104 55 249.5 55t248.5 -55q104 -55 172 -148q63 -88 98 -204q31 -115 31 -236q0 -119 -31 -235q-35 -117 -98 -205q-68 -92 -172 -148q-102 -55 -248 -55t-250 55q-106 55 -170 148q-68 88 -98 205 q-33 112 -33 235zM637 1579h104l271 289h-160z" />
<glyph unicode="&#xd4;" horiz-adv-x="1517" d="M70 731.5q0 -149.5 43 -289.5q43 -137 129 -241.5t217 -167.5q129 -61 301 -61.5t301 61.5q131 66 215 168q86 104 129 241q43 139 43 289t-43 289q-43 137 -129 242q-84 106 -215 168q-127 63 -301 63t-301 -63q-131 -61 -217 -168q-86 -104 -129 -242 q-43 -139 -43 -288.5zM209 731q0 125 33 236q31 117 98 204q63 92 170 148q104 55 249.5 55t248.5 -55q104 -55 172 -148q63 -88 98 -204q31 -115 31 -236q0 -119 -31 -235q-35 -117 -98 -205q-68 -92 -172 -148q-102 -55 -248 -55t-250 55q-106 55 -170 148q-68 88 -98 205 q-33 112 -33 235zM455 1579h118l181 209l176 -209h133l-234 289h-141z" />
<glyph unicode="&#xd5;" horiz-adv-x="1517" d="M70 731.5q0 -149.5 43 -289.5q43 -137 129 -241.5t217 -167.5q129 -61 301 -61.5t301 61.5q131 66 215 168q86 104 129 241q43 139 43 289t-43 289q-43 137 -129 242q-84 106 -215 168q-127 63 -301 63t-301 -63q-131 -61 -217 -168q-86 -104 -129 -242 q-43 -139 -43 -288.5zM209 731q0 125 33 236q31 117 98 204q63 92 170 148q104 55 249.5 55t248.5 -55q104 -55 172 -148q63 -88 98 -204q31 -115 31 -236q0 -119 -31 -235q-35 -117 -98 -205q-68 -92 -172 -148q-102 -55 -248 -55t-250 55q-106 55 -170 148q-68 88 -98 205 q-33 112 -33 235zM436 1620h80q0 51 31 78q29 27 78 26q29 0 57 -14q6 -4 19.5 -10t24.5 -11.5t22 -11.5q27 -14 73 -32q37 -14 80 -15q39 0 72 17q31 18 51 45q18 23 37 63q12 33 18 70h-78q-12 -41 -34 -70q-25 -29 -72 -29q-31 0 -59 15l-62 31q-8 4 -22.5 10t-26.5 11 t-25 9q-37 14 -82 15q-37 0 -71 -19q-35 -16 -55 -45q-18 -20 -37 -61q-14 -33 -19 -72z" />
<glyph unicode="&#xd6;" horiz-adv-x="1517" d="M70 731.5q0 -149.5 43 -289.5q43 -137 129 -241.5t217 -167.5q129 -61 301 -61.5t301 61.5q131 66 215 168q86 104 129 241q43 139 43 289t-43 289q-43 137 -129 242q-84 106 -215 168q-127 63 -301 63t-301 -63q-131 -61 -217 -168q-86 -104 -129 -242 q-43 -139 -43 -288.5zM209 731q0 125 33 236q31 117 98 204q63 92 170 148q104 55 249.5 55t248.5 -55q104 -55 172 -148q63 -88 98 -204q31 -115 31 -236q0 -119 -31 -235q-35 -117 -98 -205q-68 -92 -172 -148q-102 -55 -248 -55t-250 55q-106 55 -170 148q-68 88 -98 205 q-33 112 -33 235zM508 1614h139v207h-139v-207zM870 1614h140v207h-140v-207z" />
<glyph unicode="&#xd7;" horiz-adv-x="1228" d="M152 127l75 -76l387 385l387 -385l76 76l-387 387l387 387l-76 76l-387 -387l-387 387l-75 -76l385 -387z" />
<glyph unicode="&#xd8;" horiz-adv-x="1517" d="M70 731q0 -143 41 -282q39 -131 127 -242l-162 -180l55 -50l156 175q88 -88 202 -134q119 -47 271 -47q172 0 301 62q131 66 215 168q86 104 129 241q43 139 43 289q0 145 -41 287q-39 135 -127 242l150 165l-54 48l-145 -160q-88 88 -203 133q-117 47 -268 47 q-174 0 -301 -63q-131 -61 -217 -168q-86 -104 -129 -242q-43 -139 -43 -289zM209 731q0 125 33 236q31 117 98 204q63 92 170 148q104 55 250 55q129 0 223 -43q94 -45 160 -117l-815 -907q-63 92 -90 197q-29 115 -29 227zM375 250l813 907q66 -90 92 -199 q29 -115 29 -227q0 -119 -31 -235q-35 -117 -98 -205q-68 -92 -172 -148q-102 -55 -248 -55q-129 0 -223 43t-162 119z" />
<glyph unicode="&#xd9;" horiz-adv-x="1402" d="M133 526q0 -111 31 -215q35 -104 102 -176q68 -76 176 -119q102 -45 258 -45q154 0 262.5 45t176.5 119q68 76 98 176q33 100 33 215v936h-140v-905q0 -121 -28 -217q-29 -88 -84 -143q-53 -57 -135 -82q-78 -27 -183 -27q-102 0 -180 27q-82 25 -135 82q-55 55 -84 143 q-29 96 -29 217v905h-139v-936zM449 1868l270 -289h104l-215 289h-159z" />
<glyph unicode="&#xda;" horiz-adv-x="1402" d="M133 526q0 -111 31 -215q35 -104 102 -176q68 -76 176 -119q102 -45 258 -45q154 0 262.5 45t176.5 119q68 76 98 176q33 100 33 215v936h-140v-905q0 -121 -28 -217q-29 -88 -84 -143q-53 -57 -135 -82q-78 -27 -183 -27q-102 0 -180 27q-82 25 -135 82q-55 55 -84 143 q-29 96 -29 217v905h-139v-936zM580 1579h104l270 289h-159z" />
<glyph unicode="&#xdb;" horiz-adv-x="1402" d="M133 526q0 -111 31 -215q35 -104 102 -176q68 -76 176 -119q102 -45 258 -45q154 0 262.5 45t176.5 119q68 76 98 176q33 100 33 215v936h-140v-905q0 -121 -28 -217q-29 -88 -84 -143q-53 -57 -135 -82q-78 -27 -183 -27q-102 0 -180 27q-82 25 -135 82q-55 55 -84 143 q-29 96 -29 217v905h-139v-936zM397 1579h119l180 209l176 -209h134l-234 289h-141z" />
<glyph unicode="&#xdc;" horiz-adv-x="1402" d="M133 526q0 -111 31 -215q35 -104 102 -176q68 -76 176 -119q102 -45 258 -45q154 0 262.5 45t176.5 119q68 76 98 176q33 100 33 215v936h-140v-905q0 -121 -28 -217q-29 -88 -84 -143q-53 -57 -135 -82q-78 -27 -183 -27q-102 0 -180 27q-82 25 -135 82q-55 55 -84 143 q-29 96 -29 217v905h-139v-936zM451 1614h139v207h-139v-207zM813 1614h139v207h-139v-207z" />
<glyph unicode="&#xdd;" horiz-adv-x="1251" d="M-18 1462l573 -860v-602h139v602l578 860h-166l-479 -741l-482 741h-163zM504 1579h104l271 289h-160z" />
<glyph unicode="&#xde;" horiz-adv-x="1290" d="M147 0h140v387h510q92 0 178 27q80 31 137 82q55 53 88 133q31 76 31 176t-31 176q-33 80 -88 133q-57 51 -137 82q-86 27 -178 27h-510v239h-140v-1462zM287 506v598h479q147 0 235 -74q90 -74 90.5 -225.5t-90.5 -224.5q-88 -74 -235 -74h-479z" />
<glyph unicode="&#xdf;" horiz-adv-x="1099" d="M125 0h129v1085q0 147 63.5 223t217.5 76q55 0 104 -18q45 -16 86 -51q41 -41 57 -82q23 -43 23 -105q0 -80 -31 -131q-27 -51 -78 -79q-53 -31 -114 -44q-63 -12 -131 -12v-108q94 0 172 -13q80 -12 135 -49q53 -31 90 -100q31 -63 31 -172q0 -86 -29 -150 q-29 -68 -76 -102q-41 -41 -104 -57q-59 -18 -123 -19q-33 0 -47 2l-49 6v-110q10 -2 26 -2q8 -2 25 -2h51q100 4 180 30q84 27 144 86q63 61 96 144q35 86 35 196q0 74 -21 136q-18 66 -57 118q-43 51 -96 86q-63 33 -132 39v4q113 25 170 111q61 86 62 197q0 90 -33 153 q-29 63 -86 115q-59 45 -127 69q-78 23 -156 23q-90 0 -167 -25q-76 -25 -127 -73q-55 -53 -82 -125q-31 -74 -31 -174v-1096z" />
<glyph unicode="&#xe0;" horiz-adv-x="1062" d="M66 279q0 -82 28 -140q25 -55 74 -94t115 -57q66 -16 137 -17q82 0 133 15q61 16 102 41q45 29 78 67q39 37 72 90h4q0 -43 6 -73q2 -31 21 -60q12 -20 45 -39q31 -12 80 -12q33 0 43 2q12 2 40 6v109q-16 -8 -40 -8q-76 0 -76 77v562q0 104 -35 174q-35 66 -90 102.5 t-125 48.5q-66 14 -139 14q-94 0 -168 -20q-76 -20 -133 -63q-53 -41 -88 -111q-33 -66 -39 -160h129q2 125 82 189q80 57 200 57q39 0 109 -8q53 -14 86 -35q35 -23 61 -68q20 -45 21 -106q0 -41 -13 -70q-10 -29 -30 -41q-18 -16 -51 -22q-39 -8 -72 -11 q-35 -4 -103.5 -12t-103.5 -12q-109 -16 -180 -47q-84 -35 -131 -96q-49 -61 -49 -172zM195 287q0 80 47 119q43 43 116 65q80 25 158 33q102 14 170 26q14 2 62 15q33 8 47 33h4v-168q0 -76 -29 -140q-31 -63 -82 -104q-51 -45 -117 -66q-72 -23 -141 -22q-47 0 -88 14 q-47 16 -76 43q-29 20 -53 66q-18 37 -18 86zM279 1493l270 -289h104l-215 289h-159z" />
<glyph unicode="&#xe1;" horiz-adv-x="1062" d="M66 279q0 -82 28 -140q25 -55 74 -94t115 -57q66 -16 137 -17q82 0 133 15q61 16 102 41q45 29 78 67q39 37 72 90h4q0 -43 6 -73q2 -31 21 -60q12 -20 45 -39q31 -12 80 -12q33 0 43 2q12 2 40 6v109q-16 -8 -40 -8q-76 0 -76 77v562q0 104 -35 174q-35 66 -90 102.5 t-125 48.5q-66 14 -139 14q-94 0 -168 -20q-76 -20 -133 -63q-53 -41 -88 -111q-33 -66 -39 -160h129q2 125 82 189q80 57 200 57q39 0 109 -8q53 -14 86 -35q35 -23 61 -68q20 -45 21 -106q0 -41 -13 -70q-10 -29 -30 -41q-18 -16 -51 -22q-39 -8 -72 -11 q-35 -4 -103.5 -12t-103.5 -12q-109 -16 -180 -47q-84 -35 -131 -96q-49 -61 -49 -172zM195 287q0 80 47 119q43 43 116 65q80 25 158 33q102 14 170 26q14 2 62 15q33 8 47 33h4v-168q0 -76 -29 -140q-31 -63 -82 -104q-51 -45 -117 -66q-72 -23 -141 -22q-47 0 -88 14 q-47 16 -76 43q-29 20 -53 66q-18 37 -18 86zM410 1204h104l270 289h-159z" />
<glyph unicode="&#xe2;" horiz-adv-x="1062" d="M66 279q0 -82 28 -140q25 -55 74 -94t115 -57q66 -16 137 -17q82 0 133 15q61 16 102 41q45 29 78 67q39 37 72 90h4q0 -43 6 -73q2 -31 21 -60q12 -20 45 -39q31 -12 80 -12q33 0 43 2q12 2 40 6v109q-16 -8 -40 -8q-76 0 -76 77v562q0 104 -35 174q-35 66 -90 102.5 t-125 48.5q-66 14 -139 14q-94 0 -168 -20q-76 -20 -133 -63q-53 -41 -88 -111q-33 -66 -39 -160h129q2 125 82 189q80 57 200 57q39 0 109 -8q53 -14 86 -35q35 -23 61 -68q20 -45 21 -106q0 -41 -13 -70q-10 -29 -30 -41q-18 -16 -51 -22q-39 -8 -72 -11 q-35 -4 -103.5 -12t-103.5 -12q-109 -16 -180 -47q-84 -35 -131 -96q-49 -61 -49 -172zM195 287q0 80 47 119q43 43 116 65q80 25 158 33q102 14 170 26q14 2 62 15q33 8 47 33h4v-168q0 -76 -29 -140q-31 -63 -82 -104q-51 -45 -117 -66q-72 -23 -141 -22q-47 0 -88 14 q-47 16 -76 43q-29 20 -53 66q-18 37 -18 86zM227 1204h119l180 209l176 -209h134l-234 289h-141z" />
<glyph unicode="&#xe3;" horiz-adv-x="1062" d="M66 279q0 -82 28 -140q25 -55 74 -94t115 -57q66 -16 137 -17q82 0 133 15q61 16 102 41q45 29 78 67q39 37 72 90h4q0 -43 6 -73q2 -31 21 -60q12 -20 45 -39q31 -12 80 -12q33 0 43 2q12 2 40 6v109q-16 -8 -40 -8q-76 0 -76 77v562q0 104 -35 174q-35 66 -90 102.5 t-125 48.5q-66 14 -139 14q-94 0 -168 -20q-76 -20 -133 -63q-53 -41 -88 -111q-33 -66 -39 -160h129q2 125 82 189q80 57 200 57q39 0 109 -8q53 -14 86 -35q35 -23 61 -68q20 -45 21 -106q0 -41 -13 -70q-10 -29 -30 -41q-18 -16 -51 -22q-39 -8 -72 -11 q-35 -4 -103.5 -12t-103.5 -12q-109 -16 -180 -47q-84 -35 -131 -96q-49 -61 -49 -172zM195 287q0 80 47 119q43 43 116 65q80 25 158 33q102 14 170 26q14 2 62 15q33 8 47 33h4v-168q0 -76 -29 -140q-31 -63 -82 -104q-51 -45 -117 -66q-72 -23 -141 -22q-47 0 -88 14 q-47 16 -76 43q-29 20 -53 66q-18 37 -18 86zM209 1245h80q0 49 30 78q29 27 78 27q29 0 58 -15q6 -4 19 -10t24.5 -11t21.5 -11q27 -14 74 -33q37 -14 80 -15q41 0 71 19q29 14 54 45q20 27 32 61q13 29 21 70h-78q-12 -43 -37 -70q-23 -29 -69 -28q-31 0 -58 14 q-41 20 -65 31q-27 14 -72 30q-37 14 -82 15q-35 0 -72 -17q-31 -16 -55 -45q-23 -33 -37 -63q-14 -33 -18 -72z" />
<glyph unicode="&#xe4;" horiz-adv-x="1062" d="M66 279q0 -82 28 -140q25 -55 74 -94t115 -57q66 -16 137 -17q82 0 133 15q61 16 102 41q45 29 78 67q39 37 72 90h4q0 -43 6 -73q2 -31 21 -60q12 -20 45 -39q31 -12 80 -12q33 0 43 2q12 2 40 6v109q-16 -8 -40 -8q-76 0 -76 77v562q0 104 -35 174q-35 66 -90 102.5 t-125 48.5q-66 14 -139 14q-94 0 -168 -20q-76 -20 -133 -63q-53 -41 -88 -111q-33 -66 -39 -160h129q2 125 82 189q80 57 200 57q39 0 109 -8q53 -14 86 -35q35 -23 61 -68q20 -45 21 -106q0 -41 -13 -70q-10 -29 -30 -41q-18 -16 -51 -22q-39 -8 -72 -11 q-35 -4 -103.5 -12t-103.5 -12q-109 -16 -180 -47q-84 -35 -131 -96q-49 -61 -49 -172zM195 287q0 80 47 119q43 43 116 65q80 25 158 33q102 14 170 26q14 2 62 15q33 8 47 33h4v-168q0 -76 -29 -140q-31 -63 -82 -104q-51 -45 -117 -66q-72 -23 -141 -22q-47 0 -88 14 q-47 16 -76 43q-29 20 -53 66q-18 37 -18 86zM281 1239h139v207h-139v-207zM643 1239h139v207h-139v-207z" />
<glyph unicode="&#xe5;" horiz-adv-x="1062" d="M66 279q0 -82 28 -140q25 -55 74 -94t115 -57q66 -16 137 -17q82 0 133 15q61 16 102 41q45 29 78 67q39 37 72 90h4q0 -43 6 -73q2 -31 21 -60q12 -20 45 -39q31 -12 80 -12q33 0 43 2q12 2 40 6v109q-16 -8 -40 -8q-76 0 -76 77v562q0 104 -35 174q-35 66 -90 102.5 t-125 48.5q-66 14 -139 14q-94 0 -168 -20q-76 -20 -133 -63q-53 -41 -88 -111q-33 -66 -39 -160h129q2 125 82 189q80 57 200 57q39 0 109 -8q53 -14 86 -35q35 -23 61 -68q20 -45 21 -106q0 -41 -13 -70q-10 -29 -30 -41q-18 -16 -51 -22q-39 -8 -72 -11 q-35 -4 -103.5 -12t-103.5 -12q-109 -16 -180 -47q-84 -35 -131 -96q-49 -61 -49 -172zM195 287q0 80 47 119q43 43 116 65q80 25 158 33q102 14 170 26q14 2 62 15q33 8 47 33h4v-168q0 -76 -29 -140q-31 -63 -82 -104q-51 -45 -117 -66q-72 -23 -141 -22q-47 0 -88 14 q-47 16 -76 43q-29 20 -53 66q-18 37 -18 86zM313 1386.5q0 -47.5 19 -83.5q14 -39 45 -70q29 -29 69 -49q45 -16 86 -16.5t86 16.5q41 20 70 49q31 31 45 70q18 37 18.5 84t-18.5 83q-14 39 -45 70q-29 29 -70 49q-45 16 -85.5 16.5t-86.5 -16.5q-41 -20 -69 -49 q-31 -31 -45 -70q-19 -36 -19 -83.5zM393 1386.5q0 59.5 41 100.5q39 39 98.5 39t98.5 -39q41 -41 41 -100.5t-41 -100.5q-39 -39 -98.5 -39t-98.5 39q-41 41 -41 100.5z" />
<glyph unicode="&#xe6;" horiz-adv-x="1781" d="M66 279q0 -82 28 -140q25 -55 74 -94t115 -57q66 -16 137 -17q66 0 143 17q72 14 137 49q61 33 107 82q43 49 55 117h4q47 -137 146 -199q98 -66 241 -66q184 0 303 95q119 100 158 276h-129q-27 -125 -106 -195q-72 -70 -207 -69q-88 0 -160 33q-70 39 -111 90 q-43 59 -61 133q-18 76 -12 160h794q0 106 -22 223q-23 106 -76 188q-51 82 -141 133q-86 49 -217 49q-59 0 -115 -14q-61 -12 -107 -41q-43 -20 -90 -67q-37 -37 -59 -97h-4q-8 66 -47 111q-35 45 -86 65q-53 27 -107 33q-51 10 -112 10q-94 0 -168 -20q-76 -20 -133 -63 q-53 -41 -88 -111q-33 -66 -39 -160h129q2 125 82 189q80 57 200 57q39 0 109 -8q53 -14 86 -35q35 -23 61 -68q20 -45 21 -106q0 -41 -13 -70q-10 -29 -30 -41q-18 -16 -51 -22q-39 -8 -72 -11q-35 -4 -103.5 -12t-103.5 -12q-109 -16 -180 -47q-84 -35 -131 -96 q-49 -61 -49 -172zM195 287q0 80 47 119q43 43 116 65q80 25 158 33q102 14 170 26q14 2 62 15q33 8 47 33h4v-168q0 -76 -29 -140q-31 -63 -82 -104q-51 -45 -117 -66q-72 -23 -141 -22q-47 0 -88 14q-47 16 -76 43q-29 20 -53 66q-18 37 -18 86zM928 602q-2 63 18 143 q27 76 66 119q41 53 106 84q61 31 141 31t140 -33q57 -29 104 -82q45 -59 66 -121q24 -67 24 -141h-665z" />
<glyph unicode="&#xe7;" horiz-adv-x="1062" d="M70 528q0 -104 28 -200q27 -92 84 -170q57 -76 137 -121q84 -49 189 -62l-105 -135l33 -30q39 16 105 16q35 0 61.5 -20.5t26.5 -57.5q0 -47 -33 -67.5t-76 -20.5q-29 0 -90 8q-51 14 -72 21l-28 -66q53 -25 94 -33q55 -10 98 -10q33 0 80 10q41 10 72 33q29 16 53 53 q20 33 20.5 80t-22.5 76q-27 29 -61 41q-29 12 -76 16q-41 0 -78 -6l68 88q176 4 286 111q113 102 142 297h-129q-6 -68 -33 -121q-29 -59 -68 -94q-37 -41 -94 -64q-55 -23 -113 -22q-92 0 -161 39q-68 39 -117 102q-47 72 -70 146q-23 84 -22.5 163.5t22.5 163.5 q23 74 70 146q49 63 117 102q70 39 161 39q131 0 201 -68q72 -68 98 -186h129q-23 184 -141 272q-119 90 -287 90q-123 0 -213 -45q-94 -45 -157 -120q-61 -72 -97 -177q-33 -100 -32 -217z" />
<glyph unicode="&#xe8;" horiz-adv-x="1062" d="M70 528q0 -121 28 -213q23 -96 84 -180q57 -76 150 -119q88 -45 215 -45q203 0 309 99q113 100 152 278h-129q-31 -123 -111 -196.5t-221 -73.5q-94 0 -158 39q-66 41 -108 98q-41 55 -64 133q-18 78 -18 146h813q4 113 -21 219q-27 113 -82 188q-51 80 -145 135 q-88 51 -217 51q-125 0 -215 -47t-150 -127q-59 -82 -84 -180q-29 -94 -28 -205zM199 602q10 80 34 139q23 66 68 123q47 53 105 82q59 33 141 33q80 0 139 -33q57 -29 105 -82q45 -59 65 -121q23 -63 27 -141h-684zM279 1493l270 -289h104l-215 289h-159z" />
<glyph unicode="&#xe9;" horiz-adv-x="1062" d="M70 528q0 -121 28 -213q23 -96 84 -180q57 -76 150 -119q88 -45 215 -45q203 0 309 99q113 100 152 278h-129q-31 -123 -111 -196.5t-221 -73.5q-94 0 -158 39q-66 41 -108 98q-41 55 -64 133q-18 78 -18 146h813q4 113 -21 219q-27 113 -82 188q-51 80 -145 135 q-88 51 -217 51q-125 0 -215 -47t-150 -127q-59 -82 -84 -180q-29 -94 -28 -205zM199 602q10 80 34 139q23 66 68 123q47 53 105 82q59 33 141 33q80 0 139 -33q57 -29 105 -82q45 -59 65 -121q23 -63 27 -141h-684zM410 1204h104l270 289h-159z" />
<glyph unicode="&#xea;" horiz-adv-x="1062" d="M70 528q0 -121 28 -213q23 -96 84 -180q57 -76 150 -119q88 -45 215 -45q203 0 309 99q113 100 152 278h-129q-31 -123 -111 -196.5t-221 -73.5q-94 0 -158 39q-66 41 -108 98q-41 55 -64 133q-18 78 -18 146h813q4 113 -21 219q-27 113 -82 188q-51 80 -145 135 q-88 51 -217 51q-125 0 -215 -47t-150 -127q-59 -82 -84 -180q-29 -94 -28 -205zM199 602q10 80 34 139q23 66 68 123q47 53 105 82q59 33 141 33q80 0 139 -33q57 -29 105 -82q45 -59 65 -121q23 -63 27 -141h-684zM227 1204h119l180 209l176 -209h134l-234 289h-141z" />
<glyph unicode="&#xeb;" horiz-adv-x="1062" d="M70 528q0 -121 28 -213q23 -96 84 -180q57 -76 150 -119q88 -45 215 -45q203 0 309 99q113 100 152 278h-129q-31 -123 -111 -196.5t-221 -73.5q-94 0 -158 39q-66 41 -108 98q-41 55 -64 133q-18 78 -18 146h813q4 113 -21 219q-27 113 -82 188q-51 80 -145 135 q-88 51 -217 51q-125 0 -215 -47t-150 -127q-59 -82 -84 -180q-29 -94 -28 -205zM199 602q10 80 34 139q23 66 68 123q47 53 105 82q59 33 141 33q80 0 139 -33q57 -29 105 -82q45 -59 65 -121q23 -63 27 -141h-684zM281 1239h139v207h-139v-207zM643 1239h139v207h-139 v-207z" />
<glyph unicode="&#xec;" horiz-adv-x="378" d="M-61 1493l268 -289h104l-215 289h-157zM125 0h129v1057h-129v-1057z" />
<glyph unicode="&#xed;" horiz-adv-x="378" d="M68 1204h104l270 289h-159zM125 0h129v1057h-129v-1057z" />
<glyph unicode="&#xee;" horiz-adv-x="378" d="M-113 1204h117l180 209l176 -209h134l-234 289h-141zM125 0h129v1057h-129v-1057z" />
<glyph unicode="&#xef;" horiz-adv-x="378" d="M-59 1239h137v207h-137v-207zM125 0h129v1057h-129v-1057zM301 1239h139v207h-139v-207z" />
<glyph unicode="&#xf0;" d="M70 510q0 -111 28 -213q31 -98 90 -170q59 -74 152 -115q94 -41 215 -41q131 0 223 45q94 43 155.5 119t92.5 176q31 98 31 217q0 133 -31 250q-31 113 -84 213q-53 98 -127 185q-74 82 -160 153l224 125l-68 66l-233 -131q-49 39 -107 69q-43 29 -106 62l-74 -72 q45 -23 96 -53.5t94 -59.5l-205 -114l68 -66l215 121q84 -66 154 -146q63 -72 118 -176h-4q-47 47 -120 66q-82 16 -152 16q-115 0 -207 -41q-90 -43 -151 -114q-61 -70 -95 -168q-33 -96 -32 -203zM199 508q0 90 20 160q20 78 64 135q49 61 114 90q68 35 168 35 q94 0 168 -35q66 -37 111 -96q41 -55 63 -133q20 -70 21 -152q0 -90 -23 -174q-25 -80 -69 -137q-47 -59 -115 -90q-68 -33 -160 -33q-96 0 -164 37q-66 31 -114 94q-41 55 -64 137q-20 74 -20 162z" />
<glyph unicode="&#xf1;" horiz-adv-x="1099" d="M121 0h129v616q4 78 24 146q25 63 66 115q47 51 102 73q57 29 140 29q76 0 131 -25q53 -27 82 -67q31 -43 43 -101q12 -61 12 -127v-659h129v680q0 94 -18 170q-18 74 -64 129q-51 55 -119 80q-80 29 -186 28q-115 0 -207 -59q-92 -53 -131 -154h-4v183h-129v-1057z M227 1245h80q0 49 31 78q29 27 78 27q29 0 57 -15l66 -32q27 -14 73 -33q37 -14 80 -15q41 0 72 19q35 16 51 45q16 16 37 61q12 31 18 70h-77q-12 -41 -35 -70q-25 -29 -72 -28q-31 0 -59 14q-8 4 -18.5 9t-24 11.5t-19.5 10.5l-73 30q-37 14 -82 15q-35 0 -72 -17 q-31 -16 -55 -45q-23 -33 -37 -63q-14 -33 -19 -72z" />
<glyph unicode="&#xf2;" d="M69.5 528.5q0.5 -116.5 32.5 -217.5q35 -104 97 -176q63 -76 157 -119q90 -45 213 -45t213 45q94 43 158 119q61 72 96 176q33 100 33 217t-33 217q-35 104 -96 177q-63 76 -158 120q-90 45 -213 45t-213 -45q-94 -45 -157 -120q-61 -72 -97 -177q-33 -100 -32.5 -216.5z M198.5 528.5q0.5 79.5 22.5 163.5q23 74 70 146q49 63 117 102q69 39 161.5 39t161.5 -39q68 -39 117 -102q47 -72 70 -146q23 -84 22.5 -163.5t-22.5 -163.5q-23 -74 -70 -146q-49 -63 -117 -102q-70 -39 -162 -39t-161 39q-68 39 -117 102q-47 72 -70 146 q-23 84 -22.5 163.5zM317 1493l271 -289h104l-215 289h-160z" />
<glyph unicode="&#xf3;" d="M69.5 528.5q0.5 -116.5 32.5 -217.5q35 -104 97 -176q63 -76 157 -119q90 -45 213 -45t213 45q94 43 158 119q61 72 96 176q33 100 33 217t-33 217q-35 104 -96 177q-63 76 -158 120q-90 45 -213 45t-213 -45q-94 -45 -157 -120q-61 -72 -97 -177q-33 -100 -32.5 -216.5z M198.5 528.5q0.5 79.5 22.5 163.5q23 74 70 146q49 63 117 102q69 39 161.5 39t161.5 -39q68 -39 117 -102q47 -72 70 -146q23 -84 22.5 -163.5t-22.5 -163.5q-23 -74 -70 -146q-49 -63 -117 -102q-70 -39 -162 -39t-161 39q-68 39 -117 102q-47 72 -70 146 q-23 84 -22.5 163.5zM449 1204h104l270 289h-159z" />
<glyph unicode="&#xf4;" d="M69.5 528.5q0.5 -116.5 32.5 -217.5q35 -104 97 -176q63 -76 157 -119q90 -45 213 -45t213 45q94 43 158 119q61 72 96 176q33 100 33 217t-33 217q-35 104 -96 177q-63 76 -158 120q-90 45 -213 45t-213 -45q-94 -45 -157 -120q-61 -72 -97 -177q-33 -100 -32.5 -216.5z M198.5 528.5q0.5 79.5 22.5 163.5q23 74 70 146q49 63 117 102q69 39 161.5 39t161.5 -39q68 -39 117 -102q47 -72 70 -146q23 -84 22.5 -163.5t-22.5 -163.5q-23 -74 -70 -146q-49 -63 -117 -102q-70 -39 -162 -39t-161 39q-68 39 -117 102q-47 72 -70 146 q-23 84 -22.5 163.5zM266 1204h119l180 209l176 -209h133l-233 289h-141z" />
<glyph unicode="&#xf5;" d="M69.5 528.5q0.5 -116.5 32.5 -217.5q35 -104 97 -176q63 -76 157 -119q90 -45 213 -45t213 45q94 43 158 119q61 72 96 176q33 100 33 217t-33 217q-35 104 -96 177q-63 76 -158 120q-90 45 -213 45t-213 -45q-94 -45 -157 -120q-61 -72 -97 -177q-33 -100 -32.5 -216.5z M198.5 528.5q0.5 79.5 22.5 163.5q23 74 70 146q49 63 117 102q69 39 161.5 39t161.5 -39q68 -39 117 -102q47 -72 70 -146q23 -84 22.5 -163.5t-22.5 -163.5q-23 -74 -70 -146q-49 -63 -117 -102q-70 -39 -162 -39t-161 39q-68 39 -117 102q-47 72 -70 146 q-23 84 -22.5 163.5zM248 1245h80q0 49 30 78q29 27 78 27q29 0 58 -15l65 -32q27 -14 74 -33q37 -14 80 -15q41 0 71 19q35 16 52 45q16 16 36 61q13 31 19 70h-78q-12 -41 -35 -70q-25 -29 -71 -28q-31 0 -60 14l-61 31q-8 4 -22.5 10t-27 11t-24.5 9q-37 14 -82 15 q-35 0 -72 -17q-31 -16 -55 -45q-23 -33 -37 -63q-14 -33 -18 -72z" />
<glyph unicode="&#xf6;" d="M69.5 528.5q0.5 -116.5 32.5 -217.5q35 -104 97 -176q63 -76 157 -119q90 -45 213 -45t213 45q94 43 158 119q61 72 96 176q33 100 33 217t-33 217q-35 104 -96 177q-63 76 -158 120q-90 45 -213 45t-213 -45q-94 -45 -157 -120q-61 -72 -97 -177q-33 -100 -32.5 -216.5z M198.5 528.5q0.5 79.5 22.5 163.5q23 74 70 146q49 63 117 102q69 39 161.5 39t161.5 -39q68 -39 117 -102q47 -72 70 -146q23 -84 22.5 -163.5t-22.5 -163.5q-23 -74 -70 -146q-49 -63 -117 -102q-70 -39 -162 -39t-161 39q-68 39 -117 102q-47 72 -70 146 q-23 84 -22.5 163.5zM319 1239h140v207h-140v-207zM682 1239h139v207h-139v-207z" />
<glyph unicode="&#xf7;" horiz-adv-x="1228" d="M100 461h1030v108h-1030v-108zM500 102q0 -45 35 -79q33 -33 81 -33q41 0 80 35q33 37 33 77q0 43 -33 82q-39 33 -82 33t-82 -33q-32 -39 -32 -82zM500 928q0 -49 35 -80q33 -35 81 -35q41 0 80 35q33 39 33 80q0 47 -33 80q-35 35 -82 34.5t-82 -34.5q-32 -33 -32 -80z " />
<glyph unicode="&#xf8;" d="M59 18l45 -38l121 129q66 -68 148 -101q86 -37 196 -37q123 0 213 45q94 43 158 119q61 72 96 176q33 100 33 217q0 109 -29 201q-25 92 -82 172l111 121l-45 41l-106 -115q-63 68 -150 103q-88 37 -199 36q-123 0 -213 -45q-94 -45 -157 -120q-61 -72 -97 -177 q-33 -100 -32 -217q0 -104 28 -202q29 -96 86 -170zM199 528q0 80 22 164q23 74 70 146q49 63 117 102q70 39 161 39q82 0 152 -33q67 -39 110 -90l-559 -604q-41 61 -55 133q-18 68 -18 143zM309 199l559 604q39 -61 54 -131q18 -68 18 -144q0 -80 -22 -163 q-23 -74 -70 -146q-49 -63 -117 -102q-70 -39 -162 -39q-82 0 -151 33q-68 39 -109 88z" />
<glyph unicode="&#xf9;" horiz-adv-x="1099" d="M121 371q0 -98 20 -168q23 -74 64 -125q47 -53 114 -78q70 -29 173 -29q121 0 217 58q96 55 147 161h4v-190h119v1057h-129v-555q0 -78 -19 -158q-20 -82 -57 -135q-43 -61 -98 -94q-57 -37 -144 -37q-152 0 -217 74q-63 76 -65 217v688h-129v-686zM297 1493l270 -289 h105l-215 289h-160z" />
<glyph unicode="&#xfa;" horiz-adv-x="1099" d="M121 371q0 -98 20 -168q23 -74 64 -125q47 -53 114 -78q70 -29 173 -29q121 0 217 58q96 55 147 161h4v-190h119v1057h-129v-555q0 -78 -19 -158q-20 -82 -57 -135q-43 -61 -98 -94q-57 -37 -144 -37q-152 0 -217 74q-63 76 -65 217v688h-129v-686zM428 1204h104l271 289 h-160z" />
<glyph unicode="&#xfb;" horiz-adv-x="1099" d="M121 371q0 -98 20 -168q23 -74 64 -125q47 -53 114 -78q70 -29 173 -29q121 0 217 58q96 55 147 161h4v-190h119v1057h-129v-555q0 -78 -19 -158q-20 -82 -57 -135q-43 -61 -98 -94q-57 -37 -144 -37q-152 0 -217 74q-63 76 -65 217v688h-129v-686zM246 1204h119l180 209 l176 -209h133l-233 289h-142z" />
<glyph unicode="&#xfc;" horiz-adv-x="1099" d="M121 371q0 -98 20 -168q23 -74 64 -125q47 -53 114 -78q70 -29 173 -29q121 0 217 58q96 55 147 161h4v-190h119v1057h-129v-555q0 -78 -19 -158q-20 -82 -57 -135q-43 -61 -98 -94q-57 -37 -144 -37q-152 0 -217 74q-63 76 -65 217v688h-129v-686zM299 1239h139v207 h-139v-207zM662 1239h139v207h-139v-207z" />
<glyph unicode="&#xfd;" horiz-adv-x="948" d="M4 1057l422 -1053l-45 -119q-16 -37 -31 -67q-18 -37 -35 -51q-20 -23 -49 -35q-25 -12 -69 -13q-6 0 -21.5 1t-23.5 1q-10 4 -43 9v-109q14 -6 38 -6q6 0 14.5 -1t22 -2t23.5 -1q63 0 100 12q41 8 70 37q31 25 55 70q29 49 53 110l459 1217h-129l-326 -901l-348 901 h-137zM352 1204h105l270 289h-160z" />
<glyph unicode="&#xfe;" horiz-adv-x="1175" d="M123 -389h129v590h4q23 -59 59 -101q39 -45 86 -71q49 -29 107 -43q55 -14 115 -15q125 0 208 45q88 41 150 119q63 86 88 180q29 102 29 213t-29 213q-25 94 -88 181q-59 76 -150 120q-84 45 -208 45q-59 0 -115 -14q-59 -16 -107 -45q-47 -27 -86 -72q-37 -41 -59 -100 h-4v606h-129v-1851zM252 528.5q0 81.5 18 163.5q23 82 66 144q45 68 115 102q68 41 172 41q96 0 157 -41q66 -37 109 -102q41 -66 61 -144q19 -84 19 -164q0 -82 -19 -163q-20 -78 -61 -144q-43 -66 -109 -102q-61 -41 -157 -41q-109 0 -172 41q-70 35 -115 102 q-43 61 -66 144q-18 82 -18 163.5z" />
<glyph unicode="&#xff;" horiz-adv-x="948" d="M4 1057l422 -1053l-45 -119q-16 -37 -31 -67q-18 -37 -35 -51q-20 -23 -49 -35q-25 -12 -69 -13q-6 0 -21.5 1t-23.5 1q-10 4 -43 9v-109q14 -6 38 -6q6 0 14.5 -1t22 -2t23.5 -1q63 0 100 12q41 8 70 37q31 25 55 70q29 49 53 110l459 1217h-129l-326 -901l-348 901 h-137zM223 1239h139v207h-139v-207zM586 1239h139v207h-139v-207z" />
<glyph unicode="&#x152;" horiz-adv-x="2199" d="M76 731.5q0 -147.5 47 -293.5q45 -133 135 -241q94 -109 219 -164q129 -61 291 -62q111 0 215 43q106 41 182 129v-143h977v119h-837v577h753v119h-753v528h831v119h-971v-121q-70 80 -176 117q-109 35 -221 35q-162 0 -291 -61q-125 -59 -219 -166q-90 -109 -135 -242 q-47 -145 -47 -292.5zM215 731q0 125 35 246q35 111 106 205q72 86 176 141q106 51 236 51q57 0 113 -14q59 -12 114.5 -37t98.5 -61.5t61 -83.5q4 -18 8 -56q2 -21 2 -80v-680q-4 -41 -10 -59q-6 -31 -27 -53q-72 -94 -159 -127q-92 -35 -201 -35q-129 0 -236 51 q-104 55 -176 142q-72 94 -106 204q-35 121 -35 246z" />
<glyph unicode="&#x153;" horiz-adv-x="1820" d="M74 528q0 -109 24 -213q31 -106 82 -176q55 -76 146 -123q88 -45 213 -45q133 0 239 66q98 66 140 201h4q33 -131 139 -199t237 -68q188 0 304 95q120 94 163 274h-129q-33 -119 -112 -193q-76 -70 -213 -69q-86 0 -148 37q-68 35 -102 94q-37 47 -62 131q-18 78 -18 154 h786q0 293 -108 444q-106 150 -344 149q-141 0 -243.5 -71.5t-145.5 -188.5h-4q-41 135 -142 197q-100 63 -235 63q-121 0 -209 -47q-82 -41 -148 -122q-59 -84 -86 -179q-29 -104 -28 -211zM203 504q0 72 14 168q20 92 55 151q39 70 105 113t166 43q98 0 155 -39 q63 -43 95 -102q35 -68 47 -142q12 -80 12 -159q0 -78 -12 -162q-10 -74 -45 -150q-39 -70 -95 -106q-63 -41 -159 -41q-90 0 -156 37t-104 98q-41 61 -60 135q-18 78 -18 156zM981 602q0 80 20 143q23 72 64 119q37 51 102 84q61 31 144 31q80 0 141 -31q66 -33 102 -84 q37 -45 64 -119q20 -77 20 -143h-657z" />
<glyph unicode="&#x178;" horiz-adv-x="1251" d="M-18 1462l573 -860v-602h139v602l578 860h-166l-479 -741l-482 741h-163zM375 1614h139v207h-139v-207zM737 1614h140v207h-140v-207z" />
<glyph unicode="&#x2c6;" horiz-adv-x="378" d="M-113 1204h117l180 209l176 -209h134l-234 289h-141z" />
<glyph unicode="&#x2dc;" horiz-adv-x="378" d="M-131 1245h80q0 49 31 78q27 27 75 27q29 0 58 -15l65 -32q27 -14 74 -33q37 -14 80 -15q41 0 71 19q35 16 52 45q16 16 37 61q12 31 18 70h-78q-12 -41 -35 -70q-25 -29 -71 -28q-31 0 -60 14l-18 9t-23.5 11.5t-19.5 10.5l-74 30q-37 14 -82 15q-37 0 -69 -17 q-27 -14 -58 -45q-23 -33 -37 -63q-14 -37 -16 -72z" />
<glyph unicode="&#x2000;" horiz-adv-x="990" />
<glyph unicode="&#x2001;" horiz-adv-x="1980" />
<glyph unicode="&#x2002;" horiz-adv-x="990" />
<glyph unicode="&#x2003;" horiz-adv-x="1980" />
<glyph unicode="&#x2004;" horiz-adv-x="660" />
<glyph unicode="&#x2005;" horiz-adv-x="495" />
<glyph unicode="&#x2006;" horiz-adv-x="330" />
<glyph unicode="&#x2007;" horiz-adv-x="330" />
<glyph unicode="&#x2008;" horiz-adv-x="247" />
<glyph unicode="&#x2009;" horiz-adv-x="396" />
<glyph unicode="&#x200a;" horiz-adv-x="110" />
<glyph unicode="&#x2010;" horiz-adv-x="757" d="M123 504h512v119h-512v-119z" />
<glyph unicode="&#x2011;" horiz-adv-x="757" d="M123 504h512v119h-512v-119z" />
<glyph unicode="&#x2012;" horiz-adv-x="757" d="M123 504h512v119h-512v-119z" />
<glyph unicode="&#x2013;" horiz-adv-x="1024" d="M0 504h1024v119h-1024v-119z" />
<glyph unicode="&#x2014;" horiz-adv-x="2048" d="M266 504h1516v119h-1516v-119z" />
<glyph unicode="&#x2018;" horiz-adv-x="569" d="M195 965h172v217h-86q-2 16 2 55q6 25 18 57q12 25 31 49q25 25 45 31v88q-45 -12 -80 -41q-37 -31 -57 -65q-25 -45 -35 -82q-10 -51 -10 -90v-219z" />
<glyph unicode="&#x2019;" horiz-adv-x="569" d="M193 965q43 12 81 41q37 33 56 67q25 41 35 82q10 47 10 88v219h-172v-217h86q2 -16 -2 -53q-6 -33 -19 -59q-10 -25 -30 -52q-20 -20 -45 -28v-88z" />
<glyph unicode="&#x201a;" horiz-adv-x="569" d="M193 -190v-89q43 12 81 41q37 33 56 66q25 45 35 82q10 51 10 90v217h-172v-217h86q2 -14 -2 -53q-6 -25 -19 -58q-16 -33 -30 -49q-18 -23 -45 -30z" />
<glyph unicode="&#x201c;" horiz-adv-x="757" d="M131 965h172v217h-86q-2 20 4 55q2 23 17 57q12 25 30 49q25 25 45 31v88q-45 -12 -80 -41q-37 -31 -57 -65q-25 -47 -33 -82q-12 -45 -12 -90v-219zM446 965h172v217h-86q-2 20 5 55q2 23 16 57q12 25 31 49q23 25 45 31v88q-45 -12 -80 -41q-37 -31 -57 -65 q-25 -47 -33 -82q-12 -45 -13 -90v-219z" />
<glyph unicode="&#x201d;" horiz-adv-x="757" d="M129 965q49 12 80 41q35 27 57 67q25 43 33 82q12 43 12 88v219h-172v-217h86q2 -23 -4 -53q-2 -29 -16 -59q-10 -25 -31 -52q-20 -20 -45 -28v-88zM444 965q49 12 80 41q35 27 58 67q25 43 32 82q12 43 13 88v219h-172v-217h86q2 -23 -4 -53q-2 -29 -17 -59 q-10 -25 -31 -52q-20 -20 -45 -28v-88z" />
<glyph unicode="&#x201e;" horiz-adv-x="757" d="M129 -190v-89q49 12 80 41q35 25 57 66q25 47 33 82q12 45 12 90v217h-172v-217h86q2 -18 -4 -53q-2 -23 -16 -58q-16 -33 -31 -49q-18 -23 -45 -30zM444 -190v-89q49 12 80 41q35 25 58 66q25 47 32 82q12 45 13 90v217h-172v-217h86q2 -18 -4 -53q-2 -23 -17 -58 q-16 -33 -31 -49q-18 -23 -45 -30z" />
<glyph unicode="&#x2022;" horiz-adv-x="1024" d="M147 731q0 -74 29 -141q27 -63 78 -119q49 -49 115 -78q70 -29 143.5 -28.5t142.5 28.5q66 29 115 78q53 53 80 119q29 68 29 141.5t-29 140.5q-27 68 -80 117q-49 51 -115 78q-70 29 -143.5 29t-142.5 -29q-63 -27 -114.5 -78t-78.5 -117q-29 -67 -29 -141z" />
<glyph unicode="&#x2026;" horiz-adv-x="2048" d="M256 0h172v217h-172v-217zM938 0h172v217h-172v-217zM1620 0h172v217h-172v-217z" />
<glyph unicode="&#x202f;" horiz-adv-x="396" />
<glyph unicode="&#x2039;" horiz-adv-x="530" d="M109 500l272 -256v137l-193 182l193 182v138l-272 -256v-127z" />
<glyph unicode="&#x203a;" horiz-adv-x="530" d="M150 244l272 256v127l-272 256v-138l192 -182l-192 -182v-137z" />
<glyph unicode="&#x205f;" horiz-adv-x="495" />
<glyph unicode="&#x20ac;" d="M31 584h135q31 -270 168 -432q156 -180 414 -181q205 0 360 131v158q-88 -88 -160 -129q-90 -47 -196 -47q-201 0 -324 154q-100 131 -129 346h578l38 92h-622q-2 4 -2 16v17q0 37 6 88h657l37 92h-682q37 195 142 315q119 137 307 137q192 1 327 -161l56 120 q-127 158 -381 158q-244 0 -400 -168q-141 -147 -188 -401h-104l-37 -92h131q-2 -16 -2 -43q-2 -14 -2 -37v-23q0 -14 2 -18h-90z" />
<glyph unicode="&#x2122;" horiz-adv-x="2027" d="M168 1370h274v-752h109v752h274v92h-657v-92zM975 618h108v746h4l299 -746h62l299 746h4v-746h109v844h-174l-265 -684l-272 684h-174v-844z" />
<glyph unicode="&#xe000;" horiz-adv-x="1054" d="M0 0v1055h1055v-1055h-1055z" />
<glyph unicode="&#xfb01;" horiz-adv-x="909" d="M12 948h181v-948h129v948h208v109h-208v92q0 55 2 80q4 39 16 65q14 29 41 43q29 16 82 17q8 0 22.5 -1t22.5 -1q16 -4 49 -9v111q-31 4 -55 6q-16 2 -53 2q-74 0 -130 -22q-49 -20 -77 -64q-31 -43 -39 -98q-10 -66 -10 -125v-96h-181v-109zM655 0h129v1057h-129v-1057z M655 1255h129v207h-129v-207z" />
<glyph unicode="&#xfb02;" horiz-adv-x="909" d="M12 948h181v-948h129v948h208v109h-208v92q0 55 2 80q4 39 16 65q14 29 41 43q29 16 82 17q8 0 22.5 -1t22.5 -1q16 -4 49 -9v111q-31 4 -55 6q-16 2 -53 2q-74 0 -130 -22q-49 -20 -77 -64q-31 -43 -39 -98q-10 -66 -10 -125v-96h-181v-109zM655 0h129v1462h-129v-1462z " />
</font>
</defs>
</svg>
